<?xml version="1.0" encoding="utf-8"?>
<!-- Generator: Adobe Illustrator 25.4.1, SVG Export Plug-In . SVG Version: 6.00 Build 0)  -->
<svg version="1.1" id="Calque_1" xmlns="http://www.w3.org/2000/svg" xmlns:xlink="http://www.w3.org/1999/xlink" x="0px" y="0px"
	 viewBox="0 0 1175 700" style="enable-background:new 0 0 1175 700;" xml:space="preserve">
<style type="text/css">
	.st0{fill:#666666;}
	.st1{opacity:0.15;fill:url(#SVGID_1_);}
	.st2{opacity:0.5;fill:url(#SVGID_00000096742024061625567830000001071368713800513463_);}
	.st3{opacity:0.15;fill:url(#SVGID_00000075841254987823707420000011014058824618437554_);}
	.st4{opacity:0.15;fill:url(#SVGID_00000106869203774193660010000016154533490664527277_);}
	.st5{opacity:0.15;fill:url(#SVGID_00000028297364876753379050000003476271428925070241_);}
	.st6{fill:url(#SVGID_00000048502916268197166270000008812959388992291738_);}
	.st7{fill:url(#SVGID_00000145757513554468718220000014022324209974259131_);}
	.st8{fill:#E6EDFD;}
	.st9{fill:#BDD0FB;}
	.st10{fill:none;stroke:#E24F47;stroke-width:3;stroke-miterlimit:10;}
	.st11{fill:#E24F47;}
	.st12{fill:url(#SVGID_00000136380133546214359780000015303539579835660991_);}
	.st13{fill:url(#SVGID_00000152975294794648361100000012653762331863666596_);}
	.st14{fill:url(#SVGID_00000070809782182905239880000014664444990454329481_);}
	.st15{opacity:0.15;fill:url(#SVGID_00000183211311648726784230000006071203032783912835_);}
	.st16{fill:url(#SVGID_00000082344076280884794460000011779819427124323461_);}
	.st17{fill:url(#SVGID_00000047026966841398044100000010894561186681208501_);}
	.st18{clip-path:url(#SVGID_00000154412563571013247650000010075953219876539803_);fill:#190F8C;}
	.st19{clip-path:url(#SVGID_00000154412563571013247650000010075953219876539803_);fill:#190F8B;}
	.st20{clip-path:url(#SVGID_00000154412563571013247650000010075953219876539803_);fill:#180E8A;}
	.st21{clip-path:url(#SVGID_00000154412563571013247650000010075953219876539803_);fill:#180E88;}
	.st22{clip-path:url(#SVGID_00000154412563571013247650000010075953219876539803_);fill:#170E87;}
	.st23{clip-path:url(#SVGID_00000154412563571013247650000010075953219876539803_);fill:#170D86;}
	.st24{clip-path:url(#SVGID_00000154412563571013247650000010075953219876539803_);fill:#160D85;}
	.st25{clip-path:url(#SVGID_00000154412563571013247650000010075953219876539803_);fill:#160D83;}
	.st26{clip-path:url(#SVGID_00000154412563571013247650000010075953219876539803_);fill:#160C82;}
	.st27{clip-path:url(#SVGID_00000154412563571013247650000010075953219876539803_);fill:#150C81;}
	.st28{clip-path:url(#SVGID_00000154412563571013247650000010075953219876539803_);fill:#150C80;}
	.st29{clip-path:url(#SVGID_00000154412563571013247650000010075953219876539803_);fill:#140B7F;}
	.st30{clip-path:url(#SVGID_00000154412563571013247650000010075953219876539803_);fill:#140B7E;}
	.st31{clip-path:url(#SVGID_00000154412563571013247650000010075953219876539803_);fill:#130B7C;}
	.st32{clip-path:url(#SVGID_00000154412563571013247650000010075953219876539803_);fill:#130A7B;}
	.st33{clip-path:url(#SVGID_00000154412563571013247650000010075953219876539803_);fill:#130A7A;}
	.st34{clip-path:url(#SVGID_00000154412563571013247650000010075953219876539803_);fill:#120A79;}
	.st35{clip-path:url(#SVGID_00000154412563571013247650000010075953219876539803_);fill:#120978;}
	.st36{clip-path:url(#SVGID_00000154412563571013247650000010075953219876539803_);fill:#110977;}
	.st37{clip-path:url(#SVGID_00000154412563571013247650000010075953219876539803_);fill:#110976;}
	.st38{clip-path:url(#SVGID_00000154412563571013247650000010075953219876539803_);fill:#110875;}
	.st39{clip-path:url(#SVGID_00000154412563571013247650000010075953219876539803_);fill:#100874;}
	.st40{clip-path:url(#SVGID_00000154412563571013247650000010075953219876539803_);fill:#100872;}
	.st41{clip-path:url(#SVGID_00000154412563571013247650000010075953219876539803_);fill:#100771;}
	.st42{clip-path:url(#SVGID_00000154412563571013247650000010075953219876539803_);fill:#0F0770;}
	.st43{clip-path:url(#SVGID_00000154412563571013247650000010075953219876539803_);fill:#0F076F;}
	.st44{clip-path:url(#SVGID_00000154412563571013247650000010075953219876539803_);fill:#0E076E;}
	.st45{clip-path:url(#SVGID_00000154412563571013247650000010075953219876539803_);fill:#0E066D;}
	.st46{clip-path:url(#SVGID_00000154412563571013247650000010075953219876539803_);fill:#0E066C;}
	.st47{clip-path:url(#SVGID_00000154412563571013247650000010075953219876539803_);fill:#0D066B;}
	.st48{clip-path:url(#SVGID_00000154412563571013247650000010075953219876539803_);fill:#0D056A;}
	.st49{clip-path:url(#SVGID_00000154412563571013247650000010075953219876539803_);fill:#0C0569;}
	.st50{clip-path:url(#SVGID_00000154412563571013247650000010075953219876539803_);fill:#0C0568;}
	.st51{clip-path:url(#SVGID_00000154412563571013247650000010075953219876539803_);fill:#0C0467;}
	.st52{clip-path:url(#SVGID_00000154412563571013247650000010075953219876539803_);fill:#0B0466;}
	.st53{clip-path:url(#SVGID_00000154412563571013247650000010075953219876539803_);fill:#0B0465;}
	.st54{clip-path:url(#SVGID_00000154412563571013247650000010075953219876539803_);fill:#0B0464;}
	.st55{clip-path:url(#SVGID_00000154412563571013247650000010075953219876539803_);fill:#0B0364;}
	.st56{clip-path:url(#SVGID_00000154412563571013247650000010075953219876539803_);fill:#0A0363;}
	.st57{clip-path:url(#SVGID_00000154412563571013247650000010075953219876539803_);fill:#0A0362;}
	.st58{clip-path:url(#SVGID_00000006693544051782218050000015358968092540479369_);fill:#0E468A;}
	.st59{clip-path:url(#SVGID_00000006693544051782218050000015358968092540479369_);fill:#0E4689;}
	.st60{clip-path:url(#SVGID_00000006693544051782218050000015358968092540479369_);fill:#0E4588;}
	.st61{clip-path:url(#SVGID_00000006693544051782218050000015358968092540479369_);fill:#0E4586;}
	.st62{clip-path:url(#SVGID_00000006693544051782218050000015358968092540479369_);fill:#0E4585;}
	.st63{clip-path:url(#SVGID_00000006693544051782218050000015358968092540479369_);fill:#0E4484;}
	.st64{clip-path:url(#SVGID_00000006693544051782218050000015358968092540479369_);fill:#0E4483;}
	.st65{clip-path:url(#SVGID_00000006693544051782218050000015358968092540479369_);fill:#0E4481;}
	.st66{clip-path:url(#SVGID_00000006693544051782218050000015358968092540479369_);fill:#0E4380;}
	.st67{clip-path:url(#SVGID_00000006693544051782218050000015358968092540479369_);fill:#0D437F;}
	.st68{clip-path:url(#SVGID_00000006693544051782218050000015358968092540479369_);fill:#0D437E;}
	.st69{clip-path:url(#SVGID_00000006693544051782218050000015358968092540479369_);fill:#0D427D;}
	.st70{clip-path:url(#SVGID_00000006693544051782218050000015358968092540479369_);fill:#0D427C;}
	.st71{clip-path:url(#SVGID_00000006693544051782218050000015358968092540479369_);fill:#0D427A;}
	.st72{clip-path:url(#SVGID_00000006693544051782218050000015358968092540479369_);fill:#0D4179;}
	.st73{clip-path:url(#SVGID_00000006693544051782218050000015358968092540479369_);fill:#0D4178;}
	.st74{clip-path:url(#SVGID_00000006693544051782218050000015358968092540479369_);fill:#0D4177;}
	.st75{clip-path:url(#SVGID_00000006693544051782218050000015358968092540479369_);fill:#0D4076;}
	.st76{clip-path:url(#SVGID_00000006693544051782218050000015358968092540479369_);fill:#0D4075;}
	.st77{clip-path:url(#SVGID_00000006693544051782218050000015358968092540479369_);fill:#0D4074;}
	.st78{clip-path:url(#SVGID_00000006693544051782218050000015358968092540479369_);fill:#0D3F73;}
	.st79{clip-path:url(#SVGID_00000006693544051782218050000015358968092540479369_);fill:#0D3F72;}
	.st80{clip-path:url(#SVGID_00000006693544051782218050000015358968092540479369_);fill:#0D3F70;}
	.st81{clip-path:url(#SVGID_00000006693544051782218050000015358968092540479369_);fill:#0D3E6F;}
	.st82{clip-path:url(#SVGID_00000006693544051782218050000015358968092540479369_);fill:#0D3E6E;}
	.st83{clip-path:url(#SVGID_00000006693544051782218050000015358968092540479369_);fill:#0D3E6D;}
	.st84{clip-path:url(#SVGID_00000006693544051782218050000015358968092540479369_);fill:#0D3E6C;}
	.st85{clip-path:url(#SVGID_00000006693544051782218050000015358968092540479369_);fill:#0D3D6B;}
	.st86{clip-path:url(#SVGID_00000006693544051782218050000015358968092540479369_);fill:#0C3D6A;}
	.st87{clip-path:url(#SVGID_00000006693544051782218050000015358968092540479369_);fill:#0C3D69;}
	.st88{clip-path:url(#SVGID_00000006693544051782218050000015358968092540479369_);fill:#0C3C68;}
	.st89{clip-path:url(#SVGID_00000006693544051782218050000015358968092540479369_);fill:#0C3C67;}
	.st90{clip-path:url(#SVGID_00000006693544051782218050000015358968092540479369_);fill:#0C3C66;}
	.st91{clip-path:url(#SVGID_00000006693544051782218050000015358968092540479369_);fill:#0C3B65;}
	.st92{clip-path:url(#SVGID_00000006693544051782218050000015358968092540479369_);fill:#0C3B64;}
	.st93{clip-path:url(#SVGID_00000006693544051782218050000015358968092540479369_);fill:#0C3B63;}
	.st94{clip-path:url(#SVGID_00000006693544051782218050000015358968092540479369_);fill:#0C3B62;}
	.st95{clip-path:url(#SVGID_00000006693544051782218050000015358968092540479369_);fill:#0C3A62;}
	.st96{clip-path:url(#SVGID_00000006693544051782218050000015358968092540479369_);fill:#0C3A61;}
	.st97{clip-path:url(#SVGID_00000006693544051782218050000015358968092540479369_);fill:#0C3A60;}
	.st98{fill:#FFFFFF;}
	.st99{fill:#002C41;}
	.st100{clip-path:url(#SVGID_00000122706346627779225890000016508017165534462093_);fill:#190F8C;}
	.st101{clip-path:url(#SVGID_00000122706346627779225890000016508017165534462093_);fill:#190F8B;}
	.st102{clip-path:url(#SVGID_00000122706346627779225890000016508017165534462093_);fill:#180E8A;}
	.st103{clip-path:url(#SVGID_00000122706346627779225890000016508017165534462093_);fill:#180E88;}
	.st104{clip-path:url(#SVGID_00000122706346627779225890000016508017165534462093_);fill:#170E87;}
	.st105{clip-path:url(#SVGID_00000122706346627779225890000016508017165534462093_);fill:#170D86;}
	.st106{clip-path:url(#SVGID_00000122706346627779225890000016508017165534462093_);fill:#160D85;}
	.st107{clip-path:url(#SVGID_00000122706346627779225890000016508017165534462093_);fill:#160D83;}
	.st108{clip-path:url(#SVGID_00000122706346627779225890000016508017165534462093_);fill:#160C82;}
	.st109{clip-path:url(#SVGID_00000122706346627779225890000016508017165534462093_);fill:#150C81;}
	.st110{clip-path:url(#SVGID_00000122706346627779225890000016508017165534462093_);fill:#150C80;}
	.st111{clip-path:url(#SVGID_00000122706346627779225890000016508017165534462093_);fill:#140B7F;}
	.st112{clip-path:url(#SVGID_00000122706346627779225890000016508017165534462093_);fill:#140B7E;}
	.st113{clip-path:url(#SVGID_00000122706346627779225890000016508017165534462093_);fill:#130B7C;}
	.st114{clip-path:url(#SVGID_00000122706346627779225890000016508017165534462093_);fill:#130A7B;}
	.st115{clip-path:url(#SVGID_00000122706346627779225890000016508017165534462093_);fill:#130A7A;}
	.st116{clip-path:url(#SVGID_00000122706346627779225890000016508017165534462093_);fill:#120A79;}
	.st117{clip-path:url(#SVGID_00000122706346627779225890000016508017165534462093_);fill:#120978;}
	.st118{clip-path:url(#SVGID_00000122706346627779225890000016508017165534462093_);fill:#110977;}
	.st119{clip-path:url(#SVGID_00000122706346627779225890000016508017165534462093_);fill:#110976;}
	.st120{clip-path:url(#SVGID_00000122706346627779225890000016508017165534462093_);fill:#110875;}
	.st121{clip-path:url(#SVGID_00000122706346627779225890000016508017165534462093_);fill:#100874;}
	.st122{clip-path:url(#SVGID_00000122706346627779225890000016508017165534462093_);fill:#100872;}
	.st123{clip-path:url(#SVGID_00000122706346627779225890000016508017165534462093_);fill:#100771;}
	.st124{clip-path:url(#SVGID_00000122706346627779225890000016508017165534462093_);fill:#0F0770;}
	.st125{clip-path:url(#SVGID_00000122706346627779225890000016508017165534462093_);fill:#0F076F;}
	.st126{clip-path:url(#SVGID_00000122706346627779225890000016508017165534462093_);fill:#0E076E;}
	.st127{clip-path:url(#SVGID_00000122706346627779225890000016508017165534462093_);fill:#0E066D;}
	.st128{clip-path:url(#SVGID_00000122706346627779225890000016508017165534462093_);fill:#0E066C;}
	.st129{clip-path:url(#SVGID_00000122706346627779225890000016508017165534462093_);fill:#0D066B;}
	.st130{clip-path:url(#SVGID_00000122706346627779225890000016508017165534462093_);fill:#0D056A;}
	.st131{clip-path:url(#SVGID_00000122706346627779225890000016508017165534462093_);fill:#0C0569;}
	.st132{clip-path:url(#SVGID_00000122706346627779225890000016508017165534462093_);fill:#0C0568;}
	.st133{clip-path:url(#SVGID_00000122706346627779225890000016508017165534462093_);fill:#0C0467;}
	.st134{clip-path:url(#SVGID_00000122706346627779225890000016508017165534462093_);fill:#0B0466;}
	.st135{clip-path:url(#SVGID_00000122706346627779225890000016508017165534462093_);fill:#0B0465;}
	.st136{clip-path:url(#SVGID_00000122706346627779225890000016508017165534462093_);fill:#0B0464;}
	.st137{clip-path:url(#SVGID_00000122706346627779225890000016508017165534462093_);fill:#0B0364;}
	.st138{clip-path:url(#SVGID_00000122706346627779225890000016508017165534462093_);fill:#0A0363;}
	.st139{clip-path:url(#SVGID_00000122706346627779225890000016508017165534462093_);fill:#0A0362;}
	.st140{fill:url(#SVGID_00000165953118725921317840000010199076548002060986_);}
	.st141{fill:url(#SVGID_00000101078356433800682470000011630454575364078518_);}
	.st142{fill:url(#SVGID_00000014609432708904019810000013645858826435435709_);}
	.st143{fill:url(#SVGID_00000129918346105245902870000004863065347472570544_);}
	.st144{fill:url(#SVGID_00000132056142157904359400000013153447172715449003_);}
	.st145{fill:none;stroke:#666666;stroke-width:6;stroke-linecap:round;stroke-miterlimit:10;}
	.st146{fill:#09005D;}
	.st147{fill:url(#SVGID_00000051353867194926687290000015874727849283190435_);}
	.st148{fill:url(#SVGID_00000060728169430640306220000010272835796069772473_);}
	.st149{fill:#EAA0A0;}
	.st150{fill:#FCB2AF;}
	.st151{fill:#C99797;}
	.st152{fill:url(#SVGID_00000179619045178590504440000012889510227684143285_);}
	.st153{fill:url(#SVGID_00000042726229016692093320000017291837848714101131_);}
	.st154{fill:url(#SVGID_00000121989576488694213630000018413210745496788644_);}
</style>
<ellipse class="st0" cx="570.99" cy="690.78" rx="346.09" ry="9.09"/>
<linearGradient id="SVGID_1_" gradientUnits="userSpaceOnUse" x1="551.2579" y1="529.149" x2="538.7755" y2="-33.4535" gradientTransform="matrix(1.1851 0.0312 0.0312 1.0664 -45.1792 5.3376)">
	<stop  offset="0" style="stop-color:#29ABE2"/>
	<stop  offset="0.3203" style="stop-color:#1ACAED"/>
	<stop  offset="0.7658" style="stop-color:#07F0FA"/>
	<stop  offset="1" style="stop-color:#00FFFF"/>
</linearGradient>
<path class="st1" d="M617.46,584.96c15.11-5.59,30.55-13.87,35.6-27.84c0.82-2.28,1.34-4.79,0.51-7.15
	c-0.85-2.43-3.03-4.39-5.45-5.79c-7.93-4.58-18.06-3.78-26.73-1.43c-10.14,2.75-19.83,7.63-25.64,15.45
	c-2.29,3.08-3.96,6.8-3.24,10.57c0.84,4.38,4.75,7.97,9,10.4c6.74,3.86,15.74,5.49,22.18,1.86L617.46,584.96z"/>
<g>
	
		<linearGradient id="SVGID_00000005962095252608943420000017005479672978278787_" gradientUnits="userSpaceOnUse" x1="618.257" y1="655.6059" x2="604.4866" y2="34.9558">
		<stop  offset="0" style="stop-color:#BDD0FB"/>
		<stop  offset="1" style="stop-color:#9FA3FB"/>
	</linearGradient>
	<path style="opacity:0.5;fill:url(#SVGID_00000005962095252608943420000017005479672978278787_);" d="M769.8,463.64
		c32.98,3.77,61.18-16.65,92.58-24.32c9.26-2.27,19.37-3.39,28.75-0.52c9.38,2.88,17.66,10.63,17.78,19.31
		c0.08,5.34-2.79,10.19-5.96,14.55c-31.39,43.22-94.33,58.59-135.2,94.82c17.7,1.04,35.42-2.84,50.07-10.94
		c-2.93,18.23-21.31,30.32-39.03,39.28c-25.91,13.1-53.52,23.72-82.22,31.63c-10.02,2.76-20.83,5.2-31.21,2.46
		c-10.37-2.72-19.51-12.59-16.56-21.56c2.76-8.37,13.6-11.57,21.39-16.71c7.79-5.15,11.41-18.14,2.02-21.57
		c-4.77-1.75-9.88,0.42-14.22,2.51c-41.52,20-85,36.98-129.9,50.72c-7.02,2.15-14.45,4.25-21.94,3.05
		c-15.56-2.47-25.17-18.97-22.78-32.61c2.4-13.64,13.51-24.4,25.6-32.65c12.09-8.26,25.71-14.93,36.26-24.71
		c2.03-1.9,4.04-4.09,4.19-6.77c0.24-4.38-4.78-8.09-9.72-8.7c-4.93-0.6-9.68,1.04-14.21,2.57c-39.91,13.59-82.03,22.58-125.05,26.7
		c-10.11,0.97-20.76,1.6-30.37-2.02c-19.02-7.18-26.85-29.18-21.89-46.39c4.96-17.22,19.31-30.52,33.77-42.43
		c17.57-14.49,36.05-28.1,55.37-40.75c23.11-15.15,49.25-31.38,54.51-56.9c0.5-2.4,0.74-5.07-0.74-7.23
		c-1.88-2.75-5.84-3.69-9.37-4.07c-23.05-2.45-44.32,7.56-65.37,14.94c-26.66,9.35-55.24,14.81-84.32,16.11
		c-9.89,0.43-20.69,0.15-28.82-5.33c-12.09-8.13-12.73-24.78-5.39-35.81c7.34-11.03,20.37-17.79,32.91-24.11
		c49.25-24.86,98.49-49.72,147.75-74.58c-17.38-12.79-42.43-7.34-62.61-0.63c-20.18,6.71-44.05,13.71-62.99,2.88
		c23.54-16.43,47.07-32.85,70.62-49.28c2.91-2.04,5.95-4.21,7.3-7.3c3.21-7.32-5.18-15.94-14.14-17.32
		c-8.96-1.38-17.56,2.17-25.3,5.88c-7.74,3.71-15.81,7.8-24.82,7.59c-24.62-0.6-29.42-24.3-18.62-38.62
		c9.13-12.1,23.93-21.1,36.68-29.96c35.78-24.89,77.5-43.18,122.09-53.33c13.17-3,31.19-3.33,37.13,8.02
		c6.15,11.77-7.11,22.71-17.04,31.37c-7.23,6.31-13.31,13.65-17.99,21.7c-3.43,5.91-4.9,15.1,2.14,18.14
		c2.92,1.25,6.26,0.81,9.35,0.25c12.44-2.25,24.29-5.76,35.81-10.05c24.75-9.19,47.92-21.93,71.81-33.31
		c12.55-5.97,25.29-11.57,38.57-16.08c15.62-5.31,33.08-9.08,49.6-4.49c16.53,4.59,30.74,20.29,26.55,34.78
		c-2.86,9.91-12.86,16.32-21.88,22.46c-4.47,3.05-8.85,6.19-13.1,9.47c-16.7,12.76-31.77,27.18-44.86,42.95
		c-5.29,6.38-9.86,16.24-2.82,21.78c4.26,3.36,10.58,2.93,15.94,1.91c15.84-3.02,30.14-9.06,43.72-16.48
		c20.32-11.09,39.07-25.23,59.11-36.84c15.43-8.94,37.64-15.89,51.85-4.13c9.19,7.62,10.44,20.46,6.29,30.48
		c-4.13,10.03-12.57,17.92-20.7,25.64c-33.64,31.96-65.31,65.57-94.84,100.65c-8.95,10.64-17.95,24.9-10.02,36.98
		c5.65,8.6,18.26,12.05,28.98,10.63c10.72-1.41,20.02-6.67,28.98-11.8c39.13-22.43,78.27-44.87,117.39-67.29
		c4.93-2.82,10.11-5.72,16.07-6.14c11.97-0.85,22.96,9.19,25.42,19.8c2.47,10.62-1.6,21.28-6.98,30.61
		C887.49,381.08,805.89,406.3,769.8,463.64z"/>
	
		<linearGradient id="SVGID_00000114075765410064233430000008820836060850039975_" gradientUnits="userSpaceOnUse" x1="688.478" y1="588.9924" x2="675.6609" y2="11.3069" gradientTransform="matrix(1.1851 0.0312 0.0312 1.0664 -45.1792 5.3376)">
		<stop  offset="0" style="stop-color:#BDD0FB"/>
		<stop  offset="1" style="stop-color:#9FA3FB"/>
	</linearGradient>
	<path style="opacity:0.15;fill:url(#SVGID_00000114075765410064233430000008820836060850039975_);" d="M765.58,109.78
		c-7.34,3.16-12.47,9.12-17.35,14.89c-4.93,5.85-9.87,11.69-14.8,17.54c-3.07,3.63-6.25,7.52-6.65,12.15s3.21,10.07,8.46,10.36
		c2.55,0.14,4.89-0.9,7.1-1.92c15.21-7.03,30.56-14.15,43.5-24.06c4.54-3.48,8.97-7.64,9.89-13.01
		C798.13,111.81,776.78,104.97,765.58,109.78z"/>
	
		<linearGradient id="SVGID_00000050659796016485444200000017491485399320351626_" gradientUnits="userSpaceOnUse" x1="401.518" y1="595.3561" x2="388.7016" y2="17.7014" gradientTransform="matrix(1.1851 0.0312 0.0312 1.0664 -45.1792 5.3376)">
		<stop  offset="0" style="stop-color:#BDD0FB"/>
		<stop  offset="1" style="stop-color:#9FA3FB"/>
	</linearGradient>
	<path style="opacity:0.15;fill:url(#SVGID_00000050659796016485444200000017491485399320351626_);" d="M426.11,561.15
		c-5.47,4.4-6.91,12.11-4.09,18.51c2.83,6.4,9.48,11.32,16.86,13.26c9.58,2.51,20.29-0.01,26.76-6.29c1.66-1.61,3.08-3.49,3.63-5.65
		c0.74-2.92-0.16-6.05-1.4-8.93C460.86,555.87,440.73,549.37,426.11,561.15z"/>
	
		<linearGradient id="SVGID_00000139979100421749637460000016540613900893092257_" gradientUnits="userSpaceOnUse" x1="274.2076" y1="598.2018" x2="261.3904" y2="20.5114" gradientTransform="matrix(1.1851 0.0312 0.0312 1.0664 -45.1792 5.3376)">
		<stop  offset="0" style="stop-color:#BDD0FB"/>
		<stop  offset="1" style="stop-color:#9FA3FB"/>
	</linearGradient>
	<path style="opacity:0.15;fill:url(#SVGID_00000139979100421749637460000016540613900893092257_);" d="M229.73,473.18
		c-2.24,3.66-4.35,7.49-4.93,11.69s0.58,8.89,4.08,11.97c2.24,1.98,5.21,3.14,8.19,3.93c14.85,3.97,30.25-0.11,44.57-4.18
		c9.61-2.73,19.29-5.48,27.95-9.94c16.01-8.23,27.6-21.78,36.44-36.25c3.24-5.3,6.23-11.13,5.49-17.31
		c-0.98-8.16-8.63-15.17-17.38-18.09c-8.75-2.92-18.32-2.34-27.1-0.39c-15.4,3.42-29.83,7.92-41.23,17.5
		C251.51,444.14,239.2,457.7,229.73,473.18z"/>
</g>
<g>
	
		<linearGradient id="SVGID_00000066506538084772374510000015911038944637837191_" gradientUnits="userSpaceOnUse" x1="488.2289" y1="675.1484" x2="481.9744" y2="393.2495">
		<stop  offset="0.3035" style="stop-color:#FC8B85"/>
		<stop  offset="0.7238" style="stop-color:#E76E6B"/>
		<stop  offset="1" style="stop-color:#DD605E"/>
	</linearGradient>
	<path style="fill:url(#SVGID_00000066506538084772374510000015911038944637837191_);" d="M549.02,658.27l-125.65,7.76
		c-3.21,0-5.84-2.62-5.84-5.82V410.78c0-3.2,2.63-5.82,5.84-5.82l123.71,7.76c3.21,0,5.84,2.62,5.84,5.82l1.95,233.9
		C554.86,655.65,552.23,658.27,549.02,658.27z"/>
	
		<linearGradient id="SVGID_00000037670437834448781670000002479118213361965705_" gradientUnits="userSpaceOnUse" x1="371.1008" y1="663.6277" x2="388.5994" y2="403.7212">
		<stop  offset="0.3035" style="stop-color:#FC8B85"/>
		<stop  offset="0.7238" style="stop-color:#E76E6B"/>
		<stop  offset="1" style="stop-color:#DD605E"/>
	</linearGradient>
	<path style="fill:url(#SVGID_00000037670437834448781670000002479118213361965705_);" d="M412.65,410.78v249.43
		c0,3.2-2.63,5.82-5.84,5.82l-27.71-3.68l-14.97-1.99l-1.95-0.26l-7.79-1.04l-6.02-0.8c-3.21,0-5.84-2.62-5.84-5.82l3.9-235.84
		c0-3.2,2.63-5.82,5.84-5.82l54.55-5.82C410.02,404.96,412.65,407.58,412.65,410.78z"/>
	<g>
		<g>
			<path class="st8" d="M446.74,685.44c0,6.05-2.2,11.24-5.32,13.44c-0.95,0.68-1.99,1.06-3.07,1.11h-0.55
				c-4.64-0.27-8.35-6.68-8.35-14.55c0-8.04,3.87-14.56,8.65-14.56c1.18,0,2.3,0.39,3.33,1.12
				C444.55,674.2,446.74,679.39,446.74,685.44z"/>
			<path class="st8" d="M438.35,699.99c-0.09,0.01-0.17,0.01-0.25,0.01c-0.1,0-0.2,0-0.3-0.01H438.35z"/>
			<path class="st8" d="M435.8,699.99l-7.27-0.03c-0.14,0.01-0.27,0.03-0.41,0.03c-0.15,0-0.29-0.03-0.44-0.03h-0.15v-0.02
				c-4.5-0.51-8.06-6.81-8.06-14.51c0-8.04,3.87-14.56,8.65-14.56h7.98c-4.78,0-8.65,6.52-8.65,14.56
				C427.45,693.31,431.16,699.73,435.8,699.99z"/>
		</g>
	</g>
	<g>
		<g>
			<path class="st8" d="M550.97,674.77c0,5.25-1.9,9.74-4.61,11.64c-0.82,0.59-1.72,0.92-2.66,0.96h-0.48
				c-4.02-0.23-7.24-5.79-7.24-12.61c0-6.97,3.36-12.62,7.49-12.62c1.02,0,1.99,0.34,2.88,0.97
				C549.06,665.02,550.97,669.52,550.97,674.77z"/>
			<path class="st8" d="M543.69,687.38c-0.07,0.01-0.14,0.01-0.22,0.01c-0.09,0-0.17,0-0.26-0.01H543.69z"/>
			<path class="st8" d="M541.48,687.38l-6.3-0.02c-0.12,0.01-0.24,0.03-0.36,0.03c-0.13,0-0.25-0.02-0.38-0.03h-0.13v-0.01
				c-3.9-0.45-6.98-5.9-6.98-12.57c0-6.97,3.36-12.62,7.49-12.62h6.92c-4.14,0-7.49,5.65-7.49,12.62
				C534.25,681.59,537.46,687.15,541.48,687.38z"/>
		</g>
	</g>
	<g>
		<g>
			<path class="st9" d="M377.56,672.1c-0.54,6.03-3.19,11.01-6.5,12.91c-1.01,0.59-2.08,0.88-3.17,0.83l-0.55-0.05
				c-4.6-0.68-7.72-7.4-7.01-15.24c0.24-2.7,0.91-5.18,1.87-7.28l14.97,1.99C377.63,667.33,377.79,669.66,377.56,672.1z"/>
			<path class="st9" d="M367.9,685.84c-0.09,0-0.17-0.01-0.25-0.01c-0.1-0.01-0.2-0.02-0.3-0.04L367.9,685.84z"/>
			<path class="st9" d="M365.37,685.62l-7.25-0.67c-0.14-0.01-0.27,0.01-0.41-0.01c-0.15-0.01-0.29-0.05-0.44-0.07l-0.15-0.02v-0.01
				c-4.43-0.91-7.41-7.5-6.72-15.17c0.26-2.88,1-5.52,2.07-7.7l7.79,1.04c-0.98,2.12-1.67,4.63-1.91,7.37
				C357.64,678.22,360.77,684.94,365.37,685.62z"/>
		</g>
	</g>
	<path class="st10" d="M552.9,425.53c-52.74-2.06-112.65-13-117.01-5.15c-4.36,7.86-2.3,195.21-2.3,195.21v27.81
		c0,0-0.07,11.95,7.88,11.95c7.96,0,113.37-5.25,113.37-5.25"/>
	<g>
		<path class="st11" d="M487.44,404.44c-2.02,0-3.91-1.27-4.61-3.28c-2.73-7.93-14.03-10.61-22.86-10.49
			c-10.73,0.14-18.56,4.02-19.66,7.53c-0.8,2.56-3.54,3.98-6.1,3.18c-2.57-0.8-3.99-3.53-3.19-6.08
			c3.05-9.67,16.67-14.16,28.83-14.33c12.64-0.17,27.79,4.22,32.2,17.05c0.87,2.53-0.48,5.3-3.03,6.16
			C488.49,404.35,487.96,404.44,487.44,404.44z"/>
	</g>
</g>
<linearGradient id="SVGID_00000016041692990759717220000009237868694773261222_" gradientUnits="userSpaceOnUse" x1="766.2318" y1="648.3321" x2="793.9299" y2="648.3321">
	<stop  offset="0" style="stop-color:#FCB2AF"/>
	<stop  offset="0.1383" style="stop-color:#F9AFAC"/>
	<stop  offset="0.856" style="stop-color:#EAA0A0"/>
</linearGradient>
<path style="fill:url(#SVGID_00000016041692990759717220000009237868694773261222_);" d="M766.23,634.97
	c9.74-4.85,23.38-3.88,23.38-3.88l4.32,34.56h-20.4L766.23,634.97z"/>
<linearGradient id="SVGID_00000021114494161180124350000003238721827517982083_" gradientUnits="userSpaceOnUse" x1="516.8984" y1="517.5833" x2="544.542" y2="517.5833" gradientTransform="matrix(0.9227 0.3856 -0.3856 0.9227 289.2946 -38.3298)">
	<stop  offset="0" style="stop-color:#FCB2AF"/>
	<stop  offset="0.1383" style="stop-color:#F9AFAC"/>
	<stop  offset="0.856" style="stop-color:#EAA0A0"/>
</linearGradient>
<path style="fill:url(#SVGID_00000021114494161180124350000003238721827517982083_);" d="M571.82,626.22
	c10.87-0.74,23.07,5.4,23.07,5.4l-9.39,33.55l-18.82-7.84L571.82,626.22z"/>
<linearGradient id="SVGID_00000093153865476937582000000013136030516895559848_" gradientUnits="userSpaceOnUse" x1="565.5762" y1="483.696" x2="793.9299" y2="483.696">
	<stop  offset="0" style="stop-color:#190F8C"/>
	<stop  offset="0.5958" style="stop-color:#0F0770"/>
	<stop  offset="1" style="stop-color:#0A0362"/>
</linearGradient>
<path style="fill:url(#SVGID_00000093153865476937582000000013136030516895559848_);" d="M728.25,333.61
	c-7.09-12.45-35.58-9.26-61.93-8.31c0,0-27.21-5.47-35.55,3.7c-4.42,4.85-6.4,15.45-7.09,27.56
	c-16.71,60.66-63.61,265.74-57.57,273.14c6.93,8.5,30.55,8.26,33.17,7.08c2.62-1.18,59.25-217.02,64.61-223.09
	c4.69-5.3,19.45-5.34,28.58-2.36c8.21,17.68,63.82,230.56,66.47,231.76c2.72,1.23,27.24,1.48,34.43-7.39
	S735.34,346.07,728.25,333.61z"/>
<path class="st0" d="M728.3,337.02h-62.45c-19.26,0-35.01-15.75-35.01-35.01V186.66c0-19.26,15.75-35.01,35.01-35.01h62.45
	c19.26,0,35.01,15.75,35.01,35.01v115.35C763.31,321.27,747.55,337.02,728.3,337.02z"/>
<linearGradient id="SVGID_00000085241662539515044480000007115056065141746873_" gradientUnits="userSpaceOnUse" x1="615.302" y1="531.9911" x2="602.8194" y2="-30.6165" gradientTransform="matrix(1.1851 0.0312 0.0312 1.0664 -45.1792 5.3376)">
	<stop  offset="0" style="stop-color:#BDD0FB"/>
	<stop  offset="1" style="stop-color:#9FA3FB"/>
</linearGradient>
<path style="opacity:0.15;fill:url(#SVGID_00000085241662539515044480000007115056065141746873_);" d="M657.17,7.51
	c-3.72,2.21-6.42,5.5-8.91,8.81c-7.11,9.45-13.09,19.61-17.83,30.27c-1.42,3.19-2.62,7.1-0.24,9.99c2.95,3.58,8.95,2.86,13.5,1.59
	c23.02-6.4,44.59-16.4,63.48-29.43c3.12-2.15,6.48-5.3,5.2-8.79c-0.51-1.39-1.7-2.52-2.92-3.53C697.67,6.68,670.89-0.63,657.17,7.51
	z"/>
<linearGradient id="SVGID_00000065052352074726236140000007089633139157001889_" gradientUnits="userSpaceOnUse" x1="685.6862" y1="366.2002" x2="683.3331" y2="166.971">
	<stop  offset="0.3035" style="stop-color:#FC8B85"/>
	<stop  offset="0.7238" style="stop-color:#E76E6B"/>
	<stop  offset="1" style="stop-color:#DD605E"/>
</linearGradient>
<path style="fill:url(#SVGID_00000065052352074726236140000007089633139157001889_);" d="M734.8,321.38
	c-3.45,9.19-7.12,18.34-11.99,26.87c-2.22,3.89-4.77,7.74-8.45,10.31c-3.62,2.53-8.04,3.64-12.37,4.51
	c-15.16,3.08-30.75,4.02-46.17,2.8c-7.52-0.6-15.66-2.04-20.69-7.65c-2.82-3.16-4.3-7.27-5.57-11.31
	c-5.09-16.03-8.16-32.57-10.3-49.26c-1.47-11.46-2.5-23-3.46-34.52c-0.19-2.2-0.37-4.4-0.55-6.6c-0.32-3.95-0.63-7.9-0.94-11.85
	c-0.34,0.31-0.7,0.6-1.06,0.89c-1.12-21.58,4.69-40.96,16.84-56.07c5.59-6.94,12.38-12.86,20.2-17.58c0.66-0.4,1.25-0.88,1.74-1.44
	c9.41-1.48,18.61-1.89,25.46-1.89c14.27-1.71,28.83-3.01,42.93-0.23c10.19,2.02,20.46,6.59,26.24,15.18
	c3.47,5.16,5.04,11.35,6.14,17.46C760.07,241.43,749.23,282.91,734.8,321.38z"/>
<linearGradient id="SVGID_00000140010199116938603610000011888993425333323911_" gradientUnits="userSpaceOnUse" x1="576.0544" y1="257.02" x2="574.7598" y2="147.4119">
	<stop  offset="0.3035" style="stop-color:#FC8B85"/>
	<stop  offset="0.7238" style="stop-color:#E76E6B"/>
	<stop  offset="1" style="stop-color:#DD605E"/>
</linearGradient>
<path style="fill:url(#SVGID_00000140010199116938603610000011888993425333323911_);" d="M652.04,170.49
	c-0.5,0.55-1.08,1.04-1.74,1.44c-7.82,4.72-14.61,10.64-20.2,17.58c-12.15,15.11-17.96,34.48-16.84,56.07
	c-0.75,0.61-1.53,1.19-2.32,1.75c-3.94,2.77-8.22,4.92-12.7,6.54c-12.55,4.55-26.75,5-40.18,3.44c-3.61-0.42-7.27-0.98-10.59-2.46
	c-1.41-0.63-2.76-1.46-3.95-2.45c-3.29-1.65-6.64-3.58-9-6.26l1.14,1.84c-19.59-26.7-29.62-59.09-37.4-91.23
	c-0.39-1.6-0.75-3.39,0.09-4.8c0.61-1.05,1.74-1.66,2.82-2.21c8.26-4.3,16.52-8.59,24.77-12.89c1.39,10.06,6.02,19.4,11.41,28.03
	c5.38,8.63,11.57,16.74,16.58,25.59c4.72,8.34,8.35,17.3,10.77,26.57c3.95-0.69,7.81-2.11,11.38-3.94
	c6.37-3.28,11.97-7.82,17.6-12.24c6.43-5.04,12.95-9.93,19.59-14.67c1.12-0.82,2.26-1.62,3.39-2.43c3.36-2.37,6.82-4.73,10.7-6.04
	C634.61,174.09,643.41,171.84,652.04,170.49z"/>
<g>
	<g>
		<g>
			<defs>
				<path id="SVGID_00000098187222260828327240000017893255393694775472_" d="M692.23,244.24h-17.85c0.02-0.12,0.04-0.24,0.04-0.37
					l-1.8-8.95c0-1.1-0.89-1.99-1.99-1.99h-13.66c-1.1,0-1.99,0.89-1.99,1.99l-2.16,8.95c0,0.13,0.01,0.25,0.04,0.37h-17.49
					c-1.6,0-2.89,1.29-2.89,2.88v29.76c0,1.59,1.29,2.88,2.89,2.88h56.89c1.6,0,2.89-1.29,2.89-2.88v-29.76
					C695.13,245.53,693.83,244.24,692.23,244.24z"/>
			</defs>
			<clipPath id="SVGID_00000026134344407652817310000017950431644909209777_">
				<use xlink:href="#SVGID_00000098187222260828327240000017893255393694775472_"  style="overflow:visible;"/>
			</clipPath>
			<polygon style="clip-path:url(#SVGID_00000026134344407652817310000017950431644909209777_);fill:#190F8C;" points="
				668.03,279.76 695.13,279.45 695.13,279.76 			"/>
			<polygon style="clip-path:url(#SVGID_00000026134344407652817310000017950431644909209777_);fill:#190F8C;" points="
				632.46,279.08 695.13,278.36 695.13,279.45 668.03,279.76 632.46,279.76 			"/>
			<polygon style="clip-path:url(#SVGID_00000026134344407652817310000017950431644909209777_);fill:#190F8B;" points="
				632.46,277.99 695.13,277.27 695.13,278.36 632.46,279.08 			"/>
			<polygon style="clip-path:url(#SVGID_00000026134344407652817310000017950431644909209777_);fill:#180E8A;" points="
				632.46,276.9 695.13,276.18 695.13,277.27 632.46,277.99 			"/>
			<polygon style="clip-path:url(#SVGID_00000026134344407652817310000017950431644909209777_);fill:#180E88;" points="
				632.46,275.81 695.13,275.09 695.13,276.18 632.46,276.9 			"/>
			<polygon style="clip-path:url(#SVGID_00000026134344407652817310000017950431644909209777_);fill:#170E87;" points="
				632.46,274.72 695.13,274 695.13,275.09 632.46,275.81 			"/>
			<polygon style="clip-path:url(#SVGID_00000026134344407652817310000017950431644909209777_);fill:#170D86;" points="
				632.46,273.63 695.13,272.91 695.13,274 632.46,274.72 			"/>
			<polygon style="clip-path:url(#SVGID_00000026134344407652817310000017950431644909209777_);fill:#160D85;" points="
				632.46,272.53 695.13,271.81 695.13,272.91 632.46,273.63 			"/>
			<polygon style="clip-path:url(#SVGID_00000026134344407652817310000017950431644909209777_);fill:#160D83;" points="
				632.46,271.44 695.13,270.72 695.13,271.81 632.46,272.53 			"/>
			<polygon style="clip-path:url(#SVGID_00000026134344407652817310000017950431644909209777_);fill:#160C82;" points="
				632.46,270.35 695.13,269.63 695.13,270.72 632.46,271.44 			"/>
			<polygon style="clip-path:url(#SVGID_00000026134344407652817310000017950431644909209777_);fill:#150C81;" points="
				632.46,269.26 695.13,268.54 695.13,269.63 632.46,270.35 			"/>
			<polygon style="clip-path:url(#SVGID_00000026134344407652817310000017950431644909209777_);fill:#150C80;" points="
				632.46,268.17 695.13,267.45 695.13,268.54 632.46,269.26 			"/>
			<polygon style="clip-path:url(#SVGID_00000026134344407652817310000017950431644909209777_);fill:#140B7F;" points="
				632.46,267.08 695.13,266.36 695.13,267.45 632.46,268.17 			"/>
			<polygon style="clip-path:url(#SVGID_00000026134344407652817310000017950431644909209777_);fill:#140B7E;" points="
				632.46,265.99 695.13,265.27 695.13,266.36 632.46,267.08 			"/>
			<polygon style="clip-path:url(#SVGID_00000026134344407652817310000017950431644909209777_);fill:#130B7C;" points="
				632.46,264.9 695.13,264.18 695.13,265.27 632.46,265.99 			"/>
			<polygon style="clip-path:url(#SVGID_00000026134344407652817310000017950431644909209777_);fill:#130A7B;" points="
				632.46,263.81 695.13,263.09 695.13,264.18 632.46,264.9 			"/>
			<polygon style="clip-path:url(#SVGID_00000026134344407652817310000017950431644909209777_);fill:#130A7A;" points="
				632.46,262.72 695.13,262 695.13,263.09 632.46,263.81 			"/>
			<polygon style="clip-path:url(#SVGID_00000026134344407652817310000017950431644909209777_);fill:#120A79;" points="
				632.46,261.63 695.13,260.91 695.13,262 632.46,262.72 			"/>
			<polygon style="clip-path:url(#SVGID_00000026134344407652817310000017950431644909209777_);fill:#120978;" points="
				632.46,260.53 695.13,259.81 695.13,260.91 632.46,261.63 			"/>
			<polygon style="clip-path:url(#SVGID_00000026134344407652817310000017950431644909209777_);fill:#110977;" points="
				632.46,259.44 695.13,258.72 695.13,259.81 632.46,260.53 			"/>
			<polygon style="clip-path:url(#SVGID_00000026134344407652817310000017950431644909209777_);fill:#110976;" points="
				632.46,258.35 695.13,257.63 695.13,258.72 632.46,259.44 			"/>
			<polygon style="clip-path:url(#SVGID_00000026134344407652817310000017950431644909209777_);fill:#110875;" points="
				632.46,257.26 695.13,256.54 695.13,257.63 632.46,258.35 			"/>
			<polygon style="clip-path:url(#SVGID_00000026134344407652817310000017950431644909209777_);fill:#100874;" points="
				632.46,256.17 695.13,255.45 695.13,256.54 632.46,257.26 			"/>
			<polygon style="clip-path:url(#SVGID_00000026134344407652817310000017950431644909209777_);fill:#100872;" points="
				632.46,255.08 695.13,254.36 695.13,255.45 632.46,256.17 			"/>
			<polygon style="clip-path:url(#SVGID_00000026134344407652817310000017950431644909209777_);fill:#100771;" points="
				632.46,253.99 695.13,253.27 695.13,254.36 632.46,255.08 			"/>
			<polygon style="clip-path:url(#SVGID_00000026134344407652817310000017950431644909209777_);fill:#0F0770;" points="
				632.46,252.9 695.13,252.18 695.13,253.27 632.46,253.99 			"/>
			<polygon style="clip-path:url(#SVGID_00000026134344407652817310000017950431644909209777_);fill:#0F076F;" points="
				632.46,251.81 695.13,251.09 695.13,252.18 632.46,252.9 			"/>
			<polygon style="clip-path:url(#SVGID_00000026134344407652817310000017950431644909209777_);fill:#0E076E;" points="
				632.46,250.72 695.13,250 695.13,251.09 632.46,251.81 			"/>
			<polygon style="clip-path:url(#SVGID_00000026134344407652817310000017950431644909209777_);fill:#0E066D;" points="
				632.46,249.63 695.13,248.9 695.13,250 632.46,250.72 			"/>
			<polygon style="clip-path:url(#SVGID_00000026134344407652817310000017950431644909209777_);fill:#0E066C;" points="
				632.46,248.53 695.13,247.81 695.13,248.9 632.46,249.63 			"/>
			<polygon style="clip-path:url(#SVGID_00000026134344407652817310000017950431644909209777_);fill:#0D066B;" points="
				632.46,247.44 695.13,246.72 695.13,247.81 632.46,248.53 			"/>
			<polygon style="clip-path:url(#SVGID_00000026134344407652817310000017950431644909209777_);fill:#0D056A;" points="
				632.46,246.35 695.13,245.63 695.13,246.72 632.46,247.44 			"/>
			<polygon style="clip-path:url(#SVGID_00000026134344407652817310000017950431644909209777_);fill:#0D056A;" points="
				632.46,245.26 695.13,244.54 695.13,245.63 632.46,246.35 			"/>
			<polygon style="clip-path:url(#SVGID_00000026134344407652817310000017950431644909209777_);fill:#0C0569;" points="
				632.46,244.17 695.13,243.45 695.13,244.54 632.46,245.26 			"/>
			<polygon style="clip-path:url(#SVGID_00000026134344407652817310000017950431644909209777_);fill:#0C0568;" points="
				632.46,243.08 695.13,242.36 695.13,243.45 632.46,244.17 			"/>
			<polygon style="clip-path:url(#SVGID_00000026134344407652817310000017950431644909209777_);fill:#0C0467;" points="
				632.46,241.99 695.13,241.27 695.13,242.36 632.46,243.08 			"/>
			<polygon style="clip-path:url(#SVGID_00000026134344407652817310000017950431644909209777_);fill:#0B0466;" points="
				632.46,240.9 695.13,240.18 695.13,241.27 632.46,241.99 			"/>
			<polygon style="clip-path:url(#SVGID_00000026134344407652817310000017950431644909209777_);fill:#0B0465;" points="
				632.46,239.81 695.13,239.09 695.13,240.18 632.46,240.9 			"/>
			<polygon style="clip-path:url(#SVGID_00000026134344407652817310000017950431644909209777_);fill:#0B0464;" points="
				632.46,238.72 695.13,238 695.13,239.09 632.46,239.81 			"/>
			<polygon style="clip-path:url(#SVGID_00000026134344407652817310000017950431644909209777_);fill:#0B0364;" points="
				632.46,237.63 695.13,236.9 695.13,238 632.46,238.72 			"/>
			<polygon style="clip-path:url(#SVGID_00000026134344407652817310000017950431644909209777_);fill:#0A0363;" points="
				632.46,236.53 695.13,235.81 695.13,236.9 632.46,237.63 			"/>
			<polygon style="clip-path:url(#SVGID_00000026134344407652817310000017950431644909209777_);fill:#0A0362;" points="
				632.46,235.44 695.13,234.72 695.13,235.81 632.46,236.53 			"/>
			<polygon style="clip-path:url(#SVGID_00000026134344407652817310000017950431644909209777_);fill:#0A0362;" points="
				632.46,234.35 695.13,233.63 695.13,234.72 632.46,235.44 			"/>
			<polygon style="clip-path:url(#SVGID_00000026134344407652817310000017950431644909209777_);fill:#0A0362;" points="
				695.13,233.63 632.46,234.35 632.46,232.94 695.13,232.94 			"/>
		</g>
	</g>
	<g>
		<g>
			<g>
				<defs>
					<ellipse id="SVGID_00000111880198960133345370000010478345266216504711_" cx="663.7" cy="262.45" rx="16.57" ry="16.51"/>
				</defs>
				<clipPath id="SVGID_00000072982095781011300380000006508030359630510233_">
					<use xlink:href="#SVGID_00000111880198960133345370000010478345266216504711_"  style="overflow:visible;"/>
				</clipPath>
				<polygon style="clip-path:url(#SVGID_00000072982095781011300380000006508030359630510233_);fill:#0E468A;" points="
					647.13,278.96 680.27,278.58 680.27,278.96 647.13,278.96 				"/>
				<polygon style="clip-path:url(#SVGID_00000072982095781011300380000006508030359630510233_);fill:#0E468A;" points="
					647.13,278.2 680.27,277.81 680.27,278.58 647.13,278.96 				"/>
				<polygon style="clip-path:url(#SVGID_00000072982095781011300380000006508030359630510233_);fill:#0E4689;" points="
					647.13,277.43 680.27,277.05 680.27,277.81 647.13,278.2 				"/>
				<polygon style="clip-path:url(#SVGID_00000072982095781011300380000006508030359630510233_);fill:#0E4588;" points="
					647.13,276.67 680.27,276.29 680.27,277.05 647.13,277.43 				"/>
				<polygon style="clip-path:url(#SVGID_00000072982095781011300380000006508030359630510233_);fill:#0E4586;" points="
					647.13,275.91 680.27,275.53 680.27,276.29 647.13,276.67 				"/>
				<polygon style="clip-path:url(#SVGID_00000072982095781011300380000006508030359630510233_);fill:#0E4585;" points="
					647.13,275.15 680.27,274.76 680.27,275.53 647.13,275.91 				"/>
				<polygon style="clip-path:url(#SVGID_00000072982095781011300380000006508030359630510233_);fill:#0E4484;" points="
					647.13,274.38 680.27,274 680.27,274.76 647.13,275.15 				"/>
				<polygon style="clip-path:url(#SVGID_00000072982095781011300380000006508030359630510233_);fill:#0E4483;" points="
					647.13,273.62 680.27,273.24 680.27,274 647.13,274.38 				"/>
				<polygon style="clip-path:url(#SVGID_00000072982095781011300380000006508030359630510233_);fill:#0E4481;" points="
					647.13,272.86 680.27,272.48 680.27,273.24 647.13,273.62 				"/>
				<polygon style="clip-path:url(#SVGID_00000072982095781011300380000006508030359630510233_);fill:#0E4380;" points="
					647.13,272.09 680.27,271.71 680.27,272.48 647.13,272.86 				"/>
				<polygon style="clip-path:url(#SVGID_00000072982095781011300380000006508030359630510233_);fill:#0D437F;" points="
					647.13,271.33 680.27,270.95 680.27,271.71 647.13,272.09 				"/>
				<polygon style="clip-path:url(#SVGID_00000072982095781011300380000006508030359630510233_);fill:#0D437E;" points="
					647.13,270.57 680.27,270.19 680.27,270.95 647.13,271.33 				"/>
				<polygon style="clip-path:url(#SVGID_00000072982095781011300380000006508030359630510233_);fill:#0D427D;" points="
					647.13,269.81 680.27,269.43 680.27,270.19 647.13,270.57 				"/>
				<polygon style="clip-path:url(#SVGID_00000072982095781011300380000006508030359630510233_);fill:#0D427C;" points="
					647.13,269.04 680.27,268.66 680.27,269.43 647.13,269.81 				"/>
				<polygon style="clip-path:url(#SVGID_00000072982095781011300380000006508030359630510233_);fill:#0D427A;" points="
					647.13,268.28 680.27,267.9 680.27,268.66 647.13,269.04 				"/>
				<polygon style="clip-path:url(#SVGID_00000072982095781011300380000006508030359630510233_);fill:#0D4179;" points="
					647.13,267.52 680.27,267.14 680.27,267.9 647.13,268.28 				"/>
				<polygon style="clip-path:url(#SVGID_00000072982095781011300380000006508030359630510233_);fill:#0D4178;" points="
					647.13,266.76 680.27,266.38 680.27,267.14 647.13,267.52 				"/>
				<polygon style="clip-path:url(#SVGID_00000072982095781011300380000006508030359630510233_);fill:#0D4177;" points="
					647.13,265.99 680.27,265.61 680.27,266.38 647.13,266.76 				"/>
				<polygon style="clip-path:url(#SVGID_00000072982095781011300380000006508030359630510233_);fill:#0D4076;" points="
					647.13,265.23 680.27,264.85 680.27,265.61 647.13,265.99 				"/>
				<polygon style="clip-path:url(#SVGID_00000072982095781011300380000006508030359630510233_);fill:#0D4075;" points="
					647.13,264.47 680.27,264.09 680.27,264.85 647.13,265.23 				"/>
				<polygon style="clip-path:url(#SVGID_00000072982095781011300380000006508030359630510233_);fill:#0D4074;" points="
					647.13,263.71 680.27,263.32 680.27,264.09 647.13,264.47 				"/>
				<polygon style="clip-path:url(#SVGID_00000072982095781011300380000006508030359630510233_);fill:#0D3F73;" points="
					647.13,262.94 680.27,262.56 680.27,263.32 647.13,263.71 				"/>
				<polygon style="clip-path:url(#SVGID_00000072982095781011300380000006508030359630510233_);fill:#0D3F72;" points="
					647.13,262.18 680.27,261.8 680.27,262.56 647.13,262.94 				"/>
				<polygon style="clip-path:url(#SVGID_00000072982095781011300380000006508030359630510233_);fill:#0D3F70;" points="
					647.13,261.42 680.27,261.04 680.27,261.8 647.13,262.18 				"/>
				<polygon style="clip-path:url(#SVGID_00000072982095781011300380000006508030359630510233_);fill:#0D3E6F;" points="
					647.13,260.66 680.27,260.27 680.27,261.04 647.13,261.42 				"/>
				<polygon style="clip-path:url(#SVGID_00000072982095781011300380000006508030359630510233_);fill:#0D3E6E;" points="
					647.13,259.89 680.27,259.51 680.27,260.27 647.13,260.66 				"/>
				<polygon style="clip-path:url(#SVGID_00000072982095781011300380000006508030359630510233_);fill:#0D3E6D;" points="
					647.13,259.13 680.27,258.75 680.27,259.51 647.13,259.89 				"/>
				<polygon style="clip-path:url(#SVGID_00000072982095781011300380000006508030359630510233_);fill:#0D3E6C;" points="
					647.13,258.37 680.27,257.99 680.27,258.75 647.13,259.13 				"/>
				<polygon style="clip-path:url(#SVGID_00000072982095781011300380000006508030359630510233_);fill:#0D3D6B;" points="
					647.13,257.6 680.27,257.22 680.27,257.99 647.13,258.37 				"/>
				<polygon style="clip-path:url(#SVGID_00000072982095781011300380000006508030359630510233_);fill:#0C3D6A;" points="
					647.13,256.84 680.27,256.46 680.27,257.22 647.13,257.6 				"/>
				<polygon style="clip-path:url(#SVGID_00000072982095781011300380000006508030359630510233_);fill:#0C3D69;" points="
					647.13,256.08 680.27,255.7 680.27,256.46 647.13,256.84 				"/>
				<polygon style="clip-path:url(#SVGID_00000072982095781011300380000006508030359630510233_);fill:#0C3C68;" points="
					647.13,255.32 680.27,254.94 680.27,255.7 647.13,256.08 				"/>
				<polygon style="clip-path:url(#SVGID_00000072982095781011300380000006508030359630510233_);fill:#0C3C68;" points="
					647.13,254.55 680.27,254.17 680.27,254.94 647.13,255.32 				"/>
				<polygon style="clip-path:url(#SVGID_00000072982095781011300380000006508030359630510233_);fill:#0C3C67;" points="
					647.13,253.79 680.27,253.41 680.27,254.17 647.13,254.55 				"/>
				<polygon style="clip-path:url(#SVGID_00000072982095781011300380000006508030359630510233_);fill:#0C3C66;" points="
					647.13,253.03 680.27,252.65 680.27,253.41 647.13,253.79 				"/>
				<polygon style="clip-path:url(#SVGID_00000072982095781011300380000006508030359630510233_);fill:#0C3B65;" points="
					647.13,252.27 680.27,251.89 680.27,252.65 647.13,253.03 				"/>
				<polygon style="clip-path:url(#SVGID_00000072982095781011300380000006508030359630510233_);fill:#0C3B64;" points="
					647.13,251.5 680.27,251.12 680.27,251.89 647.13,252.27 				"/>
				<polygon style="clip-path:url(#SVGID_00000072982095781011300380000006508030359630510233_);fill:#0C3B63;" points="
					647.13,250.74 680.27,250.36 680.27,251.12 647.13,251.5 				"/>
				<polygon style="clip-path:url(#SVGID_00000072982095781011300380000006508030359630510233_);fill:#0C3B62;" points="
					647.13,249.98 680.27,249.6 680.27,250.36 647.13,250.74 				"/>
				<polygon style="clip-path:url(#SVGID_00000072982095781011300380000006508030359630510233_);fill:#0C3A62;" points="
					647.13,249.22 680.27,248.83 680.27,249.6 647.13,249.98 				"/>
				<polygon style="clip-path:url(#SVGID_00000072982095781011300380000006508030359630510233_);fill:#0C3A61;" points="
					647.13,248.45 680.27,248.07 680.27,248.83 647.13,249.22 				"/>
				<polygon style="clip-path:url(#SVGID_00000072982095781011300380000006508030359630510233_);fill:#0C3A60;" points="
					647.13,247.69 680.27,247.31 680.27,248.07 647.13,248.45 				"/>
				<polygon style="clip-path:url(#SVGID_00000072982095781011300380000006508030359630510233_);fill:#0C3A60;" points="
					647.13,246.93 680.27,246.55 680.27,247.31 647.13,247.69 				"/>
				<polygon style="clip-path:url(#SVGID_00000072982095781011300380000006508030359630510233_);fill:#0C3A60;" points="
					680.27,246.55 647.13,246.93 647.13,245.95 680.27,245.95 				"/>
			</g>
			<path class="st98" d="M663.7,279.14c-9.23,0-16.75-7.49-16.75-16.69c0-9.2,7.51-16.69,16.75-16.69c9.23,0,16.75,7.49,16.75,16.69
				C680.45,271.66,672.94,279.14,663.7,279.14z M663.7,246.12c-9.04,0-16.39,7.32-16.39,16.33s7.35,16.33,16.39,16.33
				c9.04,0,16.39-7.32,16.39-16.33S672.74,246.12,663.7,246.12z"/>
		</g>
		<g>
			<ellipse class="st99" cx="663.7" cy="262.45" rx="14.23" ry="14.18"/>
		</g>
		<g>
			<path class="st98" d="M667.3,252.86c-0.2,0.62-0.03,1.31,0.3,1.87s0.81,1.02,1.26,1.48c1.05,1.06,2.08,2.25,2.45,3.7
				c0.09,0.34,0.14,0.69,0.28,1.01c0.15,0.32,0.42,0.6,0.77,0.65c0.41,0.05,0.74-0.25,0.95-0.45c0.8-0.76,0.9-1.86,0.92-2.16
				c0.08-1.24-0.45-2.14-1.08-3.23c-0.47-0.8-1.29-2.19-2.91-3.14C669.66,252.24,667.86,251.15,667.3,252.86z"/>
		</g>
	</g>
	<g>
		<path class="st98" d="M670.28,244.24h-13.22c-0.83,0-1.5-0.67-1.5-1.49l1.62-6.71c0-0.82,0.67-1.49,1.5-1.49h10.25
			c0.83,0,1.5,0.67,1.5,1.49l1.35,6.71C671.77,243.57,671.1,244.24,670.28,244.24z"/>
	</g>
	<g>
		<g>
			<defs>
				<path id="SVGID_00000032626716989832559260000013499260558619565704_" d="M688.36,243.52h-6.64c-0.75,0-1.36-0.61-1.36-1.36
					v-0.87c0-0.75,0.61-1.36,1.36-1.36h6.64c0.75,0,1.36,0.61,1.36,1.36v0.87C689.72,242.91,689.11,243.52,688.36,243.52z"/>
			</defs>
			<clipPath id="SVGID_00000088134525800412709000000010309683448676322734_">
				<use xlink:href="#SVGID_00000032626716989832559260000013499260558619565704_"  style="overflow:visible;"/>
			</clipPath>
			<polygon style="clip-path:url(#SVGID_00000088134525800412709000000010309683448676322734_);fill:#190F8C;" points="
				686.06,243.52 689.72,243.48 689.72,243.52 			"/>
			<polygon style="clip-path:url(#SVGID_00000088134525800412709000000010309683448676322734_);fill:#190F8C;" points="
				680.36,243.5 689.72,243.4 689.72,243.48 686.06,243.52 680.36,243.52 			"/>
			<polygon style="clip-path:url(#SVGID_00000088134525800412709000000010309683448676322734_);fill:#190F8B;" points="
				680.36,243.42 689.72,243.31 689.72,243.4 680.36,243.5 			"/>
			<polygon style="clip-path:url(#SVGID_00000088134525800412709000000010309683448676322734_);fill:#180E8A;" points="
				680.36,243.34 689.72,243.23 689.72,243.31 680.36,243.42 			"/>
			<polygon style="clip-path:url(#SVGID_00000088134525800412709000000010309683448676322734_);fill:#180E88;" points="
				680.36,243.25 689.72,243.14 689.72,243.23 680.36,243.34 			"/>
			<polygon style="clip-path:url(#SVGID_00000088134525800412709000000010309683448676322734_);fill:#170E87;" points="
				680.36,243.17 689.72,243.06 689.72,243.14 680.36,243.25 			"/>
			<polygon style="clip-path:url(#SVGID_00000088134525800412709000000010309683448676322734_);fill:#170D86;" points="
				680.36,243.08 689.72,242.97 689.72,243.06 680.36,243.17 			"/>
			<polygon style="clip-path:url(#SVGID_00000088134525800412709000000010309683448676322734_);fill:#160D85;" points="680.36,243 
				689.72,242.89 689.72,242.97 680.36,243.08 			"/>
			<polygon style="clip-path:url(#SVGID_00000088134525800412709000000010309683448676322734_);fill:#160D83;" points="
				680.36,242.91 689.72,242.81 689.72,242.89 680.36,243 			"/>
			<polygon style="clip-path:url(#SVGID_00000088134525800412709000000010309683448676322734_);fill:#160C82;" points="
				680.36,242.83 689.72,242.72 689.72,242.81 680.36,242.91 			"/>
			<polygon style="clip-path:url(#SVGID_00000088134525800412709000000010309683448676322734_);fill:#150C81;" points="
				680.36,242.74 689.72,242.64 689.72,242.72 680.36,242.83 			"/>
			<polygon style="clip-path:url(#SVGID_00000088134525800412709000000010309683448676322734_);fill:#150C80;" points="
				680.36,242.66 689.72,242.55 689.72,242.64 680.36,242.74 			"/>
			<polygon style="clip-path:url(#SVGID_00000088134525800412709000000010309683448676322734_);fill:#140B7F;" points="
				680.36,242.58 689.72,242.47 689.72,242.55 680.36,242.66 			"/>
			<polygon style="clip-path:url(#SVGID_00000088134525800412709000000010309683448676322734_);fill:#140B7E;" points="
				680.36,242.49 689.72,242.38 689.72,242.47 680.36,242.58 			"/>
			<polygon style="clip-path:url(#SVGID_00000088134525800412709000000010309683448676322734_);fill:#130B7C;" points="
				680.36,242.41 689.72,242.3 689.72,242.38 680.36,242.49 			"/>
			<polygon style="clip-path:url(#SVGID_00000088134525800412709000000010309683448676322734_);fill:#130A7B;" points="
				680.36,242.32 689.72,242.21 689.72,242.3 680.36,242.41 			"/>
			<polygon style="clip-path:url(#SVGID_00000088134525800412709000000010309683448676322734_);fill:#130A7A;" points="
				680.36,242.24 689.72,242.13 689.72,242.21 680.36,242.32 			"/>
			<polygon style="clip-path:url(#SVGID_00000088134525800412709000000010309683448676322734_);fill:#120A79;" points="
				680.36,242.15 689.72,242.05 689.72,242.13 680.36,242.24 			"/>
			<polygon style="clip-path:url(#SVGID_00000088134525800412709000000010309683448676322734_);fill:#120978;" points="
				680.36,242.07 689.72,241.96 689.72,242.05 680.36,242.15 			"/>
			<polygon style="clip-path:url(#SVGID_00000088134525800412709000000010309683448676322734_);fill:#110977;" points="
				680.36,241.98 689.72,241.88 689.72,241.96 680.36,242.07 			"/>
			<polygon style="clip-path:url(#SVGID_00000088134525800412709000000010309683448676322734_);fill:#110976;" points="
				680.36,241.9 689.72,241.79 689.72,241.88 680.36,241.98 			"/>
			<polygon style="clip-path:url(#SVGID_00000088134525800412709000000010309683448676322734_);fill:#110875;" points="
				680.36,241.82 689.72,241.71 689.72,241.79 680.36,241.9 			"/>
			<polygon style="clip-path:url(#SVGID_00000088134525800412709000000010309683448676322734_);fill:#100874;" points="
				680.36,241.73 689.72,241.62 689.72,241.71 680.36,241.82 			"/>
			<polygon style="clip-path:url(#SVGID_00000088134525800412709000000010309683448676322734_);fill:#100872;" points="
				680.36,241.65 689.72,241.54 689.72,241.62 680.36,241.73 			"/>
			<polygon style="clip-path:url(#SVGID_00000088134525800412709000000010309683448676322734_);fill:#100771;" points="
				680.36,241.56 689.72,241.45 689.72,241.54 680.36,241.65 			"/>
			<polygon style="clip-path:url(#SVGID_00000088134525800412709000000010309683448676322734_);fill:#0F0770;" points="
				680.36,241.48 689.72,241.37 689.72,241.45 680.36,241.56 			"/>
			<polygon style="clip-path:url(#SVGID_00000088134525800412709000000010309683448676322734_);fill:#0F076F;" points="
				680.36,241.39 689.72,241.29 689.72,241.37 680.36,241.48 			"/>
			<polygon style="clip-path:url(#SVGID_00000088134525800412709000000010309683448676322734_);fill:#0E076E;" points="
				680.36,241.31 689.72,241.2 689.72,241.29 680.36,241.39 			"/>
			<polygon style="clip-path:url(#SVGID_00000088134525800412709000000010309683448676322734_);fill:#0E066D;" points="
				680.36,241.22 689.72,241.12 689.72,241.2 680.36,241.31 			"/>
			<polygon style="clip-path:url(#SVGID_00000088134525800412709000000010309683448676322734_);fill:#0E066C;" points="
				680.36,241.14 689.72,241.03 689.72,241.12 680.36,241.22 			"/>
			<polygon style="clip-path:url(#SVGID_00000088134525800412709000000010309683448676322734_);fill:#0D066B;" points="
				680.36,241.06 689.72,240.95 689.72,241.03 680.36,241.14 			"/>
			<polygon style="clip-path:url(#SVGID_00000088134525800412709000000010309683448676322734_);fill:#0D056A;" points="
				680.36,240.97 689.72,240.86 689.72,240.95 680.36,241.06 			"/>
			<polygon style="clip-path:url(#SVGID_00000088134525800412709000000010309683448676322734_);fill:#0D056A;" points="
				680.36,240.89 689.72,240.78 689.72,240.86 680.36,240.97 			"/>
			<polygon style="clip-path:url(#SVGID_00000088134525800412709000000010309683448676322734_);fill:#0C0569;" points="
				680.36,240.8 689.72,240.69 689.72,240.78 680.36,240.89 			"/>
			<polygon style="clip-path:url(#SVGID_00000088134525800412709000000010309683448676322734_);fill:#0C0568;" points="
				680.36,240.72 689.72,240.61 689.72,240.69 680.36,240.8 			"/>
			<polygon style="clip-path:url(#SVGID_00000088134525800412709000000010309683448676322734_);fill:#0C0467;" points="
				680.36,240.63 689.72,240.53 689.72,240.61 680.36,240.72 			"/>
			<polygon style="clip-path:url(#SVGID_00000088134525800412709000000010309683448676322734_);fill:#0B0466;" points="
				680.36,240.55 689.72,240.44 689.72,240.53 680.36,240.63 			"/>
			<polygon style="clip-path:url(#SVGID_00000088134525800412709000000010309683448676322734_);fill:#0B0465;" points="
				680.36,240.46 689.72,240.36 689.72,240.44 680.36,240.55 			"/>
			<polygon style="clip-path:url(#SVGID_00000088134525800412709000000010309683448676322734_);fill:#0B0464;" points="
				680.36,240.38 689.72,240.27 689.72,240.36 680.36,240.46 			"/>
			<polygon style="clip-path:url(#SVGID_00000088134525800412709000000010309683448676322734_);fill:#0B0364;" points="
				680.36,240.3 689.72,240.19 689.72,240.27 680.36,240.38 			"/>
			<polygon style="clip-path:url(#SVGID_00000088134525800412709000000010309683448676322734_);fill:#0A0363;" points="
				680.36,240.21 689.72,240.1 689.72,240.19 680.36,240.3 			"/>
			<polygon style="clip-path:url(#SVGID_00000088134525800412709000000010309683448676322734_);fill:#0A0362;" points="
				680.36,240.13 689.72,240.02 689.72,240.1 680.36,240.21 			"/>
			<polygon style="clip-path:url(#SVGID_00000088134525800412709000000010309683448676322734_);fill:#0A0362;" points="
				680.36,240.04 689.72,239.93 689.72,240.02 680.36,240.13 			"/>
			<polygon style="clip-path:url(#SVGID_00000088134525800412709000000010309683448676322734_);fill:#0A0362;" points="
				689.72,239.93 680.36,240.04 680.36,239.93 689.72,239.93 			"/>
		</g>
	</g>
</g>
<linearGradient id="SVGID_00000174574084531702904270000005892418669589540775_" gradientUnits="userSpaceOnUse" x1="780.898" y1="386.5003" x2="780.0789" y2="175.9763">
	<stop  offset="0.3035" style="stop-color:#FC8B85"/>
	<stop  offset="0.7238" style="stop-color:#E76E6B"/>
	<stop  offset="1" style="stop-color:#DD605E"/>
</linearGradient>
<path style="fill:url(#SVGID_00000174574084531702904270000005892418669589540775_);" d="M746.27,180.85
	c32.93,37.07,66.54,75.23,84.22,121.49c1.87,4.9,3.58,10.01,3.32,15.24c-0.27,5.57-2.75,10.78-5.47,15.64
	c-12.53,22.36-31.09,40.65-49.4,58.62c-8.18-5.72-15.06-13.26-20.01-21.91c-0.79-1.38-1.56-2.87-1.58-4.46
	c-0.06-3.69,3.59-6.18,6.67-8.23c10.26-6.84,18.56-16.57,23.69-27.76c1.45-3.16,2.67-6.53,2.61-10c-0.08-5.29-3.06-10.07-6.16-14.36
	c-13.22-18.3-30.61-33.58-50.48-44.37c-4.76-23.28-13.79-63.45,3.33-79.98L746.27,180.85z"/>
<linearGradient id="SVGID_00000131349843534401738850000014107512620375042742_" gradientUnits="userSpaceOnUse" x1="459.7531" y1="103.3135" x2="536.6484" y2="103.3135">
	<stop  offset="0" style="stop-color:#FCB2AF"/>
	<stop  offset="0.1383" style="stop-color:#F9AFAC"/>
	<stop  offset="0.856" style="stop-color:#EAA0A0"/>
</linearGradient>
<path style="fill:url(#SVGID_00000131349843534401738850000014107512620375042742_);" d="M494.66,140.1
	c4.56-0.71,8.73-3.6,10.99-7.61c3.16,0.74,6.4,1.48,9.61,1.01c3.21-0.47,6.41-2.44,7.36-5.53c0.42-1.38,0.37-2.87,0.77-4.26
	c1.09-3.83,5.14-5.87,8.02-8.63c2.96-2.83,4.84-6.74,5.21-10.81c0.18-2.02-0.35-4.55-2.31-5.12c-2.13-0.62-3.93,1.51-5.53,3.05
	c-2.67,2.56-6.47,3.92-10.17,3.63c-1.43-0.11-2.98-0.56-3.72-1.78c-0.48-0.8-0.52-1.79-0.5-2.72c0.14-10.98,4.48-22.54-0.04-32.55
	c-0.36-0.79-0.81-1.61-1.59-2.01c-1.32-0.69-3.01,0.19-3.76,1.47c-0.74,1.28-0.79,2.84-0.86,4.32c-0.26,6.05-1.06,12.09-2.39,18
	c-0.41,1.8-1.4,4.02-3.25,3.9c-1.23-0.08-2.09-1.21-2.77-2.23c-3.55-5.32-7.1-10.64-10.65-15.96c-1.28-1.91-2.61-3.89-4.57-5.1
	c-1.96-1.22-4.72-1.46-6.46,0.06c-1.84,1.61-1.83,4.56-0.8,6.78s2.83,3.96,4.3,5.91c2.95,3.91,4.57,8.64,6.14,13.28
	c0.68,2,1.15,4.67-0.62,5.83c-1.48,0.97-3.43,0.11-4.97-0.76c-6.53-3.68-13.07-7.35-19.6-11.03c-2.41,0.83-3.27,4.01-2.43,6.41
	c0.84,2.4,2.84,4.17,4.77,5.83c3.33,2.87,6.66,5.73,9.99,8.6c2.14,1.84,4.49,4.68,3.1,7.13c-0.93,1.63-3.09,2.07-4.97,1.99
	c-1.88-0.09-3.81-0.52-5.61,0.04c-1.8,0.56-3.29,2.68-2.34,4.3c0.52,0.88,1.55,1.29,2.53,1.6c5.51,1.75,11.75,2.18,16.11,5.96
	c2.39,2.07,4.38,5.2,7.54,5.41L494.66,140.1z"/>
<linearGradient id="SVGID_00000152961147046995711450000004745819595506140084_" gradientUnits="userSpaceOnUse" x1="730.6231" y1="394.7532" x2="773.5321" y2="394.7532">
	<stop  offset="0" style="stop-color:#FCB2AF"/>
	<stop  offset="0.1383" style="stop-color:#F9AFAC"/>
	<stop  offset="0.856" style="stop-color:#EAA0A0"/>
</linearGradient>
<path style="fill:url(#SVGID_00000152961147046995711450000004745819595506140084_);" d="M743.84,373.44
	c-4.97,0.51-10.74,1.98-12.56,6.61c-0.64,1.61-0.67,3.39-0.65,5.12c0.12,11.01,2.36,22.51,9.41,30.99c2.27,2.73,5.91,5.24,9.14,3.77
	c1.55-0.71,2.57-2.18,3.53-3.59c5.75-8.51,11.5-17.03,17.25-25.54c1.26-1.87,2.54-3.78,3.17-5.95c1.29-4.47-0.59-9.52-4.13-12.56
	C760.53,365.02,753.07,372.49,743.84,373.44z"/>
<g>
	
		<linearGradient id="SVGID_00000085957798410049535700000014692658004826694277_" gradientUnits="userSpaceOnUse" x1="723.1783" y1="144.6314" x2="736.2623" y2="335.8881">
		<stop  offset="0" style="stop-color:#666666"/>
		<stop  offset="0.0185" style="stop-color:#6F6F6F"/>
		<stop  offset="0.1473" style="stop-color:#ADABAB"/>
		<stop  offset="0.2417" style="stop-color:#D3D0D0"/>
		<stop  offset="0.2911" style="stop-color:#E2DEDE"/>
		<stop  offset="0.7387" style="stop-color:#E2DEDE"/>
		<stop  offset="1" style="stop-color:#666666"/>
	</linearGradient>
	<path style="fill:url(#SVGID_00000085957798410049535700000014692658004826694277_);" d="M745.59,303.72
		c-1.49,0-2.99-0.42-4.32-1.31c-4.38-2.91-7.44-6.95-9.61-10.14c-14.45-21.2-18.52-46.99-22.12-69.74
		c-1.02-6.46-2.08-13.15-2.17-20.09c-0.19-13.91,3.72-28.1,11-39.96c2.24-3.66,7.04-4.81,10.71-2.57c3.67,2.24,4.83,7.02,2.58,10.67
		c-5.77,9.4-8.86,20.64-8.71,31.66c0.08,5.83,1,11.68,1.98,17.88c3.34,21.14,7.12,45.1,19.61,63.43c1.47,2.15,3.25,4.54,5.38,5.95
		c3.58,2.38,4.54,7.2,2.15,10.77C750.58,302.51,748.11,303.72,745.59,303.72z"/>
</g>
<g>
	
		<linearGradient id="SVGID_00000151517749924319703420000011177797356525331642_" gradientUnits="userSpaceOnUse" x1="623.1298" y1="334.9578" x2="627.3627" y2="123.6951">
		<stop  offset="0" style="stop-color:#666666"/>
		<stop  offset="0.0185" style="stop-color:#6F6F6F"/>
		<stop  offset="0.1473" style="stop-color:#ADABAB"/>
		<stop  offset="0.2417" style="stop-color:#D3D0D0"/>
		<stop  offset="0.2911" style="stop-color:#E2DEDE"/>
		<stop  offset="0.7387" style="stop-color:#E2DEDE"/>
		<stop  offset="1" style="stop-color:#666666"/>
	</linearGradient>
	<path style="fill:url(#SVGID_00000151517749924319703420000011177797356525331642_);" d="M652.04,170.49
		c-0.5,0.55-1.08,1.04-1.74,1.44c-7.82,4.72-14.61,10.64-20.2,17.58c-12.15,15.11-17.96,34.48-16.84,56.07
		c0.01,0.24,0.03,0.49,0.04,0.74c0.24,4.23,0.6,10.19,2.51,16.82c0.95,11.52,1.99,23.06,3.46,34.52c-4.06-3.81-7.63-8.1-10.59-12.74
		c-7.34-11.5-9.58-22.82-10.44-31.05c-0.26-2.53-0.4-4.77-0.51-6.64c-1.34-22.87,3.99-43.81,15.52-61.04
		c1.47-2.19,3.03-4.32,4.69-6.39c6.73-8.38,14.89-15.49,24.27-21.15c3.68-2.22,8.47-1.05,10.7,2.61
		C654.75,164.27,654.28,168.02,652.04,170.49z"/>
</g>
<path class="st145" d="M639.27,240.21c-2.55-14.73-4.07-29.7-3.2-44.62c0.43-7.32,1.53-14.88,5.56-21.01
	c4.1-6.23,10.86-10.34,17.99-12.59c7.13-2.25,14.66-2.8,22.13-3.21c5.5-0.3,11.08-0.52,16.46,0.65c5.38,1.18,10.62,3.92,13.71,8.47
	c2.33,3.43,3.27,7.59,3.98,11.66c0.6,3.44,1.07,6.92,0.92,10.4c-0.32,7.35-3.39,14.28-6.7,20.85
	c-5.11,10.14-10.92,19.93-17.37,29.27"/>
<path class="st146" d="M771.93,658.4c0.95,0.29,1.74,0.94,2.57,1.48c4.88,3.19,11.92,2.59,16.19-1.37c1.09-1.01,2.18-2.28,3.66-2.34
	c2-0.08,3.29,2.03,4.04,3.88c1.7,4.19,2.99,8.68,5.91,12.14c1.46,1.74,3.29,3.16,4.6,5.01c1.77,2.5,2.48,5.72,1.92,8.73
	c-4.9,1.75-9.19,2.77-12.44,3.39c-13.25,2.53-16.43-0.23-24.7,0.96c-0.79,0.11-2.7,0.18-4.65-0.67c-1.45-0.63-2.68-2.01-2.64-3.58
	c0.15-6.27,0.47-12.56,0.44-18.83C766.8,663.11,766.62,658.4,771.93,658.4z"/>
<linearGradient id="SVGID_00000081632151980578336070000013824838505742052757_" gradientUnits="userSpaceOnUse" x1="680.4366" y1="181.2854" x2="677.4335" y2="116.2159">
	<stop  offset="0" style="stop-color:#FCB2AF"/>
	<stop  offset="0.1383" style="stop-color:#F9AFAC"/>
	<stop  offset="0.856" style="stop-color:#EAA0A0"/>
</linearGradient>
<path style="fill:url(#SVGID_00000081632151980578336070000013824838505742052757_);" d="M653.6,174.57
	c-0.22,1.26-0.43,2.62,0.11,3.78c0.62,1.34,2.06,2.07,3.42,2.65c14.23,5.98,31.42,4.38,44.31-4.1c2.04-1.34,4.08-2.98,4.87-5.29
	c0.6-1.76,0.4-3.68,0.19-5.53c-1.39-12.09-2.78-24.19-4.17-36.28c-3.98-1.42-8.49-1.33-12.41,0.26c-3.02,1.22-5.63,3.26-8.54,4.73
	c-4.36,2.21-9.2,3.06-14.03,3.46c-5.63,0.47-7.27-0.48-8.4,5.42C656.98,153.92,655.38,164.27,653.6,174.57z"/>
<path class="st146" d="M582.3,657.59c-5.19,0.45-10.53-1.71-13.92-5.64c-0.77-0.9-1.47-1.9-2.49-2.51c-2.25-1.35-5.2-0.12-8.23,1.34
	c-5.32,2.55-8.02,4.86-10.59,6.52c-5.3,3.41-11.73,4.58-24.57,6.92c-4.33,0.79-9.11,1.48-9.87,4.12c-0.61,2.12,0.57,4.35,0.43,6.56
	c-0.07,1.05-0.44,2.09-0.28,3.13c0.25,1.62,1.7,2.77,3.1,3.65c12.66,7.88,28.82,6.32,43.64,4.49c7.68-0.95,15.36-1.89,23.04-2.84
	c1.06-0.13,8.52-0.08,9.31-0.79c2.11-1.91,0.98-6.87,0.97-9.71C592.84,666.46,596.7,656.33,582.3,657.59z"/>
<g>
	
		<linearGradient id="SVGID_00000117645464143487080390000014756100198663302788_" gradientUnits="userSpaceOnUse" x1="633.7601" y1="59.5621" x2="733.1082" y2="59.5621">
		<stop  offset="0" style="stop-color:#190F8C"/>
		<stop  offset="0.5958" style="stop-color:#0F0770"/>
		<stop  offset="1" style="stop-color:#0A0362"/>
	</linearGradient>
	<path style="fill:url(#SVGID_00000117645464143487080390000014756100198663302788_);" d="M715.09,106.26
		c11.8-7.84,11.56-18,11.12-23.9c-0.07-0.94-0.14-1.9,0.08-2.82c0.28-1.15,1.01-2.14,1.66-3.13c4.37-6.62,6.08-14.94,4.66-22.74
		c-1.42-7.8-5.94-15-12.37-19.67c1.34-4.34-2.11-8.66-5.71-11.44c-8.17-6.33-18.53-9.8-28.87-9.67c-8.18,0.1-17.18,3.11-20.83,10.4
		c-10.81-2.1-22.68,3.43-27.99,13.05c-5.31,9.62-3.64,22.57,3.93,30.54c0.44,0.46,0.91,0.94,1.06,1.55
		c0.15,0.61-0.05,1.24-0.22,1.84c-3.1,10.54-0.36,22.58,6.98,30.76c1.28-1.64,3.24-2.74,5.31-2.97L715.09,106.26z"/>
	<path class="st149" d="M647.8,96.69c-0.85-1.26-2.1-2.26-3.53-2.47c-6.96-1.03-5.04,13.93-0.45,16.34
		C649.69,113.63,650.05,100.02,647.8,96.69z"/>
	<path class="st150" d="M718.45,99.43c-0.85-1.26-2.1-2.26-3.53-2.47c-6.96-1.03-5.04,13.93-0.45,16.34
		C720.34,116.37,720.71,102.76,718.45,99.43z"/>
	<path class="st150" d="M712.17,126.45c-1.02,4.28-2.56,8.39-4.64,12.19c-1.09,2-2.35,3.9-3.74,5.68
		c-5.7,7.35-13.71,12.64-22.45,13.97c-10.87,1.64-22.62-3.34-28.8-13.19c-0.24-0.38-0.48-0.78-0.7-1.19
		c-2.84-4.98-4.32-10.78-5.29-16.56c-0.11-0.67-0.22-1.35-0.32-2.03c-0.6-4-0.97-8.06-1.13-12.11c-0.3-7.9,0.22-15.84,1.58-23.6
		c0.91-5.19,2.2-10.29,3.47-15.39c1.17-4.68,1.43-11.26,3.36-15.54c2.09-4.63,8.6-7.48,12.89-8.64c5.66-1.52,11.66-1.15,17.3,0.43
		c11.25,3.15,21.64,11.83,25.11,23.86c1.72,5.98,1.68,12.37,2.52,18.57c0.37,2.81,0.94,5.6,1.43,8.4c0.15,0.95,0.3,1.88,0.44,2.82
		C714.21,111.54,713.93,119.22,712.17,126.45z"/>
	<path class="st151" d="M645.1,113.21c1.59,2.71,3.57,5.25,2.88,8.23c-0.26,1.14-0.91,2.12-1.42,3.15
		c-0.12,0.24-0.23,0.48-0.33,0.73C645.64,121.32,645.27,117.26,645.1,113.21z"/>
	<path class="st151" d="M689.89,147.1c4.09-2.63,9.32-1.67,13.92-2.78c-5.7,7.35-13.71,12.64-22.45,13.97
		c-10.87,1.64-22.62-3.34-28.8-13.19c-0.24-0.38-0.48-0.78-0.7-1.19c1.49,0.9,3.13,1.48,4.83,1.68c1.28,0.15,2.59,0.11,3.77,0.65
		c1.23,0.56,2.17,1.67,3.16,2.65c6.09,5.97,16.12,6.47,22.7,1.13C687.51,149.06,688.6,147.92,689.89,147.1z"/>
	<path class="st151" d="M712.17,126.45c-0.91-0.56-2.02-0.78-3.1-0.97c-3.79-0.68-7.58-1.35-11.38-2.02
		c-0.65-2.57,1.01-5.08,2.58-7.13c2.6-3.42,5.2-6.85,7.8-10.26c1.34-1.76,2.89-3.62,4.68-4.76c0.15,0.95,0.3,1.88,0.44,2.82
		C714.21,111.54,713.93,119.22,712.17,126.45z"/>
	
		<linearGradient id="SVGID_00000132789601200909132340000008481101672185279416_" gradientUnits="userSpaceOnUse" x1="643.71" y1="49.6827" x2="719.1364" y2="49.6827">
		<stop  offset="0" style="stop-color:#190F8C"/>
		<stop  offset="0.5958" style="stop-color:#0F0770"/>
		<stop  offset="1" style="stop-color:#0A0362"/>
	</linearGradient>
	<path style="fill:url(#SVGID_00000132789601200909132340000008481101672185279416_);" d="M667.03,61.81
		c4.71-2.02,8.52-5.82,11.1-10.23c1.85,2.32,5.75,0.58,8.48,1.76c1.31,0.57,2.21,1.76,3.15,2.83c2.71,3.14,6.11,5.68,9.89,7.4
		c-0.28,2.14,2.34,3.31,4.34,4.14c2.78,1.15,5.27,2.97,7.22,5.25c1.3,1.53,2.67,3.43,4.69,3.47c2.21-6.15,3.85-12.7,3.02-19.17
		c-0.83-6.48-4.56-12.89-10.58-15.47c3.36-1.4,5.39-5.4,4.52-8.92c-0.87-3.52-4.53-6.14-8.15-5.82c1.86,0.51,3.3,2.28,3.41,4.2
		s-1.13,3.84-2.93,4.55c-2.68,1.05-5.6-0.51-8.13-1.88s-5.78-2.55-8.13-0.89c-3.02-0.22-5.31-3.71-4.3-6.56
		c-1.12-0.18-2.23-0.36-3.35-0.54c-0.52,0.67-0.81,1.5-0.84,2.35c-3.21,0.78-6.76-2.06-6.68-5.35c-2.67,0.85-4.23,4.19-3.15,6.77
		c-2.52-0.56-5.83-0.77-7,1.52c-0.29,0.56-0.38,1.2-0.62,1.79c-0.31,0.77-0.86,1.42-1.41,2.05c-2.72,3.18-5.66,6.51-9.67,7.73
		c-1.26,0.39-2.6,0.55-3.8,1.11s-2.28,1.66-2.28,2.98c0,2.34,3.2,3.78,3.12,6.12c-0.08,2.26-2.97,3.12-5.23,3.35
		c4.31,1.66,8.99,2.36,13.6,2.05c-2.02,2.22-5.85,3.31-0.74,4.67C659.88,63.95,663.96,63.13,667.03,61.81z"/>
	
		<linearGradient id="SVGID_00000125603155721561988580000009031915798644346764_" gradientUnits="userSpaceOnUse" x1="679.8018" y1="76.362" x2="702.9134" y2="76.362">
		<stop  offset="0" style="stop-color:#190F8C"/>
		<stop  offset="0.5958" style="stop-color:#0F0770"/>
		<stop  offset="1" style="stop-color:#0A0362"/>
	</linearGradient>
	<path style="fill:url(#SVGID_00000125603155721561988580000009031915798644346764_);" d="M679.84,77.25
		c0.02,0.27,0.06,0.56,0.27,0.75c0.17,0.15,0.41,0.19,0.64,0.21c1.44,0.14,2.89-0.15,4.33-0.36c4.17-0.61,8.42-0.61,12.59,0
		c1.81,0.26,3.8,0.77,4.79,2.3c0.9-0.74,0.36-2.21-0.42-3.08c-2.13-2.39-5.38-3.44-8.54-3.97c-2.92-0.5-5.9-0.64-8.86-0.43
		c-0.95,0.07-3.34-0.08-4.09,0.54C679.7,73.9,679.77,76.29,679.84,77.25z"/>
	
		<linearGradient id="SVGID_00000110436081541510544140000003131454236111727545_" gradientUnits="userSpaceOnUse" x1="15.5279" y1="76.3619" x2="33.6618" y2="76.3619" gradientTransform="matrix(-1 0 0 1 684.4244 0)">
		<stop  offset="0" style="stop-color:#190F8C"/>
		<stop  offset="0.5958" style="stop-color:#0F0770"/>
		<stop  offset="1" style="stop-color:#0A0362"/>
	</linearGradient>
	<path style="fill:url(#SVGID_00000110436081541510544140000003131454236111727545_);" d="M668.87,77.25
		c-0.02,0.27-0.05,0.56-0.21,0.75c-0.13,0.15-0.32,0.19-0.5,0.21c-1.13,0.14-2.27-0.15-3.4-0.36c-3.27-0.61-6.61-0.61-9.88,0
		c-1.42,0.26-2.98,0.77-3.76,2.3c-0.7-0.74-0.28-2.21,0.33-3.08c1.67-2.39,4.22-3.44,6.7-3.97c2.29-0.5,4.63-0.64,6.95-0.43
		c0.75,0.07,2.62-0.08,3.21,0.54C668.97,73.9,668.92,76.29,668.87,77.25z"/>
	<path class="st98" d="M684.94,84.59c1.94-0.57,4.02-0.57,6.02-0.25c1.95,0.32,4.05,1.11,4.94,2.87c-1.5,0.35-3.07,0.07-4.61,0.03
		c-0.75-0.02-1.5,0.03-2.25,0.07c-1.31,0.08-2.63,0.15-3.94,0.23c-0.67,0.04-3.44,0.61-3.92,0.23
		C679.77,86.64,683.96,84.88,684.94,84.59z"/>
	<path class="st98" d="M661.03,83.22c-1.39-0.49-2.88-0.5-4.32-0.21c-1.4,0.28-2.9,0.96-3.55,2.48c1.08,0.3,2.2,0.06,3.31,0.03
		c0.54-0.01,1.08,0.02,1.61,0.06c0.94,0.07,1.88,0.13,2.83,0.2c0.48,0.03,2.47,0.53,2.81,0.2
		C664.74,84.99,661.73,83.47,661.03,83.22z"/>
	<path class="st98" d="M660.36,122.14c6.69,2.06,13.95,3.44,20.52,0.95c0.79-0.3,1.8-0.6,2.37,0.07c0.67,0.8,0,2.05-0.72,2.79
		c-3.16,3.22-7.6,4.78-11.92,4.57c-3.46-0.17-6.84-1.44-9.77-3.42c-1.01-0.68-3.01-1.83-3.32-3.21
		C657.04,121.79,659.07,121.75,660.36,122.14z"/>
	<path class="st151" d="M670.94,132.17c0.3,0.01,0.64,0.06,0.81,0.32c0.16,0.23,0.12,0.57-0.02,0.82s-0.36,0.42-0.58,0.59
		c-0.37,0.29-0.74,0.57-1.1,0.86c-0.34,0.26-0.72,0.53-1.12,0.47c-0.77-0.12-2.08-1.78-1.58-2.67
		C667.83,131.68,670.14,132.13,670.94,132.17z"/>
	<path class="st151" d="M656.37,121.01c0.24-0.28,0.41-0.63,0.67-0.88c0.67-0.65,1.71-0.52,2.59-0.3c0.99,0.25,1.95,0.58,2.9,0.98
		c0.81,0.34,1.61,0.73,2.47,0.83c0.86,0.09,1.82-0.18,2.32-0.95c0.25,0.22,0.23,0.63,0.26,0.99c0.03,0.35,0.21,0.78,0.54,0.75
		c0.51-0.05,0.4-1.03,0.86-1.27c0.29-0.15,0.63,0.11,0.78,0.41c0.16,0.3,0.21,0.66,0.4,0.94c0.18,0.28,0.58,0.46,0.82,0.23
		c0.35-0.34,0.06-1.23,0.52-1.32c0.32-0.06,0.48,0.39,0.67,0.67c0.28,0.42,0.82,0.53,1.3,0.54c1.4,0.01,2.73-0.62,4.1-0.96
		c2.1-0.52,4.34-0.32,6.34,0.55c0.35,0.15,0.77,0.32,1.08,0.08c0.29-0.22,0.31-0.71,0.13-1.05c-0.18-0.34-0.49-0.55-0.79-0.76
		c-1.12-0.76-2.27-1.54-3.55-1.88c-1.51-0.4-3.1-0.17-4.65-0.29c-0.81-0.06-1.65-0.22-2.43,0.05c-0.78,0.26-1.46,1.13-1.23,1.98
		c-0.47-0.57-1.04-1.04-1.68-1.37c-0.02,0.33-0.05,0.68-0.23,0.94s-0.58,0.37-0.79,0.13c-0.19-0.22-0.13-0.6-0.3-0.83
		c-0.21-0.27-0.63-0.17-0.84,0.1s-0.25,0.64-0.28,0.98c-0.54-0.36-0.16-1.63-0.78-1.73c-0.53-0.08-0.86,0.99-1.35,0.75
		c-0.15-0.07-0.22-0.25-0.32-0.39c-0.38-0.59-1.09-0.77-1.73-0.91c-1.58-0.33-3.16-0.67-4.74-1c-0.97-0.2-2.26-0.68-3.2-0.12
		c-0.76,0.45-1.06,1.5-1.24,2.36C654.77,120.26,655.14,122.48,656.37,121.01z"/>
	<path class="st149" d="M664.84,107.95c0.85,2.16,3.26,3.14,5.41,2.95c0.87-0.08,1.75-0.32,2.48-0.84c1.8-1.29,2.28-3.87,2.61-6.18
		c3.61,1.39,6.31,5.23,6.58,9.38c-1.84-0.94-3.71-1.9-5.72-2.24c-2.01-0.35-4.21-0.02-5.78,1.39c-0.38,0.34-0.79,0.77-1.29,0.73
		c-0.48-0.04-0.82-0.49-1.15-0.87c-0.53-0.6-1.19-1.08-1.94-1.23c-1.65-0.34-3.28,0.95-4.95,0.75c-0.12-0.01-0.25-0.04-0.33-0.14
		c-0.08-0.1-0.09-0.24-0.09-0.37c0-1.01,0.44-1.96,0.87-2.86c0.53-1.11,1.06-2.23,1.59-3.34c0.26-0.56,2.03-3.58,1.93-1.84
		c-0.04,0.78-0.47,1.58-0.53,2.39C664.48,106.41,664.55,107.21,664.84,107.95z"/>
</g>
</svg>
