<?xml version="1.0" encoding="utf-8"?>
<!-- Generator: Adobe Illustrator 25.4.1, SVG Export Plug-In . SVG Version: 6.00 Build 0)  -->
<svg version="1.1" id="Calque_1" xmlns="http://www.w3.org/2000/svg" xmlns:xlink="http://www.w3.org/1999/xlink" x="0px" y="0px"
	 viewBox="0 0 1175 700" style="enable-background:new 0 0 1175 700;" xml:space="preserve">
<style type="text/css">
	.st0{opacity:0.15;fill:url(#SVGID_1_);}
	.st1{opacity:0.5;fill:url(#SVGID_00000183946912658535750110000007642942333415801000_);}
	.st2{opacity:0.15;fill:url(#SVGID_00000161630759529764878260000003627194959512496260_);}
	.st3{opacity:0.15;fill:url(#SVGID_00000155851378937560850770000005718810286706310033_);}
	.st4{opacity:0.15;fill:url(#SVGID_00000021798235641773317590000005919931184662531767_);}
	.st5{opacity:0.15;fill:url(#SVGID_00000067197523592921862350000014493306972283827903_);}
	.st6{opacity:0.15;fill:url(#SVGID_00000001665441840852061060000017012592198468335551_);}
	.st7{opacity:0.15;fill:url(#SVGID_00000139291663792957399620000010763683063121067163_);}
	.st8{opacity:0.15;fill:url(#SVGID_00000168819382663495913080000012891167507526036923_);}
	.st9{fill:#F9EEE1;}
	.st10{fill:#09005D;}
	.st11{fill:#4C52FE;}
	.st12{fill:url(#SVGID_00000004505203363309779080000003509287913291723147_);}
	.st13{fill:url(#SVGID_00000116953928431481965950000010914445561194865046_);}
	.st14{fill:url(#SVGID_00000098199583632107106340000011905827620205267842_);}
	.st15{fill:url(#SVGID_00000066478463055759240740000006246716316045634178_);}
	.st16{fill:#FFFFFF;}
	.st17{fill:#F2A0B6;}
	.st18{fill:#F6BAC8;}
	.st19{fill:#DD605E;}
	.st20{fill:url(#SVGID_00000078033967431648318490000007908293756412098442_);}
	.st21{fill:#436BDD;}
	.st22{fill:#666666;}
	.st23{fill:#9FA3FB;}
	.st24{fill:#E2E9FC;}
	.st25{fill:#FCD288;}
	.st26{fill:#F2B85A;}
	.st27{fill:#BDD0FB;}
	.st28{fill:#7D97F4;}
	.st29{fill:none;stroke:#666666;stroke-width:6;stroke-linecap:round;stroke-miterlimit:10;}
	.st30{opacity:0.12;fill:#7D97F4;}
	.st31{fill:url(#SVGID_00000037669140109614452820000004944417682613991821_);}
	.st32{fill:#FC8B85;}
	.st33{fill:url(#SVGID_00000033369354894971679990000014622264596094286992_);}
	.st34{fill:url(#SVGID_00000096765132144858566130000007729157254130515902_);}
	.st35{fill:#FCB2AF;}
	.st36{fill:url(#SVGID_00000018946498845437393750000002225019377902835595_);}
	.st37{fill:url(#SVGID_00000117663117825259298010000017299082261828592047_);}
	.st38{fill:url(#SVGID_00000183943558894129351500000007642284417423472015_);}
	.st39{fill:url(#SVGID_00000120544028863232483720000002785778629260625538_);}
	.st40{fill:#C99797;}
	.st41{fill:#F2D7DE;}
	.st42{fill:#EAA0A0;}
	.st43{fill:#CC8B8B;}
	.st44{fill:url(#SVGID_00000093172754540964009490000013461576460252841901_);}
	.st45{fill:url(#SVGID_00000021799389800269332030000001613632566213779328_);}
	.st46{fill:url(#SVGID_00000155840478848632715240000008715005310350345630_);}
	.st47{fill:url(#SVGID_00000036963183103039941450000004232262445659529857_);}
	.st48{fill:url(#SVGID_00000125563329034001574230000010986129793082202525_);}
	.st49{fill:url(#SVGID_00000154428084633898016220000017120016459105102477_);}
	.st50{fill:url(#SVGID_00000113334594530469108810000000798758024729481346_);}
	.st51{fill:url(#SVGID_00000044150392539494995300000006899094314565369507_);}
	.st52{fill:url(#SVGID_00000155129013921808300780000007224056641477447577_);}
	.st53{fill:url(#SVGID_00000010293611754837634090000015553277303562971066_);}
	.st54{fill:url(#SVGID_00000143591352720975871880000012166237763764336292_);}
	.st55{fill:url(#SVGID_00000152967931584586358560000006293239152506830744_);}
	.st56{opacity:0.21;fill:url(#SVGID_00000132067122983941453580000002298792738693728445_);}
</style>
<g>
	
		<linearGradient id="SVGID_1_" gradientUnits="userSpaceOnUse" x1="783.5327" y1="541.5862" x2="770.6711" y2="-38.0996" gradientTransform="matrix(1.1851 0.0312 0.0312 1.0664 -45.1792 5.3376)">
		<stop  offset="0" style="stop-color:#29ABE2"/>
		<stop  offset="0.3203" style="stop-color:#1ACAED"/>
		<stop  offset="0.7658" style="stop-color:#07F0FA"/>
		<stop  offset="1" style="stop-color:#00FFFF"/>
	</linearGradient>
	<path class="st0" d="M892.4,122.25c-6,2.72-10.36,7.53-14.56,12.21c-19,21.23-38,42.45-57,63.68c-4.64,5.19-9.32,10.42-12.66,16.39
		c-3.14,5.61-4.59,13.43,0.84,17.89c3.41,2.81,8.42,3.21,12.85,2.74c7.39-0.78,14.21-3.49,20.86-6.27
		c23.87-9.98,47.01-21.26,69.26-33.76c5.57-3.13,11.13-6.37,15.83-10.47c8.67-7.56,14.03-17.65,19-27.62
		c1.2-2.41,2.4-4.86,2.81-7.51c1.15-7.56-4.58-15.23-11.93-19.55C927.58,124.04,903.63,117.17,892.4,122.25z"/>
	<g>
		
			<linearGradient id="SVGID_00000111878077820504738470000014634638425471259286_" gradientUnits="userSpaceOnUse" x1="631.1577" y1="615.7167" x2="611.7534" y2="45.8444">
			<stop  offset="0" style="stop-color:#BDD0FB"/>
			<stop  offset="1" style="stop-color:#9FA3FB"/>
		</linearGradient>
		<path style="opacity:0.5;fill:url(#SVGID_00000111878077820504738470000014634638425471259286_);" d="M777.59,414.74
			c32.8,3.79,60.84-16.71,92.06-24.41c9.21-2.28,19.26-3.4,28.59-0.53c9.32,2.89,17.56,10.67,17.68,19.38
			c0.08,5.36-2.77,10.23-5.92,14.6c-31.22,43.37-93.8,58.79-134.44,95.15c17.6,1.04,35.22-2.84,49.79-10.97
			c-2.91,18.29-21.19,30.42-38.81,39.41c-25.77,13.14-53.22,23.8-81.76,31.74c-9.96,2.77-20.72,5.21-31.03,2.47
			c-10.31-2.73-19.4-12.64-16.46-21.64c2.75-8.4,13.52-11.61,21.27-16.77c7.75-5.16,11.34-18.2,2.01-21.65
			c-4.75-1.75-9.82,0.43-14.14,2.52c-41.29,20.07-84.53,37.11-129.17,50.9c-6.98,2.16-14.36,4.26-21.82,3.06
			c-15.47-2.48-25.03-19.03-22.65-32.72c2.38-13.69,13.43-24.48,25.45-32.76c12.02-8.29,25.56-14.98,36.05-24.79
			c2.02-1.9,4.02-4.1,4.17-6.79c0.24-4.39-4.76-8.12-9.67-8.73c-4.9-0.6-9.63,1.04-14.13,2.58
			c-39.69,13.64-81.57,22.66-124.34,26.79c-10.05,0.97-20.64,1.61-30.2-2.02c-18.91-7.21-26.7-29.28-21.77-46.55
			c4.93-17.28,19.2-30.63,33.58-42.58c17.47-14.54,35.85-28.2,55.05-40.89c22.98-15.21,48.97-31.49,54.2-57.1
			c0.5-2.41,0.74-5.09-0.74-7.26c-1.87-2.76-5.8-3.71-9.31-4.08c-22.92-2.46-44.07,7.58-65.01,14.99
			c-26.51,9.39-54.93,14.86-83.85,16.17c-9.83,0.44-20.57,0.15-28.66-5.35c-12.02-8.16-12.66-24.87-5.36-35.93
			c7.29-11.07,20.26-17.85,32.73-24.2c48.97-24.95,97.94-49.89,146.91-74.84c-17.29-12.84-42.19-7.37-62.26-0.63
			c-20.07,6.73-43.8,13.76-62.63,2.89c23.4-16.48,46.81-32.97,70.22-49.45c2.89-2.05,5.91-4.22,7.26-7.33
			c3.2-7.35-5.15-16-14.06-17.38c-8.91-1.39-17.46,2.18-25.16,5.9c-7.7,3.73-15.72,7.83-24.68,7.61
			c-24.48-0.6-29.26-24.39-18.51-38.76c9.08-12.14,23.8-21.17,36.47-30.07c35.58-24.98,77.07-43.33,121.4-53.52
			c13.1-3.01,31.01-3.34,36.92,8.05c6.12,11.82-7.07,22.79-16.94,31.48c-7.19,6.33-13.24,13.7-17.89,21.78
			c-3.41,5.93-4.87,15.16,2.13,18.2c2.9,1.26,6.23,0.81,9.29,0.25c12.37-2.26,24.15-5.78,35.61-10.08
			c24.61-9.22,47.65-22.01,71.41-33.43c12.48-5.99,25.15-11.61,38.36-16.14c15.53-5.33,32.89-9.11,49.32-4.51
			c16.43,4.61,30.57,20.36,26.4,34.9c-2.84,9.94-12.79,16.38-21.76,22.54c-4.44,3.06-8.8,6.22-13.03,9.51
			c-16.61,12.81-31.59,27.28-44.61,43.1c-5.27,6.4-9.8,16.3-2.8,21.86c4.24,3.37,10.52,2.94,15.85,1.91
			c15.75-3.03,29.97-9.09,43.47-16.53c20.21-11.13,38.85-25.32,58.78-36.96c15.34-8.97,37.42-15.95,51.56-4.14
			c9.14,7.64,10.38,20.53,6.26,30.59c-4.11,10.06-12.5,17.98-20.58,25.73c-33.45,32.07-64.95,65.8-94.3,101
			c-8.9,10.68-17.84,24.99-9.96,37.11c5.62,8.63,18.16,12.09,28.82,10.67c10.66-1.42,19.9-6.69,28.82-11.85
			c38.91-22.51,77.83-45.02,116.73-67.53c4.9-2.83,10.05-5.74,15.98-6.17c11.9-0.85,22.84,9.22,25.28,19.87
			c2.46,10.66-1.59,21.35-6.94,30.72C894.62,331.89,813.48,357.21,777.59,414.74z"/>
		
			<linearGradient id="SVGID_00000059291117169046434610000018438332044558161289_" gradientUnits="userSpaceOnUse" x1="631.0084" y1="615.7218" x2="611.6041" y2="45.8494">
			<stop  offset="0" style="stop-color:#BDD0FB"/>
			<stop  offset="1" style="stop-color:#9FA3FB"/>
		</linearGradient>
		<path style="opacity:0.15;fill:url(#SVGID_00000059291117169046434610000018438332044558161289_);" d="M597.28,3.61
			c-3.82,2.27-6.59,5.67-9.15,9.08c-7.3,9.74-13.44,20.21-18.31,31.18c-1.45,3.28-2.69,7.32-0.25,10.29
			c3.03,3.69,9.18,2.95,13.85,1.64c23.63-6.6,45.77-16.9,65.17-30.33c3.2-2.22,6.66-5.46,5.33-9.06c-0.53-1.43-1.75-2.6-3-3.64
			C638.86,2.76,611.37-4.78,597.28,3.61z"/>
		
			<linearGradient id="SVGID_00000061463985956123938750000014237303710849051567_" gradientUnits="userSpaceOnUse" x1="786.9183" y1="610.413" x2="767.5141" y2="40.5407">
			<stop  offset="0" style="stop-color:#BDD0FB"/>
			<stop  offset="1" style="stop-color:#9FA3FB"/>
		</linearGradient>
		<path style="opacity:0.15;fill:url(#SVGID_00000061463985956123938750000014237303710849051567_);" d="M773.4,59.65
			c-7.3,3.17-12.4,9.15-17.25,14.95c-4.91,5.87-9.81,11.73-14.72,17.6c-3.05,3.65-6.21,7.55-6.61,12.19
			c-0.4,4.65,3.19,10.1,8.41,10.4c2.53,0.14,4.86-0.91,7.06-1.93c15.13-7.06,30.39-14.2,43.26-24.14c4.52-3.49,8.92-7.66,9.84-13.05
			C805.76,61.69,784.53,54.82,773.4,59.65z"/>
		
			<linearGradient id="SVGID_00000007423330435418906890000015961937032216116131_" gradientUnits="userSpaceOnUse" x1="615.6725" y1="616.244" x2="596.2682" y2="46.3716">
			<stop  offset="0" style="stop-color:#BDD0FB"/>
			<stop  offset="1" style="stop-color:#9FA3FB"/>
		</linearGradient>
		<path style="opacity:0.15;fill:url(#SVGID_00000007423330435418906890000015961937032216116131_);" d="M608.51,603.6
			c15.52-5.76,31.37-14.29,36.54-28.68c0.84-2.35,1.37-4.93,0.52-7.37c-0.88-2.51-3.11-4.52-5.59-5.96
			c-8.14-4.72-18.55-3.9-27.45-1.47c-10.41,2.83-20.36,7.86-26.32,15.92c-2.35,3.17-4.07,7.01-3.32,10.89
			c0.86,4.52,4.87,8.21,9.24,10.72c6.92,3.97,16.16,5.66,22.77,1.91L608.51,603.6z"/>
		
			<linearGradient id="SVGID_00000168080931285776037570000000445955145107712152_" gradientUnits="userSpaceOnUse" x1="457.9019" y1="621.6161" x2="438.4977" y2="51.7438">
			<stop  offset="0" style="stop-color:#BDD0FB"/>
			<stop  offset="1" style="stop-color:#9FA3FB"/>
		</linearGradient>
		<path style="opacity:0.15;fill:url(#SVGID_00000168080931285776037570000000445955145107712152_);" d="M435.83,512.59
			c-5.44,4.42-6.87,12.15-4.06,18.57c2.81,6.42,9.43,11.36,16.77,13.3c9.52,2.51,20.18-0.01,26.61-6.31
			c1.65-1.62,3.06-3.5,3.61-5.67c0.74-2.93-0.16-6.07-1.4-8.96C470.39,507.3,450.37,500.77,435.83,512.59z"/>
		
			<linearGradient id="SVGID_00000145774379185128316230000000785688809971932813_" gradientUnits="userSpaceOnUse" x1="305.9601" y1="626.7897" x2="286.5558" y2="56.9174">
			<stop  offset="0" style="stop-color:#BDD0FB"/>
			<stop  offset="1" style="stop-color:#9FA3FB"/>
		</linearGradient>
		<path style="opacity:0.15;fill:url(#SVGID_00000145774379185128316230000000785688809971932813_);" d="M240.56,424.32
			c-2.23,3.67-4.32,7.52-4.9,11.73s0.58,8.92,4.06,12.02c2.23,1.98,5.18,3.15,8.15,3.95c14.77,3.98,30.08-0.12,44.32-4.19
			c9.55-2.74,19.18-5.5,27.8-9.97c15.92-8.26,27.45-21.86,36.23-36.38c3.22-5.32,6.2-11.17,5.46-17.37
			c-0.98-8.19-8.58-15.22-17.28-18.15c-8.7-2.93-18.22-2.35-26.95-0.4c-15.31,3.43-29.67,7.94-41,17.56
			C262.22,395.18,249.97,408.79,240.56,424.32z"/>
	</g>
	
		<linearGradient id="SVGID_00000043421627338705764520000010226697430332341400_" gradientUnits="userSpaceOnUse" x1="290.0993" y1="552.5405" x2="277.2378" y2="-27.1462" gradientTransform="matrix(1.1851 0.0312 0.0312 1.0664 -45.1792 5.3376)">
		<stop  offset="0" style="stop-color:#29ABE2"/>
		<stop  offset="0.3203" style="stop-color:#1ACAED"/>
		<stop  offset="0.7658" style="stop-color:#07F0FA"/>
		<stop  offset="1" style="stop-color:#00FFFF"/>
	</linearGradient>
	<path style="opacity:0.15;fill:url(#SVGID_00000043421627338705764520000010226697430332341400_);" d="M269.85,245.06
		c-5.68,4.28-11.16,8.94-14.78,14.78c-3.62,5.84-5.21,13.04-2.81,19.65c0.65,1.78,1.6,3.53,3.11,4.85c2.18,1.91,5.27,2.71,8.24,2.96
		c10.52,0.9,20.07-4.05,28.85-8.83c8.24-4.49,16.48-8.97,24.71-13.46c9.4-5.12,19.26-10.69,23.93-19.66
		c2.7-5.21,3.05-12.24-1.74-16.48c-2.63-2.33-6.31-3.38-9.87-3.97C306.59,221.07,285.98,232.92,269.85,245.06z"/>
	
		<linearGradient id="SVGID_00000159468593258145941310000011830161447510117766_" gradientUnits="userSpaceOnUse" x1="320.2161" y1="551.871" x2="307.3547" y2="-27.8129" gradientTransform="matrix(1.1851 0.0312 0.0312 1.0664 -45.1792 5.3376)">
		<stop  offset="0" style="stop-color:#29ABE2"/>
		<stop  offset="0.3203" style="stop-color:#1ACAED"/>
		<stop  offset="0.7658" style="stop-color:#07F0FA"/>
		<stop  offset="1" style="stop-color:#00FFFF"/>
	</linearGradient>
	<path style="opacity:0.15;fill:url(#SVGID_00000159468593258145941310000011830161447510117766_);" d="M297.36,202.18
		c21.06-1.08,41.11-9.44,55.14-22.99c3.97-3.83,7.61-8.4,7.86-13.77c0.27-5.77-3.56-11.4-8.58-15.28
		c-5.02-3.88-11.15-6.33-17.16-8.71c-8.62-3.41-9.41-4.08-13.54,3.5c-3.37,6.19-6.52,12.48-9.43,18.87
		c-2.84,6.23-5.45,12.55-7.83,18.95C303.13,184.61,298.39,202.13,297.36,202.18z"/>
	<path class="st9" d="M727.68,144.09c-0.29,5.31-1.07,10.65-2.32,16.01c-11.63,49.26-61.06,79.78-110.41,68.18
		c-49.35-11.6-79.94-60.93-68.31-110.18c3.34-14.12,9.78-26.72,18.44-37.21c24.61-9.22,47.65-22.01,71.41-33.43
		c6.79,0.03,13.67,0.83,20.56,2.45c25.85,6.07,46.54,22.51,58.73,43.85c-16.61,12.81-31.59,27.28-44.61,43.1
		c-5.27,6.4-9.8,16.3-2.8,21.86c4.24,3.37,10.52,2.94,15.85,1.91C699.97,157.59,714.18,151.53,727.68,144.09z"/>
	<path class="st10" d="M829.68,472.69c5.34,0.31,10.76-2.08,14.12-6.22c0.77-0.94,1.46-2,2.48-2.65c2.52-1.62,5.83-0.26,8.49,1.13
		c11.52,6.06,23.45,12.69,36.48,12.8c3.94,0.04,9.06,0.2,10.25,3.95c0.69,2.17-0.46,4.5-0.25,6.76c0.1,1.08,0.51,2.14,0.38,3.22
		c-0.21,1.68-1.66,2.91-3.07,3.85c-12.76,8.48-29.39,7.36-44.66,5.91c-7.91-0.75-15.82-1.5-23.73-2.25c-1.1-0.1-2.27-0.24-3.11-0.95
		c-2.22-1.9-0.2-5.45-0.28-8.38C826.6,483.31,814.87,471.82,829.68,472.69z"/>
	<path class="st11" d="M686.48,330.08c0,0-10.8,12.41-15.63,15.78c-4.72,3.29-34.34,17.76-41.37,15.22
		c-0.17-0.06-0.32-0.13-0.47-0.21c-6.05-3.45-3.32-15.26-5.05-30.79c-1.73-15.54-7.64-18.76,0-21.81l29.35-13.95l2.89,3.11
		L686.48,330.08z"/>
	
		<linearGradient id="SVGID_00000088100752075317220580000005256035543413730183_" gradientUnits="userSpaceOnUse" x1="632.5254" y1="331.9016" x2="692.5715" y2="331.9016">
		<stop  offset="0" style="stop-color:#190F8C"/>
		<stop  offset="0.5958" style="stop-color:#0F0770"/>
		<stop  offset="1" style="stop-color:#0A0362"/>
	</linearGradient>
	<path style="fill:url(#SVGID_00000088100752075317220580000005256035543413730183_);" d="M692.57,334.13
		c0,0-10.8,12.41-15.63,15.78c-4.83,3.37-35.78,18.46-41.84,15c-1.15-0.65-1.98-1.6-2.58-2.82c7.03,2.54,36.65-11.93,41.37-15.22
		c4.83-3.37,15.63-15.78,15.63-15.78l-30.28-32.65l0.15-0.07L692.57,334.13z"/>
	
		<linearGradient id="SVGID_00000144318111113056174310000008277638326567465866_" gradientUnits="userSpaceOnUse" x1="682.1226" y1="324.276" x2="688.8383" y2="324.276">
		<stop  offset="0" style="stop-color:#190F8C"/>
		<stop  offset="0.5958" style="stop-color:#0F0770"/>
		<stop  offset="1" style="stop-color:#0A0362"/>
	</linearGradient>
	<path style="fill:url(#SVGID_00000144318111113056174310000008277638326567465866_);" d="M688.84,327.38
		c-0.04,0.31-0.06,0.48-0.06,0.48l-6.65-7.16L688.84,327.38z"/>
	
		<linearGradient id="SVGID_00000070079454119578105580000015738919358160765321_" gradientUnits="userSpaceOnUse" x1="644.0396" y1="286.6181" x2="692.2452" y2="286.6181">
		<stop  offset="0" style="stop-color:#190F8C"/>
		<stop  offset="0.5958" style="stop-color:#0F0770"/>
		<stop  offset="1" style="stop-color:#0A0362"/>
	</linearGradient>
	<path style="fill:url(#SVGID_00000070079454119578105580000015738919358160765321_);" d="M688.84,329.4l-6.72-6.68l-28.09-30.19
		l-0.72-0.78c-0.99-11.01-2.33-19.73-3.7-26.61c-2.35-11.84-4.77-18.19-5.57-21.21c0.12-0.07,0.27-0.1,0.48-0.1
		c2.35,0,24.02,7.44,38.59,16.22c0.01,0.01,0.02,0.01,0.02,0.01c4.28,3.22,7.4,6.52,8.18,9.64
		C694.25,281.43,689.41,324.42,688.84,329.4z"/>
	
		<linearGradient id="SVGID_00000013881929203573952500000011604735634179526333_" gradientUnits="userSpaceOnUse" x1="685.1558" y1="296.9957" x2="699.2183" y2="296.9957">
		<stop  offset="0" style="stop-color:#190F8C"/>
		<stop  offset="0.5958" style="stop-color:#0F0770"/>
		<stop  offset="1" style="stop-color:#0A0362"/>
	</linearGradient>
	<path style="fill:url(#SVGID_00000013881929203573952500000011604735634179526333_);" d="M695.4,333.93l-4.53-4.53
		c0.57-4.98,5.41-47.97,2.47-59.7c-0.78-3.12-3.9-6.42-8.18-9.64c6.73,4.06,11.94,8.4,13.03,12.42
		C701.62,285.21,695.4,333.93,695.4,333.93z"/>
	<path class="st16" d="M656.09,288l27.61,29.34c0,0,5.26-35.88,2.98-45.33c-2.29-9.46-34.36-21.9-36.85-21.95
		S653.85,257.56,656.09,288z"/>
	<path class="st17" d="M604.93,292.13c1.3,1.07,1.95,2.72,2.5,4.3s1.09,3.25,2.26,4.46c1.17,1.21,3.17,1.81,4.56,0.87
		c-1.46-1.61-2.47-3.62-2.88-5.75c-0.39-2.04-0.28-4.28-1.5-5.97c-1.62-2.25-4.94-2.58-6.89-4.55c-0.56-0.56-1.01-1.26-1.7-1.65
		c-2.25-1.25-7,1.35-6.22,4.12C595.95,291.15,602.53,290.15,604.93,292.13z"/>
	<path class="st17" d="M589.71,310.94c3.23-3.71,3.78-4.08,4.97-5.99c2.46-3.94,2.66-6.44,5.75-9.38c1.23-1.17,2.38-2.24,4.18-2.6
		c2.9-0.59,5.52,1.01,7.26,2.07c2.97,1.81,3.1,3.07,5.57,4.45c2.5,1.4,5.06,1.61,6.8,1.57c-6.67-6.64-11.6-11.4-12.68-12.39
		c0,0-1-0.91-2.37-1.05c-0.85-0.09-0.13,0.93-0.65,0.24c-1.31-1.74-7.09-2.72-10.96-1.31c-2.77,1.01-8.12,7.88-10.25,9.92
		c-1.58,1.51-2.64,3.47-3.68,5.39c-2.28,4.2-4.55,8.41-6.83,12.61c-1.44,2.67-5.74,7.69-4.25,10.84c0.2,0.42,0.67,1.46,1.67,1.77
		C576.96,327.93,579.93,322.18,589.71,310.94z"/>
	<path class="st18" d="M592.34,301.13c0.07-4.09,2.04-7.34,2.54-8.18c0.37-0.6,0.76-1.12,1.21-1.64c2.28-2.71,6.63-4.06,9.47-1.93
		c0.94,0.7,1.62,1.7,2.54,2.42c3.07,2.38,8.42,0.15,8.87-3.7c-5.12-2.06-10.25-4.09-15.4-6.09c-1.61-0.62-3.31-1.26-5.02-1.03
		c-2,0.27-3.42,1.33-4.34,2.08c-4.8,3.94-7.85,9.31-8.26,10.04c-6.35,11.36-4.85,10.73-6.69,12.68c-6.32,6.72-14.03,3.56-17.02,9.26
		c-1.99,3.8-0.24,8.37,1.4,12.66c1.79,4.69,5.61,10.84,8.24,10.25c1.76-0.4,2.06-2.47,5-7.71c1.64-2.92,4.86-8.66,9.86-13.31
		c5.2-4.84,8.69-5.13,9.15-8.59C594.25,305.69,592.27,305.3,592.34,301.13z"/>
	<path class="st17" d="M608.62,331.04c1.5-0.13,2.95,0.5,4.31,1.17c1.35,0.66,2.75,1.38,4.25,1.42c1.51,0.04,3.16-0.84,3.44-2.32
		c-1.95-0.1-3.86-0.75-5.47-1.85c-1.54-1.05-2.89-2.55-4.73-2.86c-2.45-0.41-4.77,1.47-7.26,1.44c-0.71-0.01-1.44-0.17-2.13,0.02
		c-2.22,0.62-3.59,5.27-1.34,6.54C602.31,336.07,605.85,331.29,608.62,331.04z"/>
	<path class="st19" d="M498.12,347.89c2.86,1.18,6.64,3.53,11.81,3.15c6.02-0.44,8.34-3.89,19.05-12.41
		c15.61-12.42,16.15-9.46,23.18-17.06c4.73-5.11,6.75-8.91,11.94-10.05c3.49-0.77,8.35-0.32,12.18,2.8
		c3.48,2.84,4.46,6.54,4.68,7.48c1.52,6.42-2.27,11.45-2.81,12.15c-4.35,4.09-20.04,18.86-24.59,23.14
		c-21.65,20.38-22.61,21.31-25.34,23.01c-16.49,10.26-43.58,13.13-63.98,1.56c-9.47-5.37-18.68-31.64-11.26-41.95
		C462.03,327.14,488.05,343.73,498.12,347.89z"/>
	
		<linearGradient id="SVGID_00000112633728081370080530000009711950437709394621_" gradientUnits="userSpaceOnUse" x1="496.6889" y1="490.3676" x2="390.7375" y2="644.6383" gradientTransform="matrix(0.9138 -0.4061 0.4061 0.9138 -132.7784 76.2715)">
		<stop  offset="0.3035" style="stop-color:#FC8B85"/>
		<stop  offset="0.7238" style="stop-color:#E76E6B"/>
		<stop  offset="1" style="stop-color:#DD605E"/>
	</linearGradient>
	<path style="fill:url(#SVGID_00000112633728081370080530000009711950437709394621_);" d="M446.58,446.13
		c-7.26-7.82-46.92-46.79-51.73-56.31c-12.14-24.06,18.4-35.46,41.24-45.59c6.4-2.84,15.24-6.95,22.18-7.9
		c9.86-1.35,19.36,3.8,27.66,9.29c20.65,13.66,39.02,30.43,58.72,45.41s41.3,28.4,65.46,33.87c3.16,0.72,6.98,1.86,7.7,5.01
		c0.27,1.17,0.02,2.4-0.23,3.58c-2.28,10.79-4.72,21.95-11.33,30.78c-3.96,5.29-9.22,9.44-14.41,13.53
		c-5.79,4.56-11.68,9.18-18.5,11.99c-4.39,1.81-9.06,2.82-13.71,3.82c-14.49,3.13-39.34,13.61-53.4,5.14
		c-4.74-2.85-7.9-8.01-12.18-11.47c-7.6-6.16-16.01-11.16-23.45-17.59C462.12,462.35,454.22,454.35,446.58,446.13z"/>
	<path class="st21" d="M653.81,476.57c53.11-99.77,99.97-140.3,131.21-124.71c31.24,15.59,72.94,112.4,72.94,112.4l-35.45,6.08
		c0,0-28.12-65.47-43.74-68.59c-15.62-3.12-49.66,68.6-49.66,68.6L653.81,476.57z"/>
	<ellipse class="st22" cx="592.8" cy="690.63" rx="355.3" ry="9.37"/>
	<g>
		<g>
			<path class="st23" d="M904.46,242.49c-5.45,2.91-11.07,5.87-17.22,6.55c-6.14,0.68-13.02-1.46-16.19-6.76
				c-3.17-5.29-0.68-13.63,5.37-14.9c-13.21,11.49-31.83,16.51-49.05,13.21c-2.56-0.49-5.19-1.21-7.17-2.9
				c-5.08-4.35-1.99-14.39,4.66-15.15c-9.23,4.86-20.2,5.69-30.51,4.05c-4.2-0.67-8.57-1.86-11.57-4.87s-4.01-8.35-1.15-11.49
				c-13.45,2.57-26.91,5.13-40.36,7.7c-4.89,0.93-11.49,0.96-13.1-3.75c-1.13-3.31,1.23-6.75,3.7-9.23
				c9.32-9.34,22.45-14.77,35.65-14.74c-2.26-2.88-0.78-7.41,2.16-9.59s6.81-2.56,10.47-2.67c9.41-0.29,18.87,0.74,28,3.06
				c-5.11-1.99-6.71-9.71-2.81-13.56c2.88-2.84,7.35-3.19,11.39-2.96c16.4,0.94,31.55,8.59,46.16,16.08
				c-3.74-1.9-4.56-7.4-2.27-10.91s6.79-5.08,10.98-4.9c4.19,0.18,8.17,1.83,11.97,3.6c9.69,4.51,18.95,9.91,27.63,16.14
				c6.49,4.65,12.66,9.8,18.18,15.57c3.5,3.66,14.11,13.45,13.53,19.03c-0.56,5.4-9.88,8.15-13.93,10.31
				C920.82,233.77,912.64,238.13,904.46,242.49z"/>
			<path class="st24" d="M936.94,215.45c-0.87-0.46-1.74-0.92-2.62-1.35l-2.67-1.27c-1.8-0.79-3.61-1.58-5.43-2.32
				c-1.82-0.78-3.67-1.44-5.51-2.15c-1.85-0.66-3.7-1.35-5.57-1.97c-7.46-2.53-15.04-4.72-22.68-6.63
				c-15.3-3.8-30.88-6.51-46.6-8.08l-5.9-0.51l-5.91-0.4c-1.97-0.14-3.95-0.18-5.92-0.27c-1.97-0.09-3.95-0.14-5.93-0.15
				c-1.98-0.03-3.95-0.05-5.93-0.02c-1.98,0.03-3.96,0.02-5.93,0.12c-1.98,0.09-3.96,0.15-5.93,0.26l-5.92,0.44
				c-7.89,0.71-15.74,1.85-23.47,3.57c-3.86,0.84-7.68,1.88-11.45,3.06c-1.87,0.64-3.75,1.23-5.6,1.9c-1.83,0.74-3.67,1.44-5.48,2.2
				c15.35-3.38,30.82-4.81,46.3-5.16c7.74-0.16,15.48-0.01,23.22,0.34l2.9,0.13c0.97,0.04,1.93,0.11,2.9,0.17
				c1.93,0.13,3.87,0.21,5.8,0.39l5.79,0.44l5.79,0.54c15.43,1.53,30.81,3.71,46.13,6.45c7.66,1.36,15.3,2.87,22.92,4.53
				c1.91,0.39,3.8,0.86,5.71,1.28c1.89,0.46,3.8,0.89,5.69,1.36c1.9,0.45,3.78,0.96,5.68,1.47l2.83,0.78L936.94,215.45z"/>
		</g>
		<path class="st25" d="M1042.61,138.29c-8.04,11.6-196.43,278.32-226.04,547.28c-11.15,5-31.85,4.1-46.94,2.52
			c-10.48-1.1-18.25-2.52-18.25-2.52c18.81-97.35,58.98-198.43,103.4-287.42c73.44-147.08,158.51-261.12,178-270.56
			C1064.07,112.42,1050.66,126.69,1042.61,138.29z"/>
		<path class="st26" d="M1042.61,138.29c-8.04,11.6-196.43,278.32-226.04,547.28c-11.15,5-31.85,4.1-46.94,2.52
			c21.6-106.76,68.38-217.58,117.85-311.69c-10.39,9.2-23.02,18.9-32.71,21.75c73.44-147.08,158.51-261.12,178-270.56
			C1064.07,112.42,1050.66,126.69,1042.61,138.29z"/>
		<g>
			<path class="st27" d="M934.04,270.2c-1.42,7.44-2.84,15.09-1.39,22.52s6.47,14.68,13.85,16.45c7.37,1.77,16.25-4.19,15.52-11.72
				c-8.65,19.65-7.73,43.25,2.44,62.16c1.51,2.82,3.31,5.63,6.03,7.32c6.97,4.35,17.62-2.94,16.07-10.99
				c-2.33,12.57,0.71,25.7,6.41,37.15c2.32,4.67,5.31,9.34,9.95,11.74c4.64,2.4,11.26,1.64,13.91-2.86
				c1.91,16.67,3.82,33.33,5.73,50c0.69,6.06,3.08,13.78,9.19,13.94c4.3,0.11,7.48-3.91,9.48-7.71c7.55-14.3,9.12-31.64,4.26-47.06
				c4.2,1.59,8.99-1.8,10.46-6.03s0.51-8.9-0.69-13.22c-3.1-11.11-7.77-21.78-13.83-31.6c4.2,5.25,13.85,4.29,16.94-1.68
				c2.28-4.4,1.05-9.76-0.69-14.4c-7.1-18.82-21.62-33.74-35.76-48.08c3.6,3.67,10.35,2.62,13.63-1.34
				c3.28-3.96,3.48-9.79,1.74-14.63c-1.74-4.84-5.14-8.88-8.61-12.67c-8.83-9.67-18.57-18.53-29.05-26.39
				c-7.84-5.88-16.13-11.22-24.93-15.56c-5.57-2.75-20.95-11.57-27.28-8.86c-6.13,2.63-5.95,14.53-7.01,20.05
				C938.29,247.89,936.17,259.04,934.04,270.2z"/>
			<path class="st24" d="M953.9,222.34c0.85,0.85,1.71,1.7,2.55,2.57l2.47,2.65c1.59,1.81,3.18,3.64,4.71,5.5
				c1.57,1.84,3.03,3.76,4.54,5.65c1.46,1.92,2.93,3.84,4.35,5.79c5.7,7.79,11.04,15.85,16.08,24.09
				c10.05,16.49,18.93,33.72,26.52,51.52l2.76,6.71l2.64,6.77c0.88,2.25,1.65,4.55,2.48,6.83c0.83,2.27,1.61,4.57,2.35,6.88
				c0.76,2.3,1.51,4.6,2.19,6.93c0.69,2.32,1.42,4.63,2.03,6.98c0.62,2.34,1.27,4.68,1.86,7.03l1.65,7.09
				c2.05,9.48,3.59,19.08,4.39,28.74c0.42,4.82,0.6,9.67,0.6,14.5c-0.06,2.42-0.07,4.83-0.18,7.24c-0.2,2.41-0.35,4.81-0.58,7.21
				c-1.65-19.18-5.63-37.78-10.89-56.01c-2.65-9.11-5.66-18.1-8.9-27.01l-1.21-3.34c-0.4-1.12-0.84-2.22-1.26-3.33
				c-0.86-2.21-1.66-4.44-2.57-6.63l-2.64-6.61l-2.75-6.57c-7.44-17.48-15.63-34.66-24.44-51.56c-4.4-8.45-8.97-16.83-13.7-25.13
				c-1.16-2.09-2.4-4.13-3.59-6.21c-1.23-2.05-2.43-4.12-3.68-6.16c-1.23-2.06-2.52-4.07-3.8-6.1l-1.95-3.02L953.9,222.34z"/>
		</g>
		<g>
			<path class="st27" d="M997.02,256.37c7.39-1.69,14.99-3.46,21.23-7.77c6.24-4.31,10.88-11.81,9.54-19.26
				c-1.33-7.45-10.36-13.18-16.99-9.49c21.51,0.03,42.79-10.28,56.08-27.16c1.98-2.51,3.84-5.29,4.3-8.45
				c1.19-8.11-9.76-14.93-16.53-10.28c12.47-2.91,23.3-10.96,31.53-20.76c3.35-4,6.44-8.6,6.79-13.8c0.35-5.2-3.02-10.95-8.2-11.57
				c14.53-8.43,29.06-16.86,43.6-25.29c5.29-3.07,11.42-8.35,9.11-14c-1.62-3.98-6.58-5.27-10.88-5.58
				c-16.16-1.17-32.7,4.35-44.9,14.98c-0.23-4.48-5.25-7.5-9.73-7.14c-4.48,0.35-8.38,3.1-11.86,5.94
				c-8.95,7.29-16.88,15.84-23.46,25.32c3.13-5.95-1.62-14.39-8.34-14.82c-4.95-0.32-9.38,2.95-12.94,6.41
				c-14.43,14.04-22.3,33.3-29.79,51.97c1.93-4.76-1.74-10.51-6.7-11.92c-4.95-1.41-10.39,0.75-14.13,4.28
				c-3.74,3.53-6.09,8.26-8.18,12.95c-5.34,11.95-9.56,24.4-12.57,37.14c-2.26,9.52-3.83,19.25-4.28,29.03
				c-0.29,6.2-2.22,23.79,2.81,28.49c4.87,4.55,15.72-0.38,21.22-1.64C974.85,261.43,985.93,258.9,997.02,256.37z"/>
			<path class="st24" d="M945.13,257.41c0.43-1.12,0.87-2.25,1.34-3.36l1.44-3.32c1.03-2.18,2.06-4.36,3.16-6.51
				c1.06-2.18,2.23-4.28,3.36-6.41c1.18-2.1,2.34-4.22,3.57-6.3c4.87-8.34,10.12-16.45,15.66-24.36
				c11.11-15.81,23.35-30.83,36.65-44.91l5.06-5.22l5.15-5.13c1.71-1.71,3.52-3.34,5.27-5.01c1.75-1.67,3.55-3.3,5.37-4.91
				c1.81-1.61,3.62-3.23,5.48-4.78c1.86-1.56,3.68-3.16,5.6-4.65c1.9-1.51,3.79-3.03,5.7-4.52l5.84-4.35
				c7.88-5.68,16.07-10.93,24.62-15.54c4.26-2.32,8.64-4.43,13.07-6.37c2.25-0.91,4.46-1.88,6.72-2.74
				c2.29-0.79,4.56-1.61,6.85-2.36c-16.95,9.2-32.42,20.3-47.04,32.42c-7.3,6.07-14.35,12.43-21.23,18.97l-2.58,2.45
				c-0.86,0.81-1.7,1.66-2.55,2.49c-1.68,1.67-3.41,3.3-5.06,5.01l-5.01,5.07l-4.93,5.15c-13.06,13.81-25.54,28.19-37.52,43.03
				c-5.99,7.41-11.85,14.95-17.57,22.61c-1.45,1.9-2.82,3.85-4.26,5.77c-1.39,1.94-2.8,3.88-4.17,5.84
				c-1.4,1.95-2.73,3.93-4.08,5.92l-1.99,3L945.13,257.41z"/>
		</g>
		<g>
			<path class="st23" d="M975.65,273.31c3.35,6.79,6.84,13.75,12.48,18.81c5.64,5.06,14.03,7.83,20.98,4.81s10.45-13.11,5.32-18.69
				c4.95,20.89,19.92,39.17,39.45,48.17c2.91,1.34,6.04,2.5,9.23,2.22c8.18-0.72,12.29-12.93,6.2-18.43
				c5.73,11.44,16.07,20.09,27.53,25.81c4.67,2.33,9.87,4.26,15.02,3.4c5.15-0.87,9.98-5.46,9.38-10.64
				c11.58,12.16,23.16,24.32,34.73,36.48c4.21,4.42,10.78,9.15,15.75,5.61c3.5-2.5,3.61-7.61,2.92-11.85
				c-2.6-15.96-11.81-30.74-24.99-40.13c4.31-1.26,6.09-6.84,4.71-11.1c-1.38-4.27-4.96-7.42-8.53-10.14
				c-9.18-7.01-19.35-12.72-30.11-16.92c6.52,1.66,13.65-4.9,12.52-11.52c-0.84-4.88-5.05-8.43-9.24-11.08
				c-17.02-10.77-37.62-13.95-57.55-16.9c5.09,0.77,9.85-4.13,10.07-9.26c0.23-5.13-3.13-9.91-7.44-12.73
				c-4.31-2.81-9.46-4-14.52-4.95c-12.89-2.42-26-3.64-39.11-3.62c-9.8,0.01-19.65,0.73-29.29,2.56
				c-6.11,1.16-23.71,3.35-27.13,9.32c-3.31,5.78,4.01,15.18,6.5,20.22C965.59,252.94,970.62,263.13,975.65,273.31z"/>
			<path class="st24" d="M962.64,223.16c1.19,0.16,2.39,0.33,3.58,0.52l3.57,0.63c2.36,0.49,4.73,0.99,7.08,1.56
				c2.37,0.52,4.69,1.18,7.03,1.78c2.32,0.66,4.66,1.3,6.97,2.01c9.26,2.8,18.38,6.03,27.37,9.57c17.98,7.13,35.46,15.54,52.26,25.2
				l6.25,3.7l6.19,3.82c2.06,1.27,4.06,2.64,6.1,3.96c2.03,1.32,4.04,2.68,6.02,4.08c1.99,1.38,3.98,2.77,5.93,4.22
				c1.95,1.44,3.93,2.84,5.83,4.36c1.91,1.5,3.83,2.98,5.73,4.49l5.59,4.67c7.35,6.34,14.37,13.08,20.84,20.31
				c3.25,3.6,6.31,7.36,9.23,11.22c1.41,1.97,2.86,3.9,4.23,5.89c1.3,2.04,2.62,4.06,3.88,6.1c-12.89-14.33-27.29-26.79-42.48-38.17
				c-7.61-5.68-15.44-11.06-23.4-16.22l-2.99-1.94c-0.99-0.65-2.01-1.27-3.01-1.9c-2.02-1.25-4.01-2.55-6.06-3.75l-6.1-3.69
				l-6.16-3.59c-16.48-9.48-33.39-18.28-50.62-26.48c-8.61-4.11-17.31-8.05-26.1-11.83c-2.19-0.97-4.41-1.85-6.61-2.8
				c-2.22-0.9-4.43-1.82-6.65-2.7c-2.22-0.91-4.46-1.74-6.71-2.59l-3.38-1.24L962.64,223.16z"/>
		</g>
		<g>
			<g>
				<g>
					<path class="st27" d="M919.05,216.92c-6.1-0.97-12.38-2-17.68-5.17c-5.31-3.17-9.49-9.01-8.81-15.14
						c0.68-6.13,7.71-11.28,13.3-8.63c-17.49,1.19-35.36-6.05-47.08-19.06c-1.75-1.94-3.41-4.09-3.96-6.64
						c-1.41-6.53,7.13-12.67,12.89-9.26c-10.3-1.69-19.54-7.65-26.76-15.18c-2.94-3.07-5.7-6.65-6.27-10.86
						c-0.56-4.21,1.86-9.07,6.04-9.85c-12.27-6.07-24.55-12.14-36.82-18.2c-4.46-2.21-9.74-6.17-8.17-10.89
						c1.1-3.32,5.07-4.64,8.54-5.12c13.08-1.82,26.82,1.77,37.33,9.75c-0.06-3.65,3.87-6.38,7.53-6.33
						c3.66,0.04,6.98,2.07,9.96,4.19c7.68,5.45,14.58,11.97,20.45,19.32c-2.87-4.67,0.53-11.79,5.97-12.5
						c4.01-0.52,7.79,1.89,10.87,4.51c12.5,10.63,19.94,25.87,27.04,40.65c-1.83-3.77,0.85-8.64,4.8-10.06
						c3.95-1.41,8.49,0.04,11.72,2.72c3.23,2.67,5.4,6.39,7.36,10.09c4.99,9.43,9.1,19.33,12.24,29.52
						c2.35,7.62,4.16,15.44,5.06,23.37c0.57,5.02,3.09,19.23-0.74,23.32c-3.71,3.96-12.81,0.54-17.34-0.18
						C937.35,219.84,928.2,218.38,919.05,216.92z"/>
				</g>
				<g>
					<path class="st24" d="M961.3,214.96c-0.41-0.89-0.83-1.78-1.27-2.66l-1.35-2.62c-0.95-1.72-1.91-3.44-2.92-5.13
						c-0.98-1.71-2.05-3.36-3.08-5.03c-1.07-1.65-2.14-3.31-3.24-4.93c-4.41-6.52-9.13-12.83-14.06-18.96
						c-9.89-12.25-20.67-23.81-32.24-34.54l-4.39-3.97l-4.47-3.89c-1.49-1.3-3.04-2.52-4.56-3.79c-1.52-1.26-3.06-2.5-4.63-3.7
						c-1.56-1.21-3.12-2.43-4.72-3.59c-1.6-1.17-3.17-2.37-4.8-3.48c-1.63-1.12-3.24-2.26-4.88-3.37l-4.99-3.22
						c-6.72-4.19-13.66-8.02-20.86-11.3c-3.59-1.66-7.26-3.13-10.98-4.47c-1.88-0.62-3.73-1.29-5.61-1.87
						c-1.91-0.52-3.8-1.06-5.7-1.55c14.28,6.57,27.47,14.75,40.01,23.81c6.26,4.54,12.34,9.33,18.29,14.28l2.23,1.85
						c0.75,0.61,1.47,1.26,2.21,1.88c1.46,1.27,2.95,2.5,4.38,3.8l4.35,3.85l4.29,3.92c11.37,10.52,22.3,21.54,32.85,32.96
						c5.28,5.7,10.45,11.52,15.51,17.43c1.29,1.47,2.51,2.98,3.78,4.46c1.23,1.51,2.49,3,3.71,4.52c1.24,1.51,2.43,3.05,3.64,4.59
						l1.78,2.33L961.3,214.96z"/>
				</g>
			</g>
		</g>
		<g>
			<path class="st28" d="M934.72,265.12c-3.14,5.32-6.39,10.77-11.28,14.54c-4.89,3.77-11.87,5.52-17.34,2.65
				c-5.47-2.87-7.7-11.28-3.19-15.51c-5.28,16.68-18.56,30.64-34.98,36.77c-2.45,0.91-5.06,1.67-7.64,1.25
				c-6.61-1.07-9.21-11.25-3.92-15.35c-5.34,8.95-14.28,15.36-23.94,19.32c-3.94,1.61-8.28,2.87-12.42,1.86
				c-4.13-1.01-7.78-5.04-6.98-9.21c-10.15,9.19-20.29,18.37-30.44,27.56c-3.69,3.34-9.31,6.79-13.14,3.61
				c-2.7-2.24-2.47-6.4-1.66-9.81c3.08-12.81,11.45-24.27,22.74-31.11c-3.43-1.28-4.54-5.92-3.16-9.31
				c1.38-3.39,4.48-5.73,7.54-7.73c7.88-5.14,16.49-9.17,25.5-11.94c-5.4,0.96-10.8-4.8-9.48-10.12c0.98-3.92,4.61-6.54,8.18-8.45
				c14.49-7.72,31.42-9.07,47.8-10.27c-4.18,0.32-7.75-3.95-7.63-8.13c0.13-4.19,3.14-7.87,6.81-9.89c3.67-2.03,7.93-2.68,12.1-3.15
				c10.62-1.19,21.35-1.39,32.01-0.59c7.97,0.6,15.92,1.78,23.65,3.84c4.89,1.31,19.06,4.15,21.48,9.21
				c2.34,4.9-4.18,12.09-6.51,16.04C944.12,249.18,939.42,257.15,934.72,265.12z"/>
			<path class="st24" d="M948.33,225.15c-0.98,0.06-1.96,0.12-2.94,0.21l-2.94,0.3c-1.95,0.26-3.91,0.52-5.85,0.84
				c-1.95,0.28-3.88,0.68-5.82,1.02c-1.93,0.4-3.86,0.78-5.78,1.21c-7.69,1.71-15.3,3.79-22.82,6.13
				c-15.04,4.71-29.76,10.5-44,17.33l-5.31,2.63l-5.26,2.73c-1.75,0.91-3.46,1.9-5.2,2.85c-1.73,0.95-3.45,1.93-5.14,2.95
				c-1.7,1-3.4,2.01-5.07,3.07c-1.67,1.05-3.37,2.08-5,3.19c-1.64,1.1-3.3,2.19-4.93,3.31l-4.82,3.46
				c-6.36,4.71-12.47,9.76-18.17,15.25c-2.86,2.73-5.58,5.6-8.18,8.56c-1.27,1.52-2.56,3-3.79,4.53c-1.18,1.58-2.38,3.14-3.53,4.73
				c11.34-10.87,23.8-20.13,36.83-28.47c6.53-4.16,13.21-8.06,20-11.78l2.54-1.4c0.85-0.47,1.71-0.91,2.56-1.36
				c1.72-0.89,3.41-1.83,5.15-2.68l5.18-2.63l5.22-2.55c13.97-6.71,28.24-12.85,42.74-18.47c7.25-2.82,14.56-5.5,21.93-8.04
				c1.84-0.66,3.69-1.24,5.54-1.88c1.86-0.6,3.71-1.22,5.57-1.8c1.86-0.6,3.73-1.15,5.61-1.7l2.82-0.8L948.33,225.15z"/>
		</g>
	</g>
	<g>
		<path class="st25" d="M441.4,687.88c0,0-6.28,1.22-14.76,2.16c-12.21,1.37-43.62-0.61-52.63-4.92
			c-2.22-21.45-5.41-42.85-9.38-64.04c-18.06-96.41-52.26-188.49-84.33-260.42c-30.13-67.58-58.38-117.38-69.58-136.23
			c-2.57-4.33-4.25-7.02-4.84-7.93c-6.51-9.98-17.35-22.28,7.96-9.22c1.84,0.95,4.4,3.12,7.58,6.43
			c22.27,23.11,75,101.42,124.26,201.45c4.06,8.24,8.1,16.64,12.09,25.16c21.44,45.75,41.66,95.21,57.71,145.48
			C426.34,619.75,435.27,654.08,441.4,687.88z"/>
		<path class="st26" d="M345.7,415.17c-7.3-7.74-15.11-15-23.37-21.73c-8.41-6.83-17.58-13.51-22.22-23.29
			c-1.47-3.1-2.67-6.71-5.68-8.37c-2.39-1.31-5.27-1.03-7.99-0.92c-2.05,0.08-4.09,0.01-6.11-0.2
			c-30.13-67.58-58.38-117.38-69.58-136.23c1.22-1.37,2.48-2.72,3.76-4.04c2.23-2.3,4.54-4.54,6.94-6.67
			C243.71,236.83,296.44,315.14,345.7,415.17z"/>
		<path class="st26" d="M441.4,687.88c0,0-6.28,1.22-14.76,2.16c-12.21,1.37-43.62-0.61-52.63-4.92
			c-2.22-21.45-5.41-42.85-9.38-64.04c6.46,8.87,14.62,17.04,25.22,16.78c8.82-0.21,16.55-6.76,20.5-14.65
			c3.94-7.88,4.76-16.92,5.06-25.74c0.13-3.89,0.16-7.79,0.09-11.68C426.34,619.75,435.27,654.08,441.4,687.88z"/>
		<g>
			<g>
				<path class="st28" d="M178.54,193.1c-3.66-1.2-7.41-2.45-10.36-4.87c-2.95-2.42-4.94-6.33-3.92-9.91
					c1.02-3.58,5.86-5.93,9.03-3.79c-10.87-1.06-21.14-7.18-27.06-16.11c-0.88-1.33-1.69-2.78-1.78-4.35
					c-0.22-4.03,5.64-6.82,8.84-4.21c-6.17-2.05-11.26-6.53-14.95-11.75c-1.51-2.13-2.85-4.53-2.78-7.1
					c0.07-2.56,2.04-5.21,4.69-5.25c-6.95-4.86-13.89-9.71-20.84-14.57c-2.53-1.77-5.38-4.66-3.94-7.31
					c1.01-1.87,3.58-2.25,5.76-2.18c8.22,0.24,16.32,3.77,21.99,9.59c0.33-2.18,3.01-3.41,5.26-3.01s4.09,1.94,5.71,3.5
					c4.18,4.02,7.78,8.6,10.66,13.58c-1.3-3.07,1.49-6.96,4.91-6.84c2.52,0.09,4.6,1.92,6.23,3.79c6.63,7.6,9.7,17.42,12.6,26.94
					c-0.75-2.43,1.38-5.06,3.95-5.5c2.57-0.44,5.21,0.89,6.94,2.8c1.72,1.92,2.69,4.35,3.52,6.75c2.13,6.12,3.68,12.43,4.6,18.82
					c0.69,4.78,1.03,9.62,0.8,14.43c-0.15,3.05,0,11.76-2.76,13.81c-2.67,1.98-7.93-0.98-10.64-1.87
					C189.51,196.69,184.03,194.9,178.54,193.1z"/>
				<path class="st24" d="M204.72,196.22c-0.17-0.57-0.33-1.14-0.52-1.71l-0.57-1.7c-0.42-1.12-0.84-2.24-1.29-3.35
					c-0.43-1.12-0.93-2.21-1.4-3.31c-0.5-1.09-0.99-2.18-1.51-3.26c-2.07-4.33-4.34-8.56-6.77-12.71
					c-4.87-8.3-10.35-16.27-16.4-23.83l-2.31-2.81l-2.36-2.77c-0.79-0.92-1.62-1.81-2.43-2.72c-0.81-0.91-1.64-1.8-2.48-2.67
					c-0.84-0.88-1.68-1.76-2.55-2.62c-0.86-0.86-1.71-1.73-2.61-2.56c-0.89-0.83-1.77-1.68-2.67-2.5l-2.75-2.42
					c-3.71-3.17-7.61-6.16-11.71-8.84c-2.04-1.35-4.16-2.6-6.31-3.77c-1.09-0.56-2.17-1.14-3.27-1.68c-1.12-0.5-2.23-1.02-3.35-1.5
					c8.13,5.36,15.43,11.57,22.24,18.23c3.4,3.34,6.66,6.81,9.83,10.35l1.19,1.33c0.4,0.44,0.78,0.9,1.17,1.35
					c0.77,0.9,1.57,1.79,2.32,2.71l2.29,2.73l2.25,2.77c5.95,7.42,11.58,15.09,16.93,22.95c2.68,3.93,5.28,7.91,7.81,11.95
					c0.65,1,1.25,2.03,1.88,3.04c0.61,1.02,1.23,2.04,1.83,3.07c0.61,1.02,1.19,2.06,1.78,3.1l0.86,1.57L204.72,196.22z"/>
			</g>
			<g>
				<path class="st23" d="M184.86,228.3c-3.76,5.71-7.66,11.56-13.2,15.49c-5.54,3.93-13.18,5.52-18.87,2.1s-7.48-12.8-2.32-17.24
					c-6.89,18.13-22.2,32.89-40.32,38.87c-2.7,0.89-5.57,1.6-8.32,1.02c-7.04-1.5-9.11-12.84-3.12-17.11
					c-6.4,9.61-16.48,16.25-27.17,20.16c-4.36,1.59-9.13,2.77-13.51,1.46c-4.38-1.31-8.02-5.92-6.86-10.48
					C39.59,272.2,28,281.84,16.41,291.49c-4.22,3.51-10.52,7.04-14.41,3.36c-2.74-2.6-2.2-7.17-1.08-10.89
					c4.24-13.97,14.08-26.21,26.73-33.21c-3.6-1.57-4.46-6.74-2.73-10.41c1.73-3.67,5.24-6.1,8.68-8.16
					c8.86-5.29,18.43-9.33,28.32-11.95c-5.89,0.8-11.28-5.8-9.48-11.6c1.33-4.27,5.44-6.99,9.42-8.92
					c16.16-7.83,34.49-8.51,52.22-9.06c-4.53,0.15-8.07-4.72-7.63-9.32c0.44-4.61,3.95-8.52,8.05-10.58s8.73-2.58,13.26-2.89
					c11.52-0.81,23.1-0.52,34.52,0.87c8.54,1.04,17.02,2.71,25.19,5.35c5.18,1.67,20.23,5.48,22.47,11.17
					c2.17,5.51-5.37,13.13-8.17,17.37C196.14,211.18,190.5,219.74,184.86,228.3z"/>
				<path class="st24" d="M202.4,184.9c-1.06,0.02-2.12,0.04-3.19,0.09l-3.19,0.19c-2.12,0.19-4.24,0.39-6.36,0.65
					c-2.12,0.22-4.23,0.56-6.34,0.85c-2.1,0.34-4.22,0.67-6.32,1.06c-8.41,1.53-16.75,3.45-25.02,5.68
					c-16.54,4.48-32.81,10.16-48.64,17.02l-5.91,2.65l-5.86,2.76c-1.95,0.92-3.87,1.93-5.8,2.9c-1.94,0.96-3.85,1.97-5.75,3.01
					c-1.91,1.03-3.81,2.05-5.69,3.14c-1.88,1.08-3.77,2.13-5.62,3.28c-1.85,1.14-3.71,2.25-5.54,3.41l-5.45,3.58
					c-7.19,4.89-14.14,10.17-20.66,15.95c-3.27,2.87-6.41,5.91-9.43,9.05c-1.47,1.61-2.98,3.18-4.41,4.81
					c-1.38,1.69-2.79,3.35-4.14,5.04c13-11.44,27.08-21.05,41.72-29.63c7.33-4.27,14.81-8.25,22.39-12.03l2.84-1.42
					c0.95-0.48,1.91-0.92,2.86-1.38c1.92-0.9,3.8-1.86,5.74-2.71l5.77-2.66l5.81-2.56c15.53-6.74,31.34-12.82,47.37-18.33
					c8.01-2.76,16.08-5.37,24.2-7.83c2.03-0.64,4.07-1.19,6.1-1.81c2.04-0.57,4.08-1.16,6.13-1.72c2.05-0.58,4.1-1.09,6.17-1.61
					l3.1-0.75L202.4,184.9z"/>
			</g>
			<g>
				<g>
					<g>
						<path class="st27" d="M239.74,184.29c5.59-0.17,11.34-0.38,16.48-2.63c5.13-2.25,9.57-7.07,9.69-12.71
							c0.11-5.64-5.59-11.11-10.91-9.37c15.55,3.1,32.44-1.38,44.49-11.82c1.79-1.55,3.54-3.31,4.33-5.56
							c2.04-5.76-4.91-12.31-10.47-9.88c9.44-0.34,18.44-4.67,25.8-10.65c3-2.44,5.9-5.36,6.9-9.11c1-3.75-0.6-8.44-4.26-9.63
							c11.73-4.08,23.46-8.16,35.19-12.23c4.27-1.48,9.46-4.46,8.61-8.92c-0.6-3.14-4-4.79-7.06-5.63
							c-11.52-3.17-24.28-1.5-34.65,4.51c0.48-3.31-2.72-6.23-6.01-6.61c-3.29-0.38-6.51,1.07-9.43,2.64
							c-7.53,4.05-14.5,9.16-20.63,15.14c3.12-3.9,0.91-10.75-3.89-12.02c-3.54-0.94-7.21,0.81-10.28,2.83
							c-12.47,8.19-20.94,21.14-29.06,33.71c2.08-3.21,0.26-7.93-3.12-9.67c-3.38-1.74-7.62-0.94-10.84,1.1
							c-3.22,2.05-5.6,5.16-7.79,8.29c-5.59,7.97-10.44,16.46-14.46,25.34c-3.01,6.64-5.55,13.52-7.29,20.6
							c-1.1,4.49-5.04,17.07-2.08,21.23c2.86,4.02,11.43,1.97,15.58,1.84C222.97,184.81,231.36,184.55,239.74,184.29z"/>
					</g>
					<g>
						<path class="st24" d="M202.06,177.61c0.48-0.76,0.95-1.52,1.45-2.26l1.52-2.22c1.06-1.45,2.12-2.89,3.23-4.31
							c1.08-1.44,2.23-2.81,3.36-4.21c1.16-1.37,2.31-2.75,3.49-4.09c4.72-5.4,9.7-10.57,14.85-15.56
							c10.32-9.96,21.35-19.19,33-27.57l4.41-3.09l4.47-3.01c1.49-1,3.03-1.93,4.54-2.9c1.51-0.97,3.04-1.91,4.59-2.82
							c1.54-0.92,3.08-1.84,4.66-2.71c1.57-0.88,3.12-1.78,4.72-2.6c1.59-0.83,3.18-1.68,4.78-2.49l4.85-2.34
							c6.52-3.02,13.21-5.69,20.05-7.83c3.42-1.09,6.89-2,10.38-2.78c1.76-0.35,3.5-0.73,5.26-1.04c1.77-0.25,3.53-0.52,5.29-0.74
							c-13.59,4.3-26.39,10.19-38.71,16.95c-6.16,3.39-12.17,7.03-18.1,10.82l-2.22,1.42c-0.74,0.47-1.47,0.97-2.2,1.45
							c-1.46,0.98-2.94,1.92-4.38,2.94l-4.36,2.98l-4.31,3.06c-11.44,8.22-22.55,16.94-33.36,26.07c-5.41,4.56-10.73,9.23-15.97,14
							c-1.33,1.18-2.6,2.41-3.91,3.61c-1.28,1.22-2.59,2.43-3.86,3.67c-1.29,1.22-2.54,2.48-3.8,3.74l-1.87,1.91L202.06,177.61z"/>
					</g>
				</g>
			</g>
			<g>
				<path class="st28" d="M215.55,232.08c1.88,6.21,3.84,12.59,7.9,17.66c4.06,5.07,10.76,8.59,17.06,7.02
					c6.31-1.57,10.68-9.62,7.13-15.05c1.24,18.36,11.32,35.92,26.57,46.27c2.27,1.54,4.76,2.97,7.49,3.18
					c7.02,0.54,12.22-9.21,7.84-14.71c3.23,10.48,10.76,19.25,19.64,25.69c3.62,2.63,7.75,4.99,12.23,4.98s9.21-3.22,9.43-7.68
					c8.08,11.91,16.15,23.82,24.23,35.72c2.94,4.33,7.82,9.25,12.53,6.95c3.31-1.62,4.13-5.93,4.14-9.61
					c0.05-13.86-5.65-27.65-15.47-37.45c3.82-0.46,6.11-4.92,5.55-8.73s-3.15-6.97-5.78-9.77c-6.77-7.21-14.57-13.47-23.08-18.54
					c5.28,2.32,12.23-2.22,12.21-7.98c-0.02-4.25-3.08-7.83-6.25-10.66c-12.88-11.49-29.84-17.08-46.28-22.37
					c4.2,1.37,8.91-2.11,9.82-6.41c0.92-4.31-1.25-8.82-4.5-11.8c-3.25-2.98-7.43-4.71-11.58-6.22
					c-10.56-3.85-21.47-6.73-32.56-8.55c-8.29-1.37-16.72-2.14-25.13-1.95c-5.33,0.12-20.52-0.49-24.25,4.07
					c-3.61,4.42,1.25,13.4,2.65,18.01C209.92,213.45,212.73,222.76,215.55,232.08z"/>
				<path class="st24" d="M211.61,187.85c0.99,0.31,1.98,0.61,2.96,0.94l2.93,1.04c1.93,0.75,3.86,1.51,5.77,2.31
					c1.93,0.77,3.8,1.66,5.69,2.49c1.87,0.88,3.76,1.75,5.61,2.68c7.43,3.66,14.69,7.68,21.79,11.94
					c14.2,8.55,27.79,18.12,40.64,28.65l4.77,4.01l4.69,4.1c1.57,1.36,3.06,2.81,4.6,4.21c1.53,1.4,3.04,2.83,4.52,4.29
					c1.49,1.45,2.98,2.9,4.42,4.4c1.45,1.49,2.92,2.96,4.32,4.5c1.4,1.54,2.82,3.05,4.21,4.6l4.07,4.73
					c5.33,6.39,10.31,13.08,14.76,20.1c2.24,3.5,4.3,7.11,6.22,10.78c0.92,1.86,1.87,3.7,2.74,5.57c0.81,1.91,1.64,3.8,2.42,5.71
					c-8.88-13.92-19.3-26.48-30.54-38.25c-5.63-5.87-11.49-11.52-17.5-17l-2.25-2.06c-0.75-0.69-1.52-1.35-2.28-2.03
					c-1.53-1.34-3.03-2.72-4.59-4.02l-4.63-3.98l-4.7-3.9c-12.6-10.33-25.66-20.15-39.07-29.5c-6.7-4.68-13.51-9.24-20.4-13.67
					c-1.71-1.13-3.47-2.18-5.19-3.3c-1.75-1.07-3.49-2.16-5.25-3.22c-1.75-1.08-3.53-2.1-5.31-3.13l-2.69-1.52L211.61,187.85z"/>
			</g>
			<g>
				<path class="st27" d="M223.86,237.86c0.47,7.95,0.92,16.12-1.6,23.68c-2.52,7.55-8.74,14.44-16.67,15.29
					c-7.93,0.85-16.38-6.56-14.6-14.32c6.36,21.66,2.2,46.15-10.96,64.51c-1.96,2.73-4.22,5.43-7.28,6.83
					c-7.85,3.59-17.98-5.44-15.27-13.63c0.73,13.43-4.22,26.71-11.72,37.88c-3.06,4.56-6.8,9.02-11.97,10.9s-11.97,0.19-14.12-4.86
					c-4.25,17.13-8.49,34.25-12.74,51.38c-1.54,6.23-5.08,13.96-11.48,13.3c-4.5-0.46-7.27-5.08-8.85-9.32
					c-5.94-15.94-5.23-34.23,1.93-49.66c-4.6,1.09-9.13-3.09-10.09-7.7c-0.96-4.62,0.67-9.35,2.51-13.7
					c4.74-11.17,11.06-21.67,18.71-31.1c-5.1,4.91-15.03,2.61-17.45-4.03c-1.78-4.9,0.22-10.32,2.67-14.92
					c9.95-18.68,27.12-32.28,43.81-45.33c-4.25,3.35-11.15,1.34-14.04-3.24s-2.3-10.69,0.17-15.49s6.56-8.57,10.7-12.06
					c10.52-8.9,21.87-16.82,33.87-23.61c8.97-5.08,18.34-9.53,28.11-12.87c6.19-2.11,23.42-9.24,29.66-5.56
					c6.04,3.57,4.24,15.96,4.59,21.86C222.44,214.02,223.15,225.94,223.86,237.86z"/>
				<path class="st24" d="M209.62,185.26c-1.01,0.77-2.02,1.54-3.01,2.34l-2.93,2.43c-1.9,1.68-3.81,3.36-5.66,5.1
					c-1.89,1.71-3.67,3.51-5.5,5.28c-1.78,1.81-3.58,3.61-5.32,5.45c-7,7.36-13.66,15.05-20.03,22.96
					c-12.72,15.85-24.32,32.62-34.64,50.16l-3.79,6.63l-3.67,6.7c-1.22,2.23-2.34,4.53-3.51,6.79c-1.17,2.26-2.3,4.55-3.38,6.86
					c-1.1,2.3-2.2,4.6-3.22,6.93c-1.03,2.33-2.11,4.64-3.06,7.01c-0.96,2.36-1.95,4.71-2.9,7.08l-2.68,7.17
					c-3.42,9.61-6.32,19.42-8.47,29.38c-1.09,4.98-1.94,10.01-2.59,15.05c-0.26,2.53-0.59,5.05-0.8,7.58
					c-0.12,2.54-0.28,5.07-0.37,7.6c4.32-19.79,10.99-38.65,18.94-56.95c3.99-9.14,8.35-18.12,12.94-26.98l1.72-3.32
					c0.57-1.11,1.18-2.2,1.76-3.3c1.2-2.19,2.33-4.41,3.58-6.57l3.65-6.54l3.76-6.48c10.13-17.23,21-34.05,32.48-50.49
					c5.73-8.23,11.63-16.35,17.7-24.36c1.49-2.03,3.06-3.98,4.58-5.99c1.56-1.97,3.1-3.97,4.67-5.93c1.56-1.98,3.17-3.91,4.79-5.85
					l2.45-2.89L209.62,185.26z"/>
			</g>
			<g>
				<path class="st23" d="M258.38,212.87c5.3,3.77,10.76,7.62,17.08,9.16s13.78,0.24,17.8-4.86s2.55-14.13-3.59-16.27
					c12.24,13.78,30.99,21.53,49.4,20.42c2.74-0.17,5.58-0.55,7.88-2.06c5.89-3.85,4.02-14.75-2.82-16.44
					c8.98,6.32,20.32,8.67,31.3,8.35c4.48-0.13,9.19-0.78,12.73-3.52c3.54-2.74,5.31-8.17,2.75-11.84c13.69,4.5,27.39,9,41.08,13.5
					c4.98,1.64,11.87,2.55,14.18-2.14c1.63-3.3-0.37-7.21-2.62-10.14c-8.46-11-21.43-18.45-35.21-20.21
					c2.75-2.7,1.82-7.63-0.96-10.3c-2.78-2.67-6.76-3.59-10.57-4.21c-9.79-1.58-19.79-1.78-29.63-0.59
					c5.6-1.38,8.32-9.23,4.76-13.77c-2.62-3.35-7.24-4.32-11.49-4.63c-17.24-1.24-34.09,4.69-50.34,10.53
					c4.16-1.48,5.76-7.1,3.84-11.07c-1.92-3.97-6.4-6.22-10.8-6.6c-4.4-0.38-8.77,0.81-12.98,2.14
					c-10.72,3.39-21.12,7.78-31.01,13.1c-7.4,3.98-14.54,8.51-21.08,13.79c-4.14,3.35-16.54,12.13-16.69,18.03
					c-0.15,5.71,9.21,9.84,13.14,12.65C242.49,201.56,250.44,207.22,258.38,212.87z"/>
				<path class="st24" d="M228.14,180.26c0.97-0.36,1.94-0.72,2.92-1.06l2.95-0.97c1.98-0.59,3.98-1.16,5.98-1.69
					c2-0.56,4.02-1.01,6.04-1.5c2.02-0.44,4.05-0.9,6.08-1.3c8.13-1.64,16.33-2.89,24.57-3.85c16.48-1.89,33.11-2.61,49.73-2.12
					l6.23,0.26l6.23,0.38c2.08,0.12,4.15,0.35,6.22,0.52c2.07,0.17,4.14,0.39,6.21,0.64c2.07,0.24,4.13,0.48,6.19,0.79
					c2.06,0.3,4.13,0.56,6.18,0.93c2.05,0.36,4.11,0.7,6.15,1.08l6.12,1.26c8.13,1.81,16.18,4.06,24.01,6.91
					c3.92,1.4,7.77,3.01,11.54,4.74c1.87,0.92,3.75,1.79,5.59,2.74c1.81,1.02,3.63,2,5.42,3.04c-15.57-5.61-31.51-9.19-47.62-11.65
					c-8.06-1.21-16.16-2.1-24.28-2.78l-3.04-0.26c-1.01-0.09-2.03-0.14-3.05-0.22c-2.03-0.12-4.06-0.3-6.1-0.38l-6.11-0.32
					l-6.11-0.22c-16.31-0.49-32.66-0.3-49.01,0.49c-8.18,0.38-16.35,0.93-24.53,1.63c-2.05,0.15-4.08,0.39-6.13,0.56
					c-2.04,0.22-4.09,0.41-6.13,0.65c-2.05,0.21-4.08,0.49-6.12,0.76l-3.06,0.43L228.14,180.26z"/>
			</g>
		</g>
	</g>
	<path class="st27" d="M781.37,478.17c-3,3-6.09,5.92-9.24,8.78c-33.93,30.68-76.64,52.18-122,58.21
		c-69,9.17-137.77-17.26-199.22-49.89c-20.12-10.7-40.13-22.28-58.35-36.1c-9.99-7.57-19.44-15.81-28.07-24.98
		c-7.01-7.43-25.06-23.37-7.07-25.45c13.48-1.58,35.32,11.81,48.35,15.75c20.53,6.22,41.07,12.45,61.91,17.39
		c19.71,4.69,39.72,8.2,59.85,10.44c19.18,2.17,38.48,3.18,57.73,2.97c2.55-0.02,5.09-0.07,7.64-0.14c7.59-0.2,15.17-0.61,22.71-1.2
		c15.43-1.21,30.79-3.23,45.99-6.13c2.92-0.54,5.8-1.12,8.7-1.73c7.74-1.64,15.43-3.51,23.07-5.61c2.08-0.57,4.15-1.15,6.22-1.76
		c9.89,2.64,29.97,11.62,40.2,15.71C752.8,459.6,767.52,468.57,781.37,478.17z"/>
	<path class="st27" d="M848.04,374.25c-5.22,13.36-11.31,26.42-18.25,39c-6.01,10.88-12.63,21.4-19.9,31.46
		c-8.61,11.89-18.12,23.11-28.52,33.47c-13.85-9.6-28.57-18.57-41.57-23.75c-10.24-4.09-30.31-13.07-40.2-15.71
		c21.33-6.23,42.15-14.23,62.1-23.98c32.19-15.72,62.11-35.96,88.2-60.46C852.84,360.48,850.54,367.82,848.04,374.25z"/>
	<line class="st29" x1="288.95" y1="402.49" x2="337.28" y2="381.05"/>
	<line class="st29" x1="867.29" y1="354.19" x2="911.66" y2="382.91"/>
	<path class="st30" d="M830.11,412.26c-0.11,0.32-0.2,0.66-0.32,0.98c-15.14,27.49-34.37,52.68-57.65,73.71
		c-33.94,30.67-76.65,52.18-122,58.2c-69,9.18-137.77-17.26-199.22-49.89c-20.12-10.7-40.13-22.28-58.35-36.1
		c9.27-5.02,32.15,5.82,41.22,8.16c17.38,4.5,34.76,9,52.14,13.51c3.96,1.02,7.95,2.05,11.51,4.07c6.25,3.52,10.56,9.7,16.47,13.77
		c5.64,3.88,12.42,5.65,19.05,7.32c15.02,3.82,30.02,7.65,45.04,11.47c17.6,4.5,35.57,9.02,53.66,7.66
		c18.11-1.36,36.71-9.65,45.75-25.37c7.82,2.14,16.75-0.52,22.09-6.59c2.67-3.04,4.44-6.75,6.93-9.93
		c6.91-8.84,18.33-12.54,28.82-16.56C769.36,453.62,799.91,432.84,830.11,412.26z"/>
	<path class="st18" d="M854.93,494.9c7.33,7.93,14.66,15.86,21.99,23.78c0.48,0.52,0.99,1.11,1.04,1.82
		c0.04,0.6-0.25,1.16-0.56,1.68c-3.5,5.92-9.48,10.32-16.18,11.9c-4.81-5.8-10.23-11.09-16.14-15.76
		c-5.98-4.73-10.07-7.21-4.44-13.98C841.85,502.87,852.93,492.73,854.93,494.9z"/>
	
		<linearGradient id="SVGID_00000173855834628543146950000012818180797249919379_" gradientUnits="userSpaceOnUse" x1="585.2615" y1="456.2441" x2="868.941" y2="456.2441">
		<stop  offset="0" style="stop-color:#436BDD"/>
		<stop  offset="0.0757" style="stop-color:#486FDF"/>
		<stop  offset="0.6818" style="stop-color:#6E8CEE"/>
		<stop  offset="1" style="stop-color:#7D97F4"/>
	</linearGradient>
	<path style="fill:url(#SVGID_00000173855834628543146950000012818180797249919379_);" d="M831.89,517.1
		c-5.75-4.31-26.87-22.54-50.52-38.93c-13.85-9.6-28.57-18.57-41.57-23.75c-10.24-4.09-30.31-13.07-40.2-15.71
		c-2.75-0.73-4.71-0.97-5.45-0.49c-0.59,0.38-0.8,1.17-0.77,2.25c-7.64,2.1-15.33,3.97-23.07,5.61c-2.9,0.61-5.78,1.19-8.7,1.73
		c-15.2,2.9-30.56,4.91-45.99,6.13c-7.55,0.6-15.13,1-22.71,1.2c-2.55,0.07-5.09,0.12-7.64,0.14
		c30.92-28.93,61.57-59.52,107.98-62.59c17.91-1.19,42.93,8.33,68.45,22.03c16.45,8.84,33.12,19.42,48.2,29.98
		c2.36,1.65,4.7,3.31,6.98,4.96c25.02,18.05,44.51,35.23,49.38,42.49C878.75,510.86,844.39,526.46,831.89,517.1z"/>
	<path class="st10" d="M861.55,529.47c5.34-0.03,10.6-2.77,13.69-7.12c0.7-0.99,1.32-2.08,2.3-2.81c2.41-1.78,5.8-0.64,8.54,0.58
		c11.89,5.3,24.23,11.15,37.23,10.43c3.93-0.22,9.06-0.38,10.48,3.28c0.83,2.12-0.17,4.52,0.19,6.77c0.17,1.07,0.65,2.11,0.58,3.19
		c-0.1,1.69-1.47,3.01-2.82,4.04c-12.18,9.29-28.86,9.24-44.18,8.78c-7.94-0.24-15.88-0.48-23.83-0.71
		c-1.1-0.03-2.28-0.09-3.16-0.75c-2.34-1.76-0.56-5.43-0.82-8.34C859.16,540.26,846.7,529.55,861.55,529.47z"/>
	<path class="st32" d="M381.07,395.29c-0.05,7.3,6.15,37.12,9.46,43.63c8.24,16.17,34.26,30.52,52.42,29.72
		c18.15-0.8,35.2-8.56,51.52-16.52c17.77-8.66,35.76-18.06,48.9-32.81c6.53-7.33,11.71-15.83,18.66-22.76
		c6.96-6.93,16.44-12.33,26.19-11.14c0.01-7.71,0.01-15.42,0.02-23.13c0-2.6-0.13-5.54-2.07-7.29c-1.53-1.39-3.77-1.61-5.84-1.63
		c-27.97-0.25-49.69,22.67-71.14,40.59c-10.31,8.61-21.33,16.39-32.9,23.22c-4.89,2.89-10.03,5.66-15.66,6.38
		c-5.63,0.72-11.91-1.02-15.18-5.66c-8.27-11.71-15.68-66.67-39.49-63.2C387.85,357.35,381.17,380.3,381.07,395.29z"/>
	<path class="st17" d="M602.85,349.89c0.71-6.55,0.32-13.23,1.74-19.66c0.19-0.85,0.42-1.71,0.95-2.4c0.54-0.7,1.34-1.14,2.12-1.55
		c2.1-1.12,4.45-2.2,6.78-1.73c1.78,0.36,3.28,1.6,5.05,2.04c2.76,0.7,5.89-0.84,7.09-3.42c-4.8-1.73-9.79-2.96-14.84-3.67
		c-0.77-0.11-1.58-0.2-2.32,0.06c-0.72,0.25,0.25,0.8-0.43,0.45c-1.73-0.91-6.78,0.51-9.37,3.14c-1.85,1.88-3.54,9.5-4.47,11.97
		c-0.69,1.83-0.8,3.82-0.9,5.78c-0.22,4.28-0.45,8.56-0.67,12.84c-0.14,2.71-1.68,8.43,0.73,10.42
		C599.77,368.65,602.54,352.76,602.85,349.89z"/>
	<path class="st18" d="M599.27,340.83c-0.3-5.67,0.18-7.38,1.15-9.36c1.4-2.85,4.89-4.95,7.82-3.7c0.97,0.41,1.77,1.14,2.73,1.56
		c3.18,1.42,7.35-1.67,6.91-5.12c-4.89-0.7-9.79-1.37-14.69-2.01c-1.53-0.2-3.15-0.39-4.59,0.18c-1.68,0.66-2.69,1.89-3.32,2.74
		c-3.33,4.46-4.83,9.78-5.03,10.51c-3.08,11.25-1.92,10.39-3.1,12.48c-4.05,7.2-11.43,6.1-12.81,11.71
		c-0.92,3.73,1.58,7.34,3.93,10.73c2.56,3.7,7.2,8.24,9.36,7.17c1.84-0.92-0.08-4.95,2.69-7.79c1.92-1.96,3.86-1.07,6.24-3.13
		c0.84-0.72,2.15-2.18,3.11-6.24C601.05,354.75,599.84,351.47,599.27,340.83z"/>
	<path class="st17" d="M610.32,350.14c1.8-0.83,3.33-2.19,4.31-3.86c0.79-1.36,1.05-3.38-0.34-4.19c-0.92-0.54-2.15-0.22-3.04,0.37
		c-0.88,0.59-1.56,1.43-2.41,2.07c-1.38,1.05-3.21,1.54-4.97,1.33c-0.46-0.05-0.95-0.15-1.34,0.09c-0.36,0.21-0.51,0.63-0.62,1.02
		c-0.52,1.7-3.84,9.22,0.13,9.12c1.67-0.04,2.12-2.13,3.07-3.13C606.59,351.41,608.41,351.01,610.32,350.14z"/>
	<path class="st18" d="M590.85,289.57c-0.33,8.28,2.64,10.11,5.61,11.94c2.97,1.83,9.96,1.73,13.32,3.96s-2,8.13-7.1,4.48
		s-10.84,5.89-18.71-1.41C576.11,301.24,590.85,289.57,590.85,289.57z"/>
	
		<linearGradient id="SVGID_00000152980697042445259610000015980628443273159070_" gradientUnits="userSpaceOnUse" x1="418.9181" y1="345.6483" x2="419.7186" y2="331.4674">
		<stop  offset="0" style="stop-color:#FCB2AF"/>
		<stop  offset="0.1383" style="stop-color:#F9AFAC"/>
		<stop  offset="0.856" style="stop-color:#EAA0A0"/>
	</linearGradient>
	<path style="fill:url(#SVGID_00000152980697042445259610000015980628443273159070_);" d="M416.69,353.05
		c7.98-3.75,9.26,0.37,18.45-2.64s11.31-6.95,9.78-9.88s-16.44-13.38-18.98-19.08c-2.54-5.7-22.86-18.28-28.57-15.75
		c-5.71,2.53-1.77,17.67,3.54,24.74c2.58,3.43,13.05,24.03,13.05,24.03L416.69,353.05z"/>
	<g>
		
			<linearGradient id="SVGID_00000126312306662288113400000009328854990401573055_" gradientUnits="userSpaceOnUse" x1="365.5005" y1="349.2526" x2="448.2365" y2="349.2526" gradientTransform="matrix(1.0576 -0.2368 0.2422 1.0816 -102.9003 -8.6275)">
			<stop  offset="0" style="stop-color:#190F8C"/>
			<stop  offset="0.5958" style="stop-color:#0F0770"/>
			<stop  offset="1" style="stop-color:#0A0362"/>
		</linearGradient>
		<path style="fill:url(#SVGID_00000126312306662288113400000009328854990401573055_);" d="M456.04,264.39
			c1.13,4.28-0.35,9.43-4.02,11.45c-2.26-3.74-1.75-9.03-3.72-12.73c-0.36-0.7-0.81-1.31-1.35-1.86c-0.36-0.38-0.78-0.68-1.24-0.75
			c-0.67-0.06-1.26,0.42-1.79,0.83c-3.9,2.86-9.7,2.38-13.25-1.08c-0.93-0.89-2.23-2.05-3.24-1.29c-0.5,0.4-0.64,1.17-0.76,1.87
			c-10.85,1.61-22.37,3.76-24.28,5.78c-3.75,4.02-6.25-0.16-4.22,8.88s0.77,17.22,0.77,17.22l-2.94,0.66
			c-0.91-10.88-5.2-16.23-8.48-17.09c-3.31-0.85-9.2,0.46-7.84,6.5c1.35,6.04,1.55,13.89,8.82,18.6c0,0,0.79,8.32,5.97,17.01
			c-0.44,0.03-0.92,0.06-1.4,0.1c-5.92-0.73-11.33-4.41-15.25-9.2c-6.29-7.77-8.96-18.61-7.05-28.49c0.35-1.85,0.9-3.74,2.06-5.21
			c0.67-0.86,1.56-1.55,2.06-2.58c0.65-1.42,0.33-3.16,0.11-4.77c-0.79-6.62,1.17-13.51,5.29-18.5c4.12-4.99,10.32-7.97,16.63-8
			c0.73,0.01,1.46,0.03,2.14-0.2c1.08-0.31,1.88-1.2,2.67-2.01c5.34-5.41,12.11-9.75,19.55-10.14c7.47-0.43,15.48,3.91,18.09,11.33
			c3.06-2.14,7.67-0.62,9.57,2.75c1.93,3.36,1.34,7.85-0.84,10.95C451.68,256.68,454.91,260.11,456.04,264.39z"/>
		<path class="st35" d="M452.95,322.6c-0.98,9.74-4.92,15.71-22.22,15.19c-20.11-0.39-30.73-10.13-36.28-19.41
			c-0.73-1.21-1.35-2.41-1.9-3.57c-0.02-0.02-0.01-0.04-0.01-0.04c-3.46-7.24-4.05-13.39-4.05-13.39
			c-7.27-4.72-7.46-12.57-8.82-18.61c-1.34-6.04,4.52-7.35,7.83-6.49c3.29,0.86,7.58,6.21,8.48,17.09l2.95-0.67
			c0,0,1.25-8.17-0.78-17.21c-2.03-9.04,0.47-4.85,4.22-8.87c1.9-2.02,13.43-4.18,24.28-5.79c0.11-0.7,0.24-1.47,0.75-1.88
			c1.02-0.75,2.31,0.42,3.25,1.3c3.55,3.46,9.34,3.94,13.26,1.08c0.52-0.41,1.11-0.88,1.78-0.83c0.47,0.08,0.89,0.38,1.26,0.75
			c0.53,0.55,0.98,1.17,1.35,1.86c5.28,21.37,5.38,46.59,4.84,57.02C453.09,320.98,453.04,321.81,452.95,322.6z"/>
		
			<linearGradient id="SVGID_00000016753408781793405440000006415538666441260199_" gradientUnits="userSpaceOnUse" x1="393.6501" y1="279.2134" x2="396.7741" y2="279.2134" gradientTransform="matrix(0.9946 0.1038 -0.1038 0.9946 23.0079 -20.5859)">
			<stop  offset="0" style="stop-color:#190F8C"/>
			<stop  offset="0.5958" style="stop-color:#0F0770"/>
			<stop  offset="1" style="stop-color:#0A0362"/>
		</linearGradient>
		
			<ellipse style="fill:url(#SVGID_00000016753408781793405440000006415538666441260199_);" cx="387.1" cy="298.14" rx="1.56" ry="1.56"/>
		
			<linearGradient id="SVGID_00000036943075983278938800000013770041484627356078_" gradientUnits="userSpaceOnUse" x1="411.5423" y1="243.0701" x2="417.5705" y2="243.0701" gradientTransform="matrix(0.9946 0.1038 -0.1038 0.9946 23.0079 -20.5859)">
			<stop  offset="0" style="stop-color:#190F8C"/>
			<stop  offset="0.5958" style="stop-color:#0F0770"/>
			<stop  offset="1" style="stop-color:#0A0362"/>
		</linearGradient>
		<path style="fill:url(#SVGID_00000036943075983278938800000013770041484627356078_);" d="M411.1,268.07
			c-0.65,0.48-1.47,0.83-2.26,0.64c-0.29-0.07-0.59-0.23-0.71-0.51c-0.12-0.28,0.02-0.67,0.32-0.72c0.1-0.02,0.2,0,0.3,0.01
			c0.51,0.02,0.96-0.37,1.16-0.83s0.22-0.98,0.23-1.49c0.01-0.44,0-0.92-0.27-1.27c-0.24-0.3-0.64-0.42-1.02-0.53
			c-0.55-0.16-1.14-0.31-1.68-0.12c0.11-1.14,0.75-2.21,1.69-2.85c0.83-0.57,2.42-1.04,3.38-0.5c0.83,0.47,0.72,1.15,0.82,2.01
			C413.32,264.25,413.15,266.54,411.1,268.07z"/>
		
			<linearGradient id="SVGID_00000025425302257070662570000013391992999071880584_" gradientUnits="userSpaceOnUse" x1="421.3974" y1="262.8324" x2="437.7288" y2="262.8324" gradientTransform="matrix(0.9946 0.1038 -0.1038 0.9946 23.0079 -20.5859)">
			<stop  offset="0" style="stop-color:#190F8C"/>
			<stop  offset="0.5958" style="stop-color:#0F0770"/>
			<stop  offset="1" style="stop-color:#0A0362"/>
		</linearGradient>
		<path style="fill:url(#SVGID_00000025425302257070662570000013391992999071880584_);" d="M418.07,287.24
			c2.95-1.44,6.36-1.81,9.69-1.74c0.79,0.02,1.61,0.05,2.33-0.27c1.47-0.65,1.79-2.86,0.57-3.9c-1.19-1.01-3.02-0.71-4.54-0.3
			c-2.67,0.72-5.33,1.6-7.6,3.12c-1.54,1.04-3.69,2.88-4.09,4.76c-0.3,1.41,0.03,1.1,0.92,0.35
			C416.25,288.51,416.98,287.78,418.07,287.24z"/>
		
			<linearGradient id="SVGID_00000158729502127936760140000002270539730195055499_" gradientUnits="userSpaceOnUse" x1="-81.6149" y1="332.9238" x2="-67.0527" y2="332.9238" gradientTransform="matrix(-0.668 0.1218 0.1636 0.8975 341.6566 -3.925)">
			<stop  offset="0" style="stop-color:#190F8C"/>
			<stop  offset="0.5958" style="stop-color:#0F0770"/>
			<stop  offset="1" style="stop-color:#0A0362"/>
		</linearGradient>
		<path style="fill:url(#SVGID_00000158729502127936760140000002270539730195055499_);" d="M448.96,287.39
			c-1.94-1.26-4.06-1.54-6.08-1.43c-0.48,0.03-0.98,0.07-1.45-0.21c-0.96-0.57-1.38-2.56-0.74-3.51c0.62-0.93,1.77-0.69,2.73-0.34
			c1.7,0.61,3.41,1.37,4.95,2.71c1.04,0.92,2.54,2.55,2.97,4.24c0.33,1.27,0.09,0.99-0.53,0.33
			C450.19,288.5,449.68,287.85,448.96,287.39z"/>
		<path class="st16" d="M420.15,292.67c1.82-1.09,4-1.66,6.09-1.29c1.44,0.26,2.88,1.05,3.51,2.37c-0.65,0.53-1.58,0.46-2.42,0.41
			c-1.93-0.12-3.87-0.03-5.79,0.26c-1.16,0.18-3.39,1.27-4.44,0.82C417.82,294.2,419.06,293.32,420.15,292.67z"/>
		<path class="st16" d="M447.2,293.04c-1.4-1.03-3-1.54-4.42-1.11c-0.99,0.29-1.91,1.11-2.19,2.45c0.52,0.51,1.16,0.42,1.74,0.34
			c1.34-0.17,2.72-0.14,4.09,0.11c0.84,0.15,2.52,1.17,3.22,0.69C449.02,294.5,448.04,293.65,447.2,293.04z"/>
		<path class="st40" d="M452.95,322.6c-0.98,9.74-4.92,15.71-22.22,15.19c-20.11-0.39-30.73-10.13-36.28-19.41
			c-0.73-1.21-1.35-2.41-1.9-3.57c-0.02-0.02-0.01-0.04-0.01-0.04c-0.37-2.06,0.49-4.18,1.37-6.09c2.12-4.65,3.86-9.01,3.01-14.18
			c2.1-1.02,2.54,0.25,2.89,2.02c0.37,1.9,0.91,3.75,1.59,5.57c1.35,3.57,3.3,6.92,5.73,9.85c1.41,1.69,2.97,3.24,4.66,4.61
			c0.59,0.47,1.49,0.92,2.01,0.37c0.4-0.44,0.21-1.12,0.07-1.68c-0.48-2.09,0.43-4.43,2.19-5.65c-0.03,7.09,4.9,13.92,11.63,16.15
			c0.8-0.15,1.02-1.26,0.65-1.98s-1.09-1.18-1.61-1.78c-1.59-1.82-1.26-4.96,0.68-6.38c0.6-0.44,1.28-0.7,1.97-0.95
			c4.71-1.66,9.92-1.92,14.78-0.72c2.12,0.52,4.55,1.79,4.61,3.96c0.03,1.09-0.56,2.07-0.81,3.11c-0.24,1.06,0.07,2.44,1.11,2.69
			c0.4,0.11,0.82,0.03,1.22-0.09C451.2,323.36,452.11,323.03,452.95,322.6z"/>
		<path class="st41" d="M445.44,317.88c0.38-0.14,0.88-0.27,1.13,0.05c0.17,0.22,0.11,0.54,0.02,0.81c-0.94,2.93-3.73,5.17-6.8,5.47
			c-2.67,0.26-5.23-0.83-7.45-2.21c-1.08-0.67-3.1-2.56-1.2-3.71c0.77-0.46,2.17,0.06,2.99,0.18c1.24,0.18,2.49,0.32,3.75,0.38
			C440.42,318.97,443.02,318.77,445.44,317.88z"/>
		<path class="st35" d="M435.96,326.33c0.11,0.01,0.22,0.02,0.3,0.09c0.21,0.15,0.13,0.49-0.02,0.7c-0.15,0.21-0.37,0.39-0.41,0.65
			c-0.06,0.39,0.32,0.69,0.66,0.89c1.08,0.64,2.2,1.19,3.36,1.66c0.35,0.14,0.76,0.28,1.11,0.12c0.22-0.1,0.38-0.3,0.53-0.5
			c0.36-0.48,0.73-0.97,1.09-1.45c0.29-0.38,0.57-0.96,0.22-1.29c0.45-0.28,0.93-0.57,1.47-0.58c0.53-0.01,1.11,0.4,1.08,0.93
			c-0.02,0.35-0.28,0.63-0.52,0.88c-0.61,0.62-1.21,1.24-1.82,1.86c-0.6,0.62-1.27,1.27-2.13,1.36c-0.58,0.06-1.15-0.14-1.69-0.35
			c-1.99-0.78-5.34-1.85-6.8-3.46C430.24,325.43,434.78,326.2,435.96,326.33z"/>
		<path class="st42" d="M427.43,310.95c1.82-1.87,4.1-3.24,5.98-5.06c0.09,1.28-1.92,2.2-1.44,3.39c0.22,0.54,0.85,0.75,1.41,0.88
			c2.47,0.58,5.04,0.72,7.56,0.42c0.63-0.08,1.3-0.19,1.78-0.61c0.91-0.79,0.73-2.33-0.01-3.28c2.61,1.8,4.69,4.36,5.92,7.27
			c-0.33-1.17-1.33-2.06-2.45-2.52c-1.12-0.47-2.36-0.57-3.57-0.61c-3.5-0.11-7.01,0.27-10.4,1.13c-2.92,0.74-5.67,1.98-7.49,4.46
			C424.89,314.33,425.98,312.44,427.43,310.95z"/>
		<circle class="st43" cx="412.58" cy="297.7" r="0.88"/>
	</g>
	<g>
		
			<linearGradient id="SVGID_00000018212533097700264040000011549275328806515621_" gradientUnits="userSpaceOnUse" x1="1160.4991" y1="-406.7679" x2="1169.0662" y2="-406.7679" gradientTransform="matrix(0.5834 0.8122 -0.8122 0.5834 -359.5546 -405.657)">
			<stop  offset="0" style="stop-color:#190F8C"/>
			<stop  offset="0.5958" style="stop-color:#0F0770"/>
			<stop  offset="1" style="stop-color:#0A0362"/>
		</linearGradient>
		<path style="fill:url(#SVGID_00000018212533097700264040000011549275328806515621_);" d="M649.56,306.32l-2.59-3.6
			c-0.67-0.93-0.45-2.22,0.47-2.89l0.89-0.64c0.93-0.67,2.22-0.45,2.89,0.47l2.59,3.6c0.67,0.93,0.45,2.22-0.47,2.89l-0.89,0.64
			C651.52,307.46,650.23,307.25,649.56,306.32z"/>
		
			<linearGradient id="SVGID_00000111161412840626320610000004214915847806444727_" gradientUnits="userSpaceOnUse" x1="1151.2958" y1="-417.0886" x2="1159.8627" y2="-417.0886" gradientTransform="matrix(0.5961 0.8298 -0.8474 0.6087 -384.8514 -392.7874)">
			<stop  offset="0" style="stop-color:#190F8C"/>
			<stop  offset="0.5958" style="stop-color:#0F0770"/>
			<stop  offset="1" style="stop-color:#0A0362"/>
		</linearGradient>
		<path style="fill:url(#SVGID_00000111161412840626320610000004214915847806444727_);" d="M656.56,315.65l-2.69-3.75
			c-0.67-0.93-0.45-2.22,0.47-2.89l1.08-0.77c0.93-0.67,2.22-0.45,2.89,0.47l2.69,3.75c0.67,0.93,0.45,2.22-0.47,2.89l-1.08,0.77
			C658.52,316.79,657.23,316.58,656.56,315.65z"/>
		
			<linearGradient id="SVGID_00000013872948485834001390000018301107467708731320_" gradientUnits="userSpaceOnUse" x1="1142.4752" y1="-426.5858" x2="1151.0421" y2="-426.5858" gradientTransform="matrix(0.6088 0.8474 -0.8826 0.634 -410.1483 -379.9177)">
			<stop  offset="0" style="stop-color:#190F8C"/>
			<stop  offset="0.5958" style="stop-color:#0F0770"/>
			<stop  offset="1" style="stop-color:#0A0362"/>
		</linearGradient>
		<path style="fill:url(#SVGID_00000013872948485834001390000018301107467708731320_);" d="M663.56,324.99l-2.8-3.9
			c-0.67-0.93-0.45-2.22,0.47-2.89l1.26-0.91c0.93-0.67,2.22-0.45,2.89,0.47l2.8,3.9c0.67,0.93,0.45,2.22-0.47,2.89l-1.26,0.91
			C665.52,326.13,664.23,325.91,663.56,324.99z"/>
		
			<linearGradient id="SVGID_00000106866087068685424680000015573924229924211115_" gradientUnits="userSpaceOnUse" x1="1134.014" y1="-435.3541" x2="1142.5811" y2="-435.3541" gradientTransform="matrix(0.6214 0.865 -0.9178 0.6593 -435.4452 -367.0481)">
			<stop  offset="0" style="stop-color:#190F8C"/>
			<stop  offset="0.5958" style="stop-color:#0F0770"/>
			<stop  offset="1" style="stop-color:#0A0362"/>
		</linearGradient>
		<path style="fill:url(#SVGID_00000106866087068685424680000015573924229924211115_);" d="M670.56,334.32l-2.91-4.05
			c-0.67-0.93-0.45-2.22,0.47-2.89l1.45-1.04c0.93-0.67,2.22-0.45,2.89,0.47l2.91,4.05c0.67,0.93,0.45,2.22-0.47,2.89l-1.45,1.04
			C672.52,335.46,671.23,335.25,670.56,334.32z"/>
	</g>
	<g>
		
			<linearGradient id="SVGID_00000098205208703582534470000010008788901767508116_" gradientUnits="userSpaceOnUse" x1="1172.9048" y1="-480.7958" x2="1181.4718" y2="-480.7958" gradientTransform="matrix(0.5149 0.8573 -0.8573 0.5149 -374.7155 -455.4319)">
			<stop  offset="0" style="stop-color:#190F8C"/>
			<stop  offset="0.5958" style="stop-color:#0F0770"/>
			<stop  offset="1" style="stop-color:#0A0362"/>
		</linearGradient>
		<path style="fill:url(#SVGID_00000098205208703582534470000010008788901767508116_);" d="M642.47,309.4l-2.28-3.8
			c-0.59-0.98-0.27-2.25,0.71-2.84l0.94-0.57c0.98-0.59,2.25-0.27,2.84,0.71l2.28,3.8c0.59,0.98,0.27,2.25-0.71,2.84l-0.94,0.57
			C644.33,310.7,643.06,310.38,642.47,309.4z"/>
		
			<linearGradient id="SVGID_00000110460065837610386850000005584982942140349628_" gradientUnits="userSpaceOnUse" x1="1163.4377" y1="-488.04" x2="1172.0048" y2="-488.04" gradientTransform="matrix(0.5261 0.8759 -0.8944 0.5372 -400.9824 -444.6797)">
			<stop  offset="0" style="stop-color:#190F8C"/>
			<stop  offset="0.5958" style="stop-color:#0F0770"/>
			<stop  offset="1" style="stop-color:#0A0362"/>
		</linearGradient>
		<path style="fill:url(#SVGID_00000110460065837610386850000005584982942140349628_);" d="M648.68,319.28l-2.38-3.96
			c-0.59-0.98-0.27-2.25,0.71-2.84l1.14-0.68c0.98-0.59,2.25-0.27,2.84,0.71l2.38,3.96c0.59,0.98,0.27,2.25-0.71,2.84l-1.14,0.68
			C650.54,320.58,649.27,320.26,648.68,319.28z"/>
		
			<linearGradient id="SVGID_00000127740205536942407660000009036275732869361077_" gradientUnits="userSpaceOnUse" x1="1154.3646" y1="-494.7061" x2="1162.9316" y2="-494.7061" gradientTransform="matrix(0.5372 0.8945 -0.9316 0.5595 -427.2493 -433.9275)">
			<stop  offset="0" style="stop-color:#190F8C"/>
			<stop  offset="0.5958" style="stop-color:#0F0770"/>
			<stop  offset="1" style="stop-color:#0A0362"/>
		</linearGradient>
		<path style="fill:url(#SVGID_00000127740205536942407660000009036275732869361077_);" d="M654.9,329.16l-2.47-4.12
			c-0.59-0.98-0.27-2.25,0.71-2.84l1.33-0.8c0.98-0.59,2.25-0.27,2.84,0.71l2.47,4.12c0.59,0.98,0.27,2.25-0.71,2.84l-1.33,0.8
			C656.75,330.45,655.48,330.14,654.9,329.16z"/>
		
			<linearGradient id="SVGID_00000128459093044019833610000003215960026770479522_" gradientUnits="userSpaceOnUse" x1="1145.6613" y1="-500.8605" x2="1154.2283" y2="-500.8605" gradientTransform="matrix(0.5484 0.9131 -0.9688 0.5819 -453.5162 -423.1753)">
			<stop  offset="0" style="stop-color:#190F8C"/>
			<stop  offset="0.5958" style="stop-color:#0F0770"/>
			<stop  offset="1" style="stop-color:#0A0362"/>
		</linearGradient>
		<path style="fill:url(#SVGID_00000128459093044019833610000003215960026770479522_);" d="M661.11,339.03l-2.57-4.28
			c-0.59-0.98-0.27-2.25,0.71-2.84l1.53-0.92c0.98-0.59,2.25-0.27,2.84,0.71l2.57,4.28c0.59,0.98,0.27,2.25-0.71,2.84l-1.53,0.92
			C662.97,340.33,661.7,340.01,661.11,339.03z"/>
	</g>
	<g>
		
			<linearGradient id="SVGID_00000017481121356044501410000000364847397518007433_" gradientUnits="userSpaceOnUse" x1="1178.1404" y1="-533.167" x2="1186.7074" y2="-533.167" gradientTransform="matrix(0.4624 0.8867 -0.8867 0.4624 -383.0387 -492.2449)">
			<stop  offset="0" style="stop-color:#190F8C"/>
			<stop  offset="0.5958" style="stop-color:#0F0770"/>
			<stop  offset="1" style="stop-color:#0A0362"/>
		</linearGradient>
		<path style="fill:url(#SVGID_00000017481121356044501410000000364847397518007433_);" d="M635.19,312.78l-2.05-3.93
			c-0.53-1.01-0.14-2.26,0.88-2.79l0.97-0.51c1.01-0.53,2.26-0.14,2.79,0.88l2.05,3.93c0.53,1.01,0.14,2.26-0.88,2.79l-0.97,0.51
			C636.97,314.19,635.72,313.79,635.19,312.78z"/>
		
			<linearGradient id="SVGID_00000142896246202708959490000007893232236377794435_" gradientUnits="userSpaceOnUse" x1="1168.5621" y1="-538.2346" x2="1177.1292" y2="-538.2346" gradientTransform="matrix(0.4725 0.9059 -0.9251 0.4825 -409.9045 -483.0912)">
			<stop  offset="0" style="stop-color:#190F8C"/>
			<stop  offset="0.5958" style="stop-color:#0F0770"/>
			<stop  offset="1" style="stop-color:#0A0362"/>
		</linearGradient>
		<path style="fill:url(#SVGID_00000142896246202708959490000007893232236377794435_);" d="M640.79,323.01l-2.14-4.09
			c-0.53-1.01-0.14-2.26,0.88-2.79l1.18-0.61c1.01-0.53,2.26-0.14,2.79,0.88l2.14,4.09c0.53,1.01,0.14,2.26-0.88,2.79l-1.18,0.61
			C642.57,324.42,641.32,324.03,640.79,323.01z"/>
		
			<linearGradient id="SVGID_00000154412299187160230750000005858098478664532140_" gradientUnits="userSpaceOnUse" x1="1159.3823" y1="-542.8978" x2="1167.9493" y2="-542.8978" gradientTransform="matrix(0.4825 0.9251 -0.9636 0.5025 -436.7702 -473.9375)">
			<stop  offset="0" style="stop-color:#190F8C"/>
			<stop  offset="0.5958" style="stop-color:#0F0770"/>
			<stop  offset="1" style="stop-color:#0A0362"/>
		</linearGradient>
		<path style="fill:url(#SVGID_00000154412299187160230750000005858098478664532140_);" d="M646.4,333.24l-2.22-4.26
			c-0.53-1.01-0.14-2.26,0.88-2.79l1.38-0.72c1.01-0.53,2.26-0.14,2.79,0.88l2.22,4.26c0.53,1.01,0.14,2.26-0.88,2.79l-1.38,0.72
			C648.18,334.65,646.93,334.26,646.4,333.24z"/>
		
			<linearGradient id="SVGID_00000131328863599247355140000002589502926492754307_" gradientUnits="userSpaceOnUse" x1="1150.5768" y1="-547.2031" x2="1159.1438" y2="-547.2031" gradientTransform="matrix(0.4925 0.9444 -1.002 0.5226 -463.636 -464.7838)">
			<stop  offset="0" style="stop-color:#190F8C"/>
			<stop  offset="0.5958" style="stop-color:#0F0770"/>
			<stop  offset="1" style="stop-color:#0A0362"/>
		</linearGradient>
		<path style="fill:url(#SVGID_00000131328863599247355140000002589502926492754307_);" d="M652.01,343.48l-2.31-4.42
			c-0.53-1.01-0.14-2.26,0.88-2.79l1.58-0.82c1.01-0.53,2.26-0.14,2.79,0.88l2.31,4.42c0.53,1.01,0.14,2.26-0.88,2.79l-1.58,0.82
			C653.78,344.88,652.53,344.49,652.01,343.48z"/>
	</g>
	
		<radialGradient id="SVGID_00000160891620068307684690000010976369234684679297_" cx="673.8639" cy="279.7968" r="105.7071" gradientUnits="userSpaceOnUse">
		<stop  offset="0" style="stop-color:#FFFFFF"/>
		<stop  offset="1" style="stop-color:#FFFFFF;stop-opacity:0"/>
	</radialGradient>
	<path style="opacity:0.21;fill:url(#SVGID_00000160891620068307684690000010976369234684679297_);" d="M649.83,250.06l-87.59-8.92
		c0,0-20,53,17,106l104.45-29.79C683.7,317.35,677.42,264.98,649.83,250.06"/>
</g>
</svg>
