<?xml version="1.0" encoding="utf-8"?>
<!-- Generator: Adobe Illustrator 25.4.1, SVG Export Plug-In . SVG Version: 6.00 Build 0)  -->
<svg version="1.1" id="Calque_1" xmlns="http://www.w3.org/2000/svg" xmlns:xlink="http://www.w3.org/1999/xlink" x="0px" y="0px"
	 viewBox="0 0 1175 700" style="enable-background:new 0 0 1175 700;" xml:space="preserve">
<style type="text/css">
	.st0{opacity:0.15;fill:url(#SVGID_1_);}
	.st1{fill:#666666;}
	.st2{opacity:0.5;fill:url(#SVGID_00000121998248353983499570000009735144409602798235_);}
	.st3{opacity:0.15;fill:url(#SVGID_00000070812298554004563620000009881083756750790325_);}
	.st4{opacity:0.15;fill:url(#SVGID_00000081639638872752537830000011689222825386889612_);}
	.st5{opacity:0.15;fill:url(#SVGID_00000138569785195965774670000009350665095899997581_);}
	.st6{fill:#F2A0B6;}
	.st7{fill:url(#SVGID_00000050640666674990766110000017268665540972407974_);}
	.st8{fill:url(#SVGID_00000129166632523202242720000001508641230208164261_);}
	.st9{fill:#DE605E;}
	.st10{fill:url(#SVGID_00000011749359711346944360000008846811141491213461_);}
	.st11{fill:url(#SVGID_00000139257447375814691530000001522102559311968422_);}
	.st12{fill:url(#SVGID_00000109739560974207791250000008730715686933079993_);}
	.st13{fill:url(#SVGID_00000052102284788894268190000004118007050851137958_);}
	.st14{fill:url(#SVGID_00000049216142276940020440000014711569877444658821_);}
	.st15{fill:url(#SVGID_00000177455403650052637830000010984141688256649654_);}
	.st16{fill:#7D97F4;}
	.st17{fill:none;stroke:#242755;stroke-width:3;stroke-linecap:round;stroke-miterlimit:10;}
	.st18{fill:#FCB2AF;}
	.st19{fill:url(#SVGID_00000158713169921763843780000015764927055440914073_);}
	.st20{fill:url(#SVGID_00000173120437592555522520000012156959689719895201_);}
	.st21{fill:#F9EEE1;}
	.st22{fill:#FFFFFF;}
	.st23{fill:url(#SVGID_00000060032702312045106500000012448009652375219645_);}
	.st24{fill:url(#SVGID_00000005947667564938222340000013503323009392177051_);}
	.st25{fill:url(#SVGID_00000074408971398068374560000000528082282069713037_);}
	.st26{fill:url(#SVGID_00000121979937616073007770000010334860280055146941_);}
	.st27{fill:#C99797;}
	.st28{fill:#F2D7DE;}
	.st29{fill:#EAA0A0;}
</style>
<linearGradient id="SVGID_1_" gradientUnits="userSpaceOnUse" x1="615.302" y1="531.9911" x2="602.8194" y2="-30.6165" gradientTransform="matrix(1.1851 0.0312 0.0312 1.0664 -45.1792 5.3376)">
	<stop  offset="0" style="stop-color:#BDD0FB"/>
	<stop  offset="1" style="stop-color:#9FA3FB"/>
</linearGradient>
<path class="st0" d="M657.17,7.51c-3.72,2.21-6.42,5.5-8.91,8.81c-7.11,9.45-13.09,19.61-17.83,30.27c-1.42,3.19-2.62,7.1-0.24,9.99
	c2.95,3.58,8.95,2.86,13.5,1.59c23.02-6.4,44.59-16.4,63.48-29.43c3.12-2.15,6.48-5.3,5.2-8.79c-0.51-1.39-1.7-2.52-2.92-3.53
	C697.67,6.68,670.89-0.63,657.17,7.51z"/>
<ellipse class="st1" cx="599.29" cy="689.73" rx="355.3" ry="9.11"/>
<g>
	
		<linearGradient id="SVGID_00000163039664094654396850000004216766244873790119_" gradientUnits="userSpaceOnUse" x1="616.6417" y1="597.1461" x2="602.841" y2="-24.8715">
		<stop  offset="0" style="stop-color:#BDD0FB"/>
		<stop  offset="1" style="stop-color:#9FA3FB"/>
	</linearGradient>
	<path style="opacity:0.5;fill:url(#SVGID_00000163039664094654396850000004216766244873790119_);" d="M772.4,404.74
		c33.86,3.78,62.81-16.68,95.05-24.37c9.51-2.27,19.89-3.4,29.51-0.53c9.63,2.88,18.13,10.66,18.26,19.35
		c0.08,5.35-2.86,10.21-6.12,14.58c-32.23,43.31-96.84,58.71-138.8,95.01c18.17,1.04,36.36-2.84,51.41-10.96
		c-3.01,18.27-21.88,30.38-40.07,39.36c-26.6,13.12-54.95,23.77-84.41,31.69c-10.29,2.77-21.39,5.21-32.04,2.47
		c-10.64-2.73-20.03-12.62-17-21.6c2.84-8.39,13.96-11.6,21.96-16.74c8-5.16,11.71-18.18,2.07-21.61c-4.9-1.75-10.14,0.42-14.6,2.52
		c-42.63,20.04-87.27,37.05-133.36,50.82c-7.21,2.15-14.83,4.26-22.53,3.05c-15.97-2.48-25.84-19.01-23.39-32.68
		c2.46-13.67,13.87-24.45,26.28-32.72c12.41-8.28,26.39-14.96,37.22-24.76c2.08-1.9,4.15-4.09,4.3-6.78
		c0.25-4.39-4.91-8.11-9.98-8.71c-5.06-0.6-9.94,1.04-14.59,2.58c-40.97,13.62-84.22,22.63-128.38,26.75
		c-10.38,0.97-21.31,1.61-31.18-2.02c-19.52-7.2-27.57-29.24-22.48-46.49c5.09-17.26,19.83-30.58,34.67-42.52
		c18.04-14.52,37.01-28.16,56.84-40.83c23.72-15.18,50.56-31.44,55.96-57.02c0.51-2.41,0.76-5.09-0.76-7.25
		c-1.93-2.76-5.99-3.7-9.61-4.07c-23.66-2.46-45.5,7.57-67.12,14.97c-27.37,9.37-56.72,14.84-86.57,16.15
		c-10.15,0.43-21.24,0.15-29.59-5.34c-12.41-8.15-13.07-24.83-5.53-35.88c7.53-11.05,20.92-17.82,33.79-24.16
		c50.56-24.91,101.11-49.82,151.68-74.73c-17.85-12.82-43.56-7.36-64.28-0.63c-20.72,6.72-45.23,13.74-64.66,2.88
		c24.16-16.46,48.33-32.92,72.5-49.38c2.98-2.04,6.11-4.22,7.5-7.32c3.3-7.34-5.32-15.97-14.52-17.36
		c-9.2-1.39-18.03,2.17-25.97,5.89c-7.95,3.72-16.23,7.81-25.48,7.6c-25.27-0.6-30.21-24.35-19.11-38.7
		c9.37-12.12,24.57-21.14,37.65-30.03c36.73-24.94,79.57-43.27,125.34-53.44c13.52-3,32.02-3.34,38.11,8.04
		c6.32,11.8-7.3,22.76-17.49,31.43c-7.43,6.32-13.67,13.68-18.47,21.75c-3.52,5.92-5.03,15.13,2.2,18.18c3,1.25,6.43,0.81,9.59,0.25
		c12.77-2.25,24.94-5.77,36.76-10.07c25.41-9.21,49.2-21.98,73.72-33.38c12.88-5.99,25.96-11.6,39.6-16.12
		c16.04-5.32,33.96-9.1,50.92-4.5c16.97,4.6,31.56,20.33,27.25,34.85c-2.93,9.93-13.21,16.36-22.47,22.5
		c-4.59,3.05-9.08,6.21-13.45,9.49c-17.15,12.79-32.62,27.24-46.05,43.04c-5.44,6.39-10.12,16.28-2.89,21.83
		c4.38,3.37,10.86,2.93,16.36,1.91c16.27-3.02,30.94-9.08,44.88-16.51c20.86-11.11,40.11-25.28,60.68-36.91
		c15.84-8.96,38.64-15.92,53.23-4.13c9.44,7.63,10.71,20.5,6.46,30.54c-4.24,10.05-12.9,17.96-21.25,25.69
		c-34.53,32.03-67.05,65.7-97.36,100.86c-9.19,10.67-18.42,24.95-10.29,37.05c5.8,8.61,18.75,12.07,29.76,10.66
		c11.01-1.42,20.55-6.68,29.76-11.83c40.18-22.47,80.35-44.96,120.52-67.43c5.06-2.83,10.38-5.73,16.5-6.16
		c12.29-0.85,23.58,9.21,26.1,19.85c2.53,10.65-1.64,21.32-7.16,30.67C893.23,322.01,809.45,347.29,772.4,404.74z"/>
	
		<linearGradient id="SVGID_00000090984420907567281060000012359046990978553746_" gradientUnits="userSpaceOnUse" x1="691.9751" y1="534.0854" x2="679.1303" y2="-44.8486" gradientTransform="matrix(1.1851 0.0312 0.0312 1.0664 -45.1792 5.3376)">
		<stop  offset="0" style="stop-color:#BDD0FB"/>
		<stop  offset="1" style="stop-color:#9FA3FB"/>
	</linearGradient>
	<path style="opacity:0.15;fill:url(#SVGID_00000090984420907567281060000012359046990978553746_);" d="M768.07,50.16
		c-7.54,3.16-12.8,9.14-17.81,14.92c-5.07,5.86-10.13,11.72-15.2,17.57c-3.15,3.64-6.41,7.54-6.83,12.18
		c-0.42,4.64,3.3,10.09,8.69,10.39c2.62,0.14,5.02-0.91,7.29-1.93c15.62-7.05,31.38-14.18,44.66-24.11
		c4.66-3.49,9.21-7.65,10.16-13.04C801.48,52.2,779.56,45.34,768.07,50.16z"/>
	
		<linearGradient id="SVGID_00000160899203161924639900000012358731334575691659_" gradientUnits="userSpaceOnUse" x1="397.86" y1="540.6009" x2="385.0174" y2="-38.2336" gradientTransform="matrix(1.1851 0.0312 0.0312 1.0664 -45.1792 5.3376)">
		<stop  offset="0" style="stop-color:#BDD0FB"/>
		<stop  offset="1" style="stop-color:#9FA3FB"/>
	</linearGradient>
	<path style="opacity:0.15;fill:url(#SVGID_00000160899203161924639900000012358731334575691659_);" d="M419.56,502.45
		c-5.61,4.41-7.1,12.14-4.2,18.55c2.9,6.41,9.74,11.35,17.31,13.28c9.83,2.51,20.83-0.01,27.47-6.3c1.7-1.61,3.16-3.5,3.72-5.66
		c0.76-2.93-0.16-6.06-1.44-8.95C455.23,497.17,434.57,490.65,419.56,502.45z"/>
	
		<linearGradient id="SVGID_00000174590713751078478560000000349952506909866150_" gradientUnits="userSpaceOnUse" x1="267.0311" y1="543.5715" x2="254.1859" y2="-35.3781" gradientTransform="matrix(1.1851 0.0312 0.0312 1.0664 -45.1792 5.3376)">
		<stop  offset="0" style="stop-color:#BDD0FB"/>
		<stop  offset="1" style="stop-color:#9FA3FB"/>
	</linearGradient>
	<path style="opacity:0.15;fill:url(#SVGID_00000174590713751078478560000000349952506909866150_);" d="M217.95,414.31
		c-2.3,3.67-4.46,7.5-5.06,11.72s0.6,8.9,4.19,12c2.3,1.98,5.35,3.14,8.41,3.94c15.25,3.97,31.06-0.12,45.76-4.19
		c9.86-2.73,19.8-5.49,28.7-9.96c16.44-8.24,28.34-21.83,37.41-36.32c3.32-5.31,6.4-11.15,5.64-17.34
		c-1.01-8.18-8.86-15.2-17.84-18.13c-8.98-2.93-18.81-2.35-27.82-0.39c-15.81,3.43-30.63,7.93-42.33,17.53
		C240.31,385.21,227.66,398.8,217.95,414.31z"/>
</g>
<path class="st6" d="M482.09,427.87c-2.08-0.18-4.42-0.17-5.92,1.25c-2.09,1.98-1.16,5.65,1.05,7.51c2.2,1.87,5.2,2.49,8,3.29
	c5.1,1.47,9.95,3.78,14.28,6.79c1.89,1.31,3.87,3.66,2.62,5.56c-5.64-0.98-11.74-1.91-16.88,0.57c-1.6,0.77-3.17,2.05-3.37,3.78
	c-0.26,2.11,1.67,3.97,3.76,4.59c2.09,0.62,4.33,0.37,6.52,0.39c7.53,0.06,14.96,3.58,19.63,9.32c2.45,3,4.13,6.51,6.28,9.72
	c2.15,3.21,4.93,6.24,8.64,7.53c3.71,1.28,8.47,0.27,10.4-3.06c2.19-3.79,0.06-8.47-2.06-12.3
	C522.35,449.86,511.59,430.49,482.09,427.87z"/>
<linearGradient id="SVGID_00000114769074088740768320000007516446320529042854_" gradientUnits="userSpaceOnUse" x1="539.6113" y1="442.1745" x2="696.0756" y2="442.1745">
	<stop  offset="0.3035" style="stop-color:#FC8B85"/>
	<stop  offset="0.7238" style="stop-color:#E76E6B"/>
	<stop  offset="1" style="stop-color:#DD605E"/>
</linearGradient>
<path style="fill:url(#SVGID_00000114769074088740768320000007516446320529042854_);" d="M669.04,371.8
	c-20.82,5.43-37.26,24.11-39.55,44.95c-0.27,2.44-0.4,5.01-1.74,7.09c-2.55,3.96-8.53,4.7-11.19,8.59
	c-3.23,4.72-0.23,12.02-4.17,16.2c-3.63,3.85-10.05,2.12-15.21,0.65c-5.16-1.46-12.43-1.29-13.92,3.74
	c-4.45-8.36-14.93-11.83-24.57-12.69c-6.24-0.56-13.61,0.18-16.98,5.32c-1.6,2.45-1.95,5.46-2.05,8.36
	c-0.61,17.31,6.51,34.75,19.16,46.94c5.41,5.21,11.98,9.57,19.44,11.08c7.46,1.5,15.87-0.24,21.08-5.65
	c7.02,4.33,15.42,7.03,23.65,5.91c8.23-1.11,16.09-6.59,18.38-14.36c10.83,3.36,22.39-2.89,30.56-10.58
	c26.28-24.73,31.93-67.61,12.91-97.98L669.04,371.8z"/>
<linearGradient id="SVGID_00000135664958133993799950000006490960719265366445_" gradientUnits="userSpaceOnUse" x1="659.8018" y1="461.4356" x2="856.4012" y2="461.4356">
	<stop  offset="0.3035" style="stop-color:#FC8B85"/>
	<stop  offset="0.7238" style="stop-color:#E76E6B"/>
	<stop  offset="1" style="stop-color:#DD605E"/>
</linearGradient>
<path style="fill:url(#SVGID_00000135664958133993799950000006490960719265366445_);" d="M670.42,356.03
	c-9.68,12.23-11.91,29.02-9.98,44.53c1.93,15.51,7.57,30.26,12.18,45.19c2.58,8.36,4.87,16.99,4.45,25.73
	c-0.93,19.03-14.53,35.85-14.62,54.91c-0.1,19.31,14.2,36.33,31.29,45.13c17.09,8.8,36.69,10.98,55.78,13.02
	c5.56,0.59,11.12,1.19,16.68,1.78c13.36,1.43,26.88,2.85,40.2,1.05c13.32-1.8,26.63-7.17,35.48-17.34
	c10.25-11.77,13.22-28.18,14.14-43.79c2.46-41.9-6.98-83.52-17.55-124.12c-5.96-22.86-13.52-47.44-32.71-61.08
	c-5.85-4.16-12.97-7.14-20.07-6.16c-11.16,1.54-18.63,11.85-25.82,20.57c-7.71,9.33-16.56,17.72-26.28,24.91
	c-1.38,1.02-2.82,2.03-4.48,2.42c-2.37,0.55-4.81-0.26-7.11-1.06c-13.95-4.84-27.9-9.68-41.84-14.52c-0.32,1.83-0.64,3.66-0.95,5.49
	L670.42,356.03z"/>
<path class="st9" d="M683.69,363.17c1.18,16.76,10.37,32.82,24.38,42.63c3.79,2.65,8.86,4.9,12.96,2.73
	c1.74-0.93,2.99-2.52,4.18-4.06c11.93-15.45,23.87-30.9,35.8-46.35c4.76-6.16,9.71-12.82,10.08-20.51c0.24-5.04-1.55-9.98-3.86-14.5
	c-4.94-9.65-13.74-18.73-24.82-19.12c-10.31-0.37-19.12,6.73-26.77,13.45c-10.36,9.09-21.4,19.76-21.98,33.31L683.69,363.17z"/>
<linearGradient id="SVGID_00000141431719875267385140000018097733410952763019_" gradientUnits="userSpaceOnUse" x1="743.6667" y1="385.3925" x2="712.3336" y2="330.5594">
	<stop  offset="0" style="stop-color:#FCB2AF"/>
	<stop  offset="0.1383" style="stop-color:#F9AFAC"/>
	<stop  offset="0.856" style="stop-color:#EAA0A0"/>
</linearGradient>
<path style="fill:url(#SVGID_00000141431719875267385140000018097733410952763019_);" d="M720.17,384.45
	c6.2,6.14,8.89,5.18,10.03,4.75c3.64-1.38,1.91-8.38,4.08-15.35c5.34-17.24,30.05-20.15,28.96-26.94
	c-0.78-4.85-13.16-1.93-27.7-12.24c-7.73-5.48-13.16-12.64-16.37-11.02c-1.95,0.99-0.92,4.13-3.76,7.59c-2.7,3.29-6.9,3.3-8.78,4.67
	c-6.4,4.66-23.37,18.65-17.61,26.82c2.71,3.85,12.53,6.86,16.68,9.73C710.87,376.03,715.72,380.05,720.17,384.45z"/>
<linearGradient id="SVGID_00000136377238546052038210000007426964155776424838_" gradientUnits="userSpaceOnUse" x1="716.7332" y1="356.3369" x2="813.0009" y2="356.3369">
	<stop  offset="0.3035" style="stop-color:#FC8B85"/>
	<stop  offset="0.7238" style="stop-color:#E76E6B"/>
	<stop  offset="1" style="stop-color:#DD605E"/>
</linearGradient>
<path style="fill:url(#SVGID_00000136377238546052038210000007426964155776424838_);" d="M724.57,376.27
	c7.86-10.27,18.92-17.69,28.53-26.44c3.63-3.31,7.15-6.95,8.97-11.45s1.58-10.08-1.74-13.68c-1.14-1.24-2.58-2.18-3.76-3.39
	c-5.33-5.43-3.7-15.04,1.96-20.16c5.65-5.12,14-6.45,21.69-5.77c9.79,0.87,19.53,4.83,25.93,12.08c6.4,7.25,8.91,17.99,5.01,26.75
	c-5.56,12.49-20.82,17.1-33.08,23.65c-15.21,8.12-27.6,21.15-34.74,36.53c-2.53,5.45-4.47,11.28-8.26,15.99
	c-2.7,3.36-8.24,7.72-13.05,6.99c-6.75-1.02-4.22-3.16-4.75-8.45C716.01,396.46,716.44,386.89,724.57,376.27z"/>
<linearGradient id="SVGID_00000181051003828719202360000007432859170436916386_" gradientUnits="userSpaceOnUse" x1="671.1115" y1="380.4318" x2="711.2164" y2="380.4318">
	<stop  offset="0.3035" style="stop-color:#FC8B85"/>
	<stop  offset="0.7238" style="stop-color:#E76E6B"/>
	<stop  offset="1" style="stop-color:#DD605E"/>
</linearGradient>
<path style="fill:url(#SVGID_00000181051003828719202360000007432859170436916386_);" d="M699.58,393.25
	c-2.59-5.6-2.23-12.01-1.84-18.14c0.39-6.13,0.73-12.55-1.9-18.13c-2.62-5.59-9.23-9.92-15.22-7.97c-4.94,1.61-7.72,6.76-8.79,11.71
	c-2.4,11.04,1.4,22.79,8.44,31.76c4.63,5.89,18.93,20.38,27.49,19.86C718.18,411.68,701.94,398.36,699.58,393.25z"/>
<linearGradient id="SVGID_00000013153466426554391090000016547100821879870882_" gradientUnits="userSpaceOnUse" x1="712.0848" y1="454.5171" x2="888.6738" y2="454.5171">
	<stop  offset="0.3035" style="stop-color:#FC8B85"/>
	<stop  offset="0.7238" style="stop-color:#E76E6B"/>
	<stop  offset="1" style="stop-color:#DD605E"/>
</linearGradient>
<path style="fill:url(#SVGID_00000013153466426554391090000016547100821879870882_);" d="M790.57,366.3
	c9.66-11.43,25.17-18.71,40.21-16.46c15.04,2.24,28.32,15.31,28.18,30.1c11.64,8.12,18.93,21.82,19.03,35.74
	c0.02,2.44-0.16,4.96,0.7,7.26c0.75,1.98,2.2,3.61,3.45,5.33c4.98,6.87,6.79,15.56,6.5,23.97c-0.14,4.3-0.8,8.57-1.45,12.83
	c-0.7,4.55-1.4,9.1-2.09,13.65c-1.21,7.9-2.55,16.12-7.29,22.64c-1.97,2.71-4.46,5.02-6.65,7.57c-5.29,6.17-8.8,13.71-14.66,19.37
	c-3.16,3.05-6.91,5.46-10.63,7.84c-4.62,2.96-9.24,5.92-13.85,8.88c-4.01,2.57-8.03,5.14-12.39,7.1
	c-10.1,4.54-21.85,5.53-32.61,2.74c-1.69-0.44-3.4-0.97-5.15-0.94c-2.48,0.05-4.77,1.21-7.05,2.17c-13.3,5.6-29.39,4.42-41.67-3.06
	s-20.41-21.04-21.04-35.12c-0.61-13.63,7.55-28.74,21.34-31.21c7.02-1.26,14.19,0.88,20.8,3.5c-0.09-5.68,5.22-10.36,10.9-11.7
	c5.68-1.34,11.63-0.14,17.35,1.06c3.21-6.82,9.77-12.06,17.28-13.81c-4.49-6.55-3.7-16.06,1.82-21.82
	c-8.61-1.42-15.49-9.57-15.24-18.06c-0.02,0.6-9.2-7.19-9.95-9.42c-1.47-4.38-0.58-10.11-0.11-14.62
	C777.63,389.1,782.14,376.27,790.57,366.3z"/>
<linearGradient id="SVGID_00000001625973941966494770000010568388445542019723_" gradientUnits="userSpaceOnUse" x1="599.0994" y1="614.6696" x2="876.046" y2="614.6696">
	<stop  offset="0" style="stop-color:#190F8C"/>
	<stop  offset="0.5958" style="stop-color:#0F0770"/>
	<stop  offset="1" style="stop-color:#0A0362"/>
</linearGradient>
<path style="fill:url(#SVGID_00000001625973941966494770000010568388445542019723_);" d="M634.78,626.21
	c19.37-7.42,38.43-15.58,57.15-24.44c23.11-10.94,45.71-22.97,69.55-32.3s49.21-15.96,74.9-15.48c6.96,0.13,14.17,0.86,20.15,4.32
	c7.91,4.57,12.39,13.13,15.55,21.54c2.81,7.47,4.93,15.5,3.48,23.33c-0.95,5.12-3.39,9.87-6.23,14.28
	c-8.86,13.81-21.91,25.05-37.07,31.94c-10.32,4.69-21.47,7.36-32.59,9.74c-55.07,11.8-111.59,17.21-167.97,16.07
	c-4.84-0.1-9.77-0.26-14.35-1.81c-9.7-3.28-21.07-16.08-17.64-26.78C603.54,634.73,624.49,630.16,634.78,626.21z"/>
<linearGradient id="SVGID_00000180340223561469376520000008515626771801777319_" gradientUnits="userSpaceOnUse" x1="349.9224" y1="586.555" x2="626.6259" y2="586.555" gradientTransform="matrix(-0.9943 -0.1062 -0.1062 0.9943 1270.2305 83.2821)">
	<stop  offset="0" style="stop-color:#190F8C"/>
	<stop  offset="0.5958" style="stop-color:#0F0770"/>
	<stop  offset="1" style="stop-color:#0A0362"/>
</linearGradient>
<path style="fill:url(#SVGID_00000180340223561469376520000008515626771801777319_);" d="M823.41,636.76
	c-18.45-9.38-36.52-19.46-54.16-30.2c-21.78-13.26-42.95-27.56-65.63-39.3c-22.69-11.74-47.19-20.95-72.79-23.13
	c-6.93-0.59-14.18-0.6-20.51,2.21c-8.37,3.73-13.75,11.78-17.82,19.81c-3.61,7.14-6.6,14.9-6.01,22.83
	c0.39,5.19,2.3,10.16,4.63,14.85c7.3,14.65,19.05,27.17,33.38,35.58c9.75,5.73,20.55,9.54,31.35,13.06
	c53.47,17.42,109.08,28.64,165.26,33.32c4.83,0.4,9.75,0.75,14.47-0.31c10.01-2.26,22.71-13.81,20.47-24.81
	C853.55,648.46,833.21,641.75,823.41,636.76z"/>
<path class="st16" d="M805.29,651.3c0.08-10.38,12.01-18.93,22.22-15.93c4.15,1.22,8.38,3.97,12.43,2.5
	c2.06-0.75,3.6-2.49,5.63-3.33c2.54-1.05,5.58-0.56,8.04-1.78c5.47-2.72,3.96-10.8,6.99-16c3.17-5.46,10.58-6.67,17-7.28
	c3.62-0.34,7.51-0.63,10.65,1.16c4.78,2.73,5.75,8.92,6.22,14.29c0.68,7.85,1.36,15.71,2.04,23.56c0.46,5.29,0.9,10.76-0.83,15.8
	c-1.48,4.32-4.44,7.99-7.43,11.5c-5.7,6.69-11.78,13.19-19.1,18.17c-6.43,4.37-14.55,7.55-22.04,5.31
	c-7.49-2.24-12.54-11.96-7.69-17.95c0.57-0.7,1.26-1.37,1.41-2.25c0.28-1.62-1.36-2.88-2.8-3.74c-7.46-4.45-13.2-5.44-20.91-8.37
	C810.56,664.46,805.29,658.32,805.29,651.3z"/>
<path class="st16" d="M543.97,673.04c3,5.27,7.44,10.65,13.61,11.23c6.37,0.59,12.03-4.18,18.41-4.75c3.46-0.31,6.88,0.63,10.3,1.24
	c9.78,1.75,19.84,0.8,29.74-0.16c3.59-0.35,7.4-0.78,10.23-2.96s3.98-6.78,1.35-9.18c-3.44-3.15-10.54-0.61-12.88-4.61
	c4.42-0.71,9-1.49,12.67-3.98s6.14-7.24,4.49-11.29c-1.85-4.55-7.54-6.08-11.52-9.07c-3.07-2.31-5.26-5.65-8.57-7.62
	s-8.63-1.7-10,1.83c0.21-2.36-2.77-3.92-5.19-3.59c-2.42,0.33-4.49,1.81-6.78,2.62c-6.84,2.44-14.2-1.16-20.87-4.01
	c-6.34-2.71-13.24-4.85-20.1-3.91C524.29,628.19,536.47,659.84,543.97,673.04z"/>
<path class="st17" d="M566.58,661.07c-5.26-9.69-8.97-20.17-10.96-30.95c-0.31-1.7-0.5-3.69,0.74-4.93
	c1.36-1.36,3.83-0.98,5.29,0.28s2.16,3.13,2.82,4.92c2.74,7.4,5.73,14.71,8.96,21.92c1.49,3.34,3.08,6.72,5.6,9.41
	c0.54,0.58,1.18,1.15,1.97,1.27c1.23,0.19,2.4-0.83,2.75-1.99s0.08-2.41-0.26-3.58c-2.03-6.93-6.63-13.19-7.15-20.39
	c-0.19-2.61,0.79-5.9,3.45-6.26c2.46-0.33,4.29,2.11,5.34,4.29c4.52,9.43,6.23,20.74,14.28,27.59c0.52,0.44,1.17,0.89,1.84,0.73
	c0.43-0.1,0.76-0.42,1.03-0.76c2.32-2.99,0.79-7.24-0.82-10.64c-3.82-8.08-7.64-16.15-11.46-24.23"/>
<path class="st17" d="M832.62,634c-0.3,8.79-0.2,17.59,0.31,26.37c0.1,1.67,0.36,3.59,1.82,4.47c1.64,0.99,3.93-0.06,4.89-1.69
	c0.96-1.63,0.96-3.61,0.94-5.48c-0.09-6.76-0.18-13.53-0.27-20.29c-0.02-1.84-0.02-3.78,0.91-5.39c0.93-1.6,3.15-2.65,4.79-1.72
	c0.75,7.78,1.51,15.56,2.26,23.34c0.19,1.99,0.65,4.34,2.54,5.12c1.75,0.72,3.84-0.47,4.7-2.12s0.83-3.59,0.77-5.44
	c-0.3-8.54-0.83-17.07-1.58-25.58"/>
<path class="st18" d="M535.07,454.12c-3.46-2.87-5.39-7.05-7.51-10.96c-6.88-12.68-16.85-23.77-28.86-32.09
	c-0.4-0.28-0.84-0.57-1.34-0.57c-0.72,0-1.27,0.61-1.65,1.2c-2.57,4.05-1.31,9.49,1.43,13.44c2.74,3.95,6.71,6.9,10.1,10.34
	c5.09,5.17,8.89,11.53,10.99,18.4c1.23,4.03,1.77,8.72-0.72,12.15c-1.46,2.02-3.74,3.29-5.86,4.65c-2.85,1.83-5.51,3.92-7.94,6.25
	c-2.23,2.14-4.34,4.59-5.06,7.55c-0.72,2.96,0.33,6.52,3.11,7.92c3.85,1.93,8.38-1.02,11.22-4.2c6.73-7.55,10.3-8.68,19.39-4.32
	c7.92,3.8,16.47,4.16,24.28-0.91C578.13,469.01,542.25,460.08,535.07,454.12z"/>
<path class="st18" d="M691.69,524.08c-3.09-0.83-5.64-2.91-8.53-4.25c-6.28-2.91-14.25-2.37-19.44-6.88
	c-1.03-0.89-1.93-2.4-1.13-3.48c0.34-0.46,0.91-0.7,1.46-0.89c2.8-0.94,5.92-0.96,8.73-0.06c2,0.64,4.03,1.76,6.08,1.27
	c0.79-0.52,0.07-1.7-0.66-2.3c-2.23-1.83-4.53-3.65-7.17-4.85c-3.99-1.81-8.52-2.12-12.65-3.61c-4.12-1.49-8.15-4.86-8.01-9.14
	c6.1,1.7,12.19,3.4,18.29,5.11c0.49,0.14,1.01,0.27,1.51,0.16c0.5-0.11,0.96-0.56,0.87-1.05c-0.03-0.21-0.16-0.39-0.28-0.56
	c-2.03-2.78-5.27-4.46-8.47-5.85c-3.2-1.39-6.56-2.62-9.22-4.84c-2.67-2.21-4.55-5.71-3.72-9.02c3.81,1.22,7.63,2.44,11.44,3.65
	c-2.04-1.63-3.33-4.12-3.47-6.68c-0.04-0.7,0.05-1.49,0.62-1.92c0.64-0.48,1.55-0.28,2.31-0.02c3.8,1.3,7.2,3.46,10.56,5.61
	c3.45,2.2,6.92,4.42,10.03,7.06c4.07,3.45,7.48,7.58,10.62,11.84c4.26,5.78,8.11,11.84,11.87,17.93c2.35,3.8,4.24,9.44-0.81,12.1
	C699.52,525.01,694.91,524.94,691.69,524.08z"/>
<path class="st18" d="M717.53,510.21c-1.47-0.48-2.95-0.97-4.25-1.79c-1.7-1.06-3-2.6-4.27-4.12c-3.12-3.72-6.24-7.45-9.35-11.17
	c-1.5-1.79-3-3.58-4.66-5.22c-1.51-1.49-3.15-2.84-4.79-4.19c-5.75-4.74-11.51-9.49-17.26-14.23c-1.66,2.5-2.57,5.87-0.96,8.41
	c0.53,0.84,1.28,1.51,2.03,2.16c5.59,4.91,10.57,11.05,11.8,12.86c1.66,2.44,3.61,5.32,4.42,9.51c1.3,6.79-1.96,9.03,0,13.47
	c1.87,4.25,7,7.06,11.33,7.35c4.38,0.29,4.68-2.22,9.63-1.71c3.06,0.32,6.13,0.57,9.2,0.85c0.68,0.06,1.43,0.11,1.99-0.26
	c0.46-0.31,0.71-0.84,0.93-1.34c0.7-1.6,3.52-5.93,2.54-7.53C724.82,511.58,719.32,510.8,717.53,510.21z"/>
<linearGradient id="SVGID_00000021799981634291168880000000941794048460405174_" gradientUnits="userSpaceOnUse" x1="202.8547" y1="28.5433" x2="182.2675" y2="75.4823" gradientTransform="matrix(0.939 -0.344 0.344 0.939 213.4191 674.2205)">
	<stop  offset="0" style="stop-color:#BDD0FB"/>
	<stop  offset="1" style="stop-color:#9FA3FB"/>
</linearGradient>
<path style="fill:url(#SVGID_00000021799981634291168880000000941794048460405174_);" d="M489.19,684.38l-155.29-4.04
	c-9.29-0.24-16.63-7.77-16.38-16.8l0.72-26.02c0.25-9.04,7.98-16.17,17.28-15.93l155.29,4.04c9.29,0.24,16.63,7.77,16.38,16.8
	l-0.72,26.02C506.22,677.49,498.49,684.62,489.19,684.38z"/>
<ellipse class="st16" cx="492.81" cy="655.29" rx="28.96" ry="28.16"/>
<linearGradient id="SVGID_00000012452735289536770870000015297154314209554354_" gradientUnits="userSpaceOnUse" x1="423.228" y1="595.6549" x2="451.3321" y2="625.4623" gradientTransform="matrix(0.9349 0.0545 0.0545 0.9544 -26.912 22.5161)">
	<stop  offset="0" style="stop-color:#BDD0FB"/>
	<stop  offset="1" style="stop-color:#9FA3FB"/>
</linearGradient>
<path style="fill:url(#SVGID_00000012452735289536770870000015297154314209554354_);" d="M383.48,689l97.73-79.52
	c7.13-5.8,8.07-16.13,2.11-23.06l-17.18-19.96c-5.97-6.93-16.58-7.85-23.71-2.05l-97.73,79.52c-7.13,5.8-8.07,16.13-2.11,23.06
	l17.18,19.96C365.73,693.88,376.34,694.8,383.48,689z"/>
<ellipse class="st16" cx="364.69" cy="665.96" rx="28.96" ry="28.16"/>
<path class="st21" d="M377.27,572.89c-1.84-2.5-19.99-27.87-11.74-51.27c3.06-8.67,5.39-12.35,12.84-25.01
	c4.78-8.14,8.55-17.68,5.78-26.61c5.91-3,12.32,4.17,12.61,10.49c0.29,6.32-2.3,12.85-0.17,18.85c0.3,0.86,0.73,1.72,1.48,2.28
	c1.9,1.42,4.69,0.26,6.68-1.05c20.05-13.16,28.14-40.32,18.27-61.4c-1.79-3.83-4.11-7.5-4.99-11.6c-0.88-4.1,0.04-8.91,3.64-11.36
	c2.03,6.12,4.81,12.01,8.26,17.53c4.92,7.85,11.17,14.9,16.01,22.79c12,19.58,14.44,44.15,6.5,65.49
	c-4.11,11.06-10.55,24.23-2.79,33.38c4.55,5.36,13.49,6.83,19.69,3.23s8.85-11.78,5.82-18.03c-2.64-5.46-9.07-10.38-7.05-16.07
	c9.96,0.68,17.71,9.06,20.74,18.04c5.3,15.71-10.17,37.53-28.36,48.94c-4.19,2.63-14.77,8.98-29.76,9.47
	C399.36,602.01,379.72,576.22,377.27,572.89z"/>
<path class="st22" d="M397.62,564.79c-2.99-11.76,0.59-24.9,9.17-33.69c4.15-4.25,9.3-7.46,13.75-11.41
	c4.46-3.95,8.37-9.02,8.84-14.87c1.88,0.82,2.76,2.92,3.27,4.86c3.95,15.07-3.78,30.72-3.19,46.26c0.15,4.03,0.91,8.15,3.13,11.55
	c2.22,3.4,6.12,5.96,10.26,5.81c1.92-0.07,4.17-0.6,5.53,0.72c0.51,0.49,0.78,1.18,0.91,1.86c0.53,2.69-0.89,5.46-2.96,7.31
	c-0.57,0.51-2.41,2.42-7.3,4.04c-2.14,0.71-7.6,2.28-15.17,1.55c-2.16-0.21-6.38-0.61-10.35-2.35
	C401.7,581.29,398.18,567.01,397.62,564.79z"/>
<path class="st21" d="M535.74,113.58c-9.79,12.33-25.16,20.28-42.42,20.28c-29.59,0-53.58-23.33-53.58-52.1
	c0-25.67,19.09-47.01,44.22-51.31c-14.18,8.57-23.61,23.86-23.61,41.29c0,26.84,22.37,48.6,49.97,48.6
	C519.6,120.33,528.29,117.87,535.74,113.58z"/>
<linearGradient id="SVGID_00000176741531999998769820000003178428553048563352_" gradientUnits="userSpaceOnUse" x1="728.0267" y1="287.1354" x2="781.5757" y2="287.1354">
	<stop  offset="0" style="stop-color:#190F8C"/>
	<stop  offset="0.5958" style="stop-color:#0F0770"/>
	<stop  offset="1" style="stop-color:#0A0362"/>
</linearGradient>
<path style="fill:url(#SVGID_00000176741531999998769820000003178428553048563352_);" d="M728.97,247.85
	c-2.18-6.28-0.51-13.67,4.18-18.48c-0.91,3.06-1.36,6.25-1.33,9.44c0,0.43,0.02,0.88,0.24,1.26c0.82,1.4,3,0.37,4.22-0.72
	c6.4-5.75,14.57-10.96,23.18-9.69c0.91,0.13,1.99,0.53,2.09,1.42c0.11,1.03-1.16,1.6-2.16,1.94c-3.21,1.09-6.1,3.08-8.21,5.68
	c-0.69,0.85-1.33,1.95-0.93,2.95c0.42,1.07,1.77,1.44,2.93,1.65c5.52,0.97,11.18,1.46,16.42,3.41s10.15,5.68,11.71,10.92
	c0.56,1.88,0.29,4.47-1.64,5.05c-1.25-1.73-2.9-3.2-4.78-4.26c-1.44-0.81-3.57-1.24-4.52,0.09c-0.4,0.57-0.44,1.3-0.42,1.99
	c0.16,4.26,2.32,8.17,3.9,12.14c2.56,6.41,3.7,13.36,3.31,20.23c-0.33,5.82-2.03,12.04-6.75,15.64c-0.5,0.38-1.08,0.74-1.72,0.71
	c-1.72-0.08-1.9-2.49-1.53-4.13s0.13-4.05-1.59-4.08c-1.37,0.98-1.77,2.77-2.06,4.4c-1.18,6.55-2.28,13.15-4.48,19.44
	c-2.21,6.29-5.61,12.33-10.73,16.74c-2.19,1.88-4.92,3.51-7.84,3.3c1.63-4.62,2.61-9.45,2.9-14.32c0.2-3.34,0.08-6.71-0.64-9.98
	c-0.79-3.61-2.29-7.07-2.74-10.74c-0.59-4.88,0.73-9.77,1.16-14.67c1.26-14.26-4.99-28.03-11.1-41.05L728.97,247.85z"/>
<linearGradient id="SVGID_00000097465575301945855900000000425700515957280174_" gradientUnits="userSpaceOnUse" x1="637.3843" y1="282.5295" x2="747.2932" y2="282.5295">
	<stop  offset="0" style="stop-color:#190F8C"/>
	<stop  offset="0.5958" style="stop-color:#0F0770"/>
	<stop  offset="1" style="stop-color:#0A0362"/>
</linearGradient>
<path style="fill:url(#SVGID_00000097465575301945855900000000425700515957280174_);" d="M637.47,273.91
	c-0.26-3.77-0.25-11.71,4.55-19.57c0.82-1.35,3.35-5.25,9.2-9.72c2.25-1.72,12.6-9.32,29.77-11.58c8.27-1.09,27.85-3.67,44.54,8.49
	c9.17,6.68,13.86,14.67,15.74,19.42c6.71,16.97,6.71,31.45,5.22,38.68s-17.86,30.4-34.24,33.3
	C695.88,335.82,637.47,273.91,637.47,273.91z"/>
<path class="st18" d="M632,299c-8,12-5.29,25.3,1.92,36.52c4.9-5.05,8.86-10.97,11.63-17.37c0.75-1.74,1.42-3.54,1.54-5.42
	c0.27-4.55-3.22-9.05-7.8-10.03L632,299z"/>
<path class="st18" d="M630.92,343.73c1.46,14.1,7.32,22.74,33.08,21.98c29.94-0.56,45.75-14.67,54.01-28.1
	c1.08-1.76,2.01-3.5,2.84-5.17c0.02-0.03,0.02-0.05,0.02-0.05c5.15-10.48,6.02-19.39,6.02-19.39c2.04,0.57,5.06,1.03,7.7-0.34
	c4.14-2.14,4.82-7.44,5.95-17.37c0.94-8.28,1.36-12.48-1.23-15.36c-2.72-3.02-7.5-4.14-10.95-3.27c-4.9,1.24-11.28,8.99-12.63,24.74
	l-4.4-0.97c0,0-1.85-11.82,1.16-24.91c0.42-1.81-0.49-4.91,0.52-8.76c1.73-6.58,5.61-8.64,5.2-10.56c-0.59-2.75-9.94-4.82-48.15-1.9
	c-1.28,0.42-3.18,1.05-5.44,1.9c-9.18,3.45-10.86,5.3-13.4,4.34c-1.33-0.5,1.3-3.62-2.37-6.97c-0.45-0.41-1.49-1.4-2.65-1.2
	c-0.28,0.05-0.98,0.15-1.87,1.09c-2.21,2.34-3.28,7.31-3.53,8.53c-1.15,5.74-2.95,10.05-4.47,13.03c-2.53,4.98-5.39,8.47-4.47,13.03
	c0.41,2.02,1.15,2.2,1.49,4.34c0.7,4.41-1.77,7.92-2.98,10.13c-3.43,6.31-0.74,9.7,0.26,37.63
	C630.67,340.96,630.76,342.14,630.92,343.73z"/>
<linearGradient id="SVGID_00000021117946421751159170000005044591130160497543_" gradientUnits="userSpaceOnUse" x1="128.1247" y1="354.7264" x2="152.4594" y2="354.7264" gradientTransform="matrix(-1.0703 0.3263 0.2916 0.9565 722.3871 -97.6632)">
	<stop  offset="0" style="stop-color:#190F8C"/>
	<stop  offset="0.5958" style="stop-color:#0F0770"/>
	<stop  offset="1" style="stop-color:#0A0362"/>
</linearGradient>
<path style="fill:url(#SVGID_00000021117946421751159170000005044591130160497543_);" d="M684.13,288.42
	c-5.19-1.1-10.85-0.5-16.25,0.68c-1.28,0.28-2.62,0.6-3.87,0.38c-2.57-0.45-3.69-3.5-1.97-5.37c1.67-1.83,4.73-2,7.31-1.91
	c4.54,0.15,9.12,0.54,13.21,1.98c2.79,0.98,6.78,2.91,7.94,5.45c0.87,1.91,0.24,1.57-1.41,0.8
	C687.43,289.63,686.06,288.82,684.13,288.42z"/>
<linearGradient id="SVGID_00000177454446128050256200000011589411189640840845_" gradientUnits="userSpaceOnUse" x1="504.9581" y1="108.5462" x2="526.678" y2="108.5462" gradientTransform="matrix(0.6293 0.3533 -0.4718 0.8404 368.9608 13.2334)">
	<stop  offset="0" style="stop-color:#190F8C"/>
	<stop  offset="0.5958" style="stop-color:#0F0770"/>
	<stop  offset="1" style="stop-color:#0A0362"/>
</linearGradient>
<path style="fill:url(#SVGID_00000177454446128050256200000011589411189640840845_);" d="M636.84,287.38
	c3.55-0.85,6.86-0.19,9.82,0.98c0.7,0.28,1.43,0.59,2.27,0.43c1.73-0.34,3.37-3.01,2.9-4.71c-0.46-1.66-2.29-1.88-3.92-1.86
	c-2.85,0.03-5.8,0.27-8.78,1.44c-2.03,0.8-5.1,2.42-6.61,4.64c-1.13,1.67-0.64,1.39,0.62,0.74
	C634.42,288.38,635.52,287.69,636.84,287.38z"/>
<path class="st22" d="M679.66,296.56c-2.64-0.96-5.85-1.4-8.96-0.93c-2.16,0.32-4.33,1.16-5.32,2.48c0.94,0.48,2.32,0.37,3.56,0.27
	c2.87-0.22,5.75-0.23,8.57-0.04c1.71,0.11,4.96,1.06,6.55,0.56C683.04,297.92,681.24,297.13,679.66,296.56z"/>
<path class="st22" d="M636.65,296.39c1.99-0.99,4.31-1.42,6.44-0.86c1.47,0.39,2.89,1.33,3.41,2.77c-0.72,0.5-1.68,0.36-2.55,0.24
	c-1.99-0.28-4.02-0.35-6.03-0.19c-1.22,0.09-3.64,1.07-4.69,0.5C634.08,297.81,635.45,296.98,636.65,296.39z"/>
<path class="st27" d="M630.38,330.03c-0.33,1.13-5.86,20.82,5.95,31.85c7.63,7.12,18.06,6.49,29.77,5.79
	c3.4-0.2,23.69-1.66,38.7-14.48c7.55-6.44,12.78-14.91,13.19-15.58c1.27-2.09,2.21-3.9,2.84-5.17c0.02-0.03,0.02-0.05,0.02-0.05
	c0.55-2.99-0.73-6.05-2.04-8.82c-3.16-6.73-5.75-13.05-4.49-20.53c-3.13-1.48-3.78,0.36-4.3,2.93c-0.82,4.09-1.25,6.46-2.37,8.06
	c-1.65,2.38-3.45,1.22-8.82,4.43c-2.21,1.32-1.79,1.45-5.95,4.34c-3.76,2.61-5.68,3.93-7.44,4.34c-1.43,0.33-4.55,0.74-8.93-1.45
	c0.48,0.76,3.82,6.32,1.49,13.03c-2.37,6.81-8.65,9.23-9.48,9.54c-1.19-0.21-1.52-1.83-0.97-2.86c0.55-1.03,1.62-1.71,2.4-2.58
	c2.37-2.63,1.88-7.19-1.02-9.23c-0.89-0.63-1.91-1.02-2.93-1.38c-7.02-2.4-14.77-2.77-22-1.04c-3.15,0.76-6.77,2.59-6.86,5.74
	c-0.04,1.57,0.83,3,1.2,4.51c0.35,1.53-0.1,3.53-1.65,3.9c-0.79,0.18-1.54-0.01-1.82-0.12
	C631.54,343.84,630.54,332.03,630.38,330.03z"/>
<path class="st28" d="M642.11,336.9c-0.57-0.2-1.31-0.39-1.68,0.08c-0.25,0.32-0.16,0.78-0.03,1.17c1.4,4.24,5.56,7.49,10.12,7.92
	c3.98,0.37,7.79-1.2,11.1-3.2c1.6-0.96,4.62-3.71,1.79-5.37c-1.14-0.67-3.23,0.09-4.44,0.25c-1.85,0.25-3.71,0.46-5.58,0.55
	C649.57,338.48,645.7,338.19,642.11,336.9z"/>
<path class="st18" d="M656.21,349.12c-0.16,0.02-0.32,0.04-0.45,0.13c-0.31,0.22-0.2,0.71,0.03,1.01c0.23,0.3,0.56,0.57,0.61,0.94
	c0.09,0.56-0.48,1-0.99,1.29c-1.6,0.93-3.28,1.73-5.01,2.4c-0.53,0.21-1.13,0.4-1.65,0.17c-0.33-0.15-0.57-0.44-0.78-0.72
	c-0.54-0.7-1.09-1.4-1.63-2.1c-0.43-0.56-0.85-1.39-0.33-1.87c-0.67-0.41-1.39-0.83-2.18-0.84c-0.79-0.01-1.65,0.58-1.6,1.35
	c0.03,0.5,0.41,0.91,0.78,1.27c0.9,0.9,1.8,1.79,2.7,2.69c0.89,0.89,1.9,1.83,3.17,1.97c0.86,0.09,1.71-0.2,2.51-0.51
	c2.96-1.13,7.95-2.67,10.13-5.01C664.74,347.83,657.98,348.94,656.21,349.12z"/>
<path class="st29" d="M664.1,323.25c-2.87-2.7-6.47-4.66-9.43-7.27c-0.16,1.85,3.03,3.17,2.25,4.9c-0.35,0.78-1.35,1.1-2.25,1.29
	c-3.92,0.86-8,1.09-11.99,0.68c-1-0.1-2.05-0.27-2.81-0.87c-1.44-1.14-1.13-3.36,0.05-4.75c-4.15,2.64-7.47,6.36-9.46,10.6
	c0.53-1.69,2.13-2.99,3.91-3.68c1.78-0.69,3.74-0.85,5.67-0.92c5.54-0.19,11.11,0.33,16.47,1.54c4.63,1.04,8.98,2.81,11.83,6.39
	C668.09,328.12,666.38,325.4,664.1,323.25z"/>
</svg>
